<?xml version="1.0" encoding="utf-8"?>
<!-- Generator: Adobe Illustrator 26.5.0, SVG Export Plug-In . SVG Version: 6.00 Build 0)  -->
<svg version="1.1" id="Layer_1" xmlns="http://www.w3.org/2000/svg" xmlns:xlink="http://www.w3.org/1999/xlink" x="0px" y="0px"
	 viewBox="0 0 595.3 841.9" style="enable-background:new 0 0 595.3 841.9;" xml:space="preserve">
<style type="text/css">
	.st0{display:none;}
	.st1{display:inline;fill:#FFCF02;stroke:#020203;stroke-miterlimit:10;}
	.st2{display:inline;fill:#FFCF02;stroke:#020203;stroke-width:1;stroke-miterlimit:9.9998;}
	.st3{display:inline;fill:#FFFFFF;stroke:#000000;stroke-miterlimit:10;}
	.st4{display:inline;fill:none;}
	.st5{display:inline;}
	.st6{font-family:'ArialMT';}
	.st7{font-size:44px;}
	.st8{display:inline;fill:none;stroke:#000000;stroke-width:0.5;stroke-miterlimit:10;}
	.st9{display:inline;fill:#FFCF02;stroke:#000000;stroke-miterlimit:10;}
	.st10{display:inline;fill:#FFCF02;stroke:#000000;stroke-miterlimit:9.9999;}
	.st11{fill:#FFFFFF;}
	.st12{fill:#88133C;}
	.st13{fill:#FFCF02;stroke:#F9B233;stroke-miterlimit:10;}
	.st14{fill:#FFCF02;stroke:#F9B233;stroke-width:1;stroke-miterlimit:9.9998;}
	.st15{fill:#FFFFFF;stroke:#F9B233;stroke-miterlimit:10;}
	.st16{fill:none;}
	.st17{font-family:'Century';}
	.st18{font-size:32px;}
	.st19{fill:none;stroke:#000000;stroke-width:0.5;stroke-miterlimit:10;}
</style>
<g id="Layer_1_00000046299289750596514330000014239703721012409472_" class="st0">
	<circle class="st1" cx="142.6" cy="136.9" r="108.7"/>
	
		<ellipse transform="matrix(0.7071 -0.7071 0.7071 0.7071 -41.4811 173.6481)" class="st2" cx="188.9" cy="136.9" rx="108.7" ry="108.7"/>
	<ellipse class="st3" cx="162.9" cy="136.9" rx="82.6" ry="106.1"/>
	<rect x="60.8" y="259.4" class="st4" width="204.2" height="48.5"/>
	<text transform="matrix(1 0 0 1 60.7573 290.6064)" class="st5 st6 st7">MODERNO</text>
	<text transform="matrix(1 0 0 1 60.7573 290.6064)" class="st8 st6 st7">MODERNO</text>
</g>
<g id="Layer_3" class="st0">
	<circle class="st9" cx="419" cy="151.6" r="108.7"/>
	<ellipse class="st10" cx="465.4" cy="151.6" rx="108.7" ry="108.7"/>
	<ellipse class="st3" cx="439.3" cy="151.6" rx="82.6" ry="106.1"/>
	<g class="st5">
		<path class="st11" d="M439.3,26.5l6.8-17c9.3,3.7,14,14.5,10.2,23.8s-14.5,14-23.8,10.2c-9.3-3.7-14-14.5-10.2-23.8
			c1.5-3.8,4.3-7,7.9-9.1L439.3,26.5z"/>
		<g>
			<path class="st12" d="M438.5,15.2c-0.2-0.7-0.4-1.4-0.6-2c-0.1-0.6-0.2-1.2,0-1.7c0.2-0.6,0.5-1.1,1-1.8s1.2-1.4,1.9-2.3l4.2-5.2
				l3.2,2c4.6,2.9,8.1,7.1,9.9,11.6s2.2,9.4,1,13.8c-2.1,8.8-10,15.2-18.4,15.7c-2.1,0.2-4.2,0-6.3-0.5c-2-0.5-4-1.4-5.9-2.5
				c-3.7-2.3-6.6-5.8-8.3-9.9c-1.7-4.2-2.1-9-1-13.8c1.2-4.7,3.9-9.3,8.1-12.8l2.9-2.4l4.8,4.5c0.8,0.8,1.6,1.4,2.2,2
				c0.6,0.6,1,1.1,1.2,1.6s0.3,1.1,0.2,1.7C438.8,13.8,438.6,14.5,438.5,15.2z M440.1,37.8c-1.7-1.9-3.3-3.8-4.8-5.9
				c-1.6-2-3-4.1-4.3-6.2s-2.4-4.3-3.3-6.3c-1-2.1-1.7-4.1-2.4-5.9l7.7,2.1c-2.9,0.6-5.8,2.5-7.7,5.4c-1.8,2.9-2.6,6.7-1.9,10.4
				s2.8,7.2,5.9,9.6c1.6,1.2,3.4,2.1,5.3,2.7c1.9,0.6,3.9,0.7,5.9,0.6c2-0.2,4-0.6,5.8-1.5c1.8-0.8,3.4-2,4.8-3.4s2.5-3,3.3-4.8
				s1.2-3.7,1.3-5.5c0.2-3.7-1.2-7.4-3.4-10c-2.2-2.7-5.4-4.1-8.3-4.3l7.4-3.2c-0.4,1.9-0.8,4-1.5,6.2c-0.6,2.2-1.4,4.5-2.4,6.7
				c-1,2.3-2.1,4.6-3.4,6.8C442.8,33.5,441.5,35.6,440.1,37.8z"/>
		</g>
	</g>
	<g class="st5">
		<path class="st11" d="M405.2,29.7l-1.1-13.2c7.2-0.6,13.7,4.9,14.2,12.1c0.6,7.2-4.9,13.7-12.1,14.2C399,43.4,392.6,38,392,30.7
			c-0.2-3,0.5-5.9,2.2-8.4L405.2,29.7z"/>
		<g>
			<path class="st12" d="M399.4,19.9l-1.3-0.3c-0.4-0.1-0.6-0.1-0.7-0.3c-0.1-0.1,0-0.4,0.2-0.8s0.5-0.9,0.8-1.7l2.6-6.5l2.6,0.4
				c4.3,0.6,8.1,2.5,10.7,5.1c2.7,2.6,4.4,5.8,5,9.2c1.3,6.7-1.9,13.2-7.3,16.3c-2.6,1.6-5.8,2.3-8.9,2.1s-6.2-1.5-8.9-3.6
				c-2.6-2.1-4.6-5.2-5.6-8.8s-0.8-7.8,0.7-11.9l0.9-2.4l6.9,0.9c0.8,0.1,1.4,0.1,1.8,0.1s0.7,0.1,0.8,0.2c0.1,0.1,0,0.4-0.1,0.7
				L399.4,19.9z M410.9,39.4c-2-0.8-3.9-1.5-5.9-2.4c-1.9-0.9-3.8-1.9-5.6-2.9c-1.7-1.1-3.3-2.3-4.7-3.5c-1.4-1.2-2.6-2.4-3.7-3.5
				l7.9-1.6c-1.7,0.9-3.2,2.7-3.6,5s0,4.9,1.5,7c1.5,2.1,3.9,3.8,6.6,4.4c2.7,0.6,5.7,0.1,8.2-1.3c1.2-0.7,2.3-1.7,3.2-2.8
				c0.9-1.1,1.5-2.4,2-3.7c0.4-1.3,0.6-2.7,0.5-4.1s-0.5-2.7-1.1-3.8c-1.1-2.3-3.3-4-5.5-4.8c-2.2-0.7-4.5-0.4-6.1,0.7l5.2-6.1
				c0.5,1.5,1,3.1,1.3,4.9c0.4,1.8,0.6,3.8,0.7,5.8c0.1,2.1,0,4.2-0.1,6.3C411.5,35.2,411.2,37.3,410.9,39.4z"/>
		</g>
	</g>
	<g class="st5">
		<path class="st11" d="M472.5,31.1l1.1-13.2c-7.2-0.6-13.7,4.9-14.2,12.1c-0.6,7.2,4.9,13.7,12.1,14.2s13.7-4.9,14.2-12.1
			c0.2-3-0.5-5.9-2.2-8.4L472.5,31.1z"/>
		<g>
			<path class="st12" d="M466.7,40.8c-0.3-2.1-0.6-4.2-0.8-6.3c-0.2-2.1-0.2-4.2-0.1-6.3s0.4-4,0.7-5.8c0.3-1.8,0.8-3.4,1.3-4.9
				l5.2,6.1c-1.6-1.1-3.9-1.4-6.1-0.7c-2.2,0.7-4.3,2.4-5.5,4.8c-0.6,1.2-0.9,2.5-1.1,3.8c-0.1,1.4,0.1,2.7,0.5,4.1
				c0.4,1.3,1.1,2.6,2,3.7c0.9,1.1,2,2,3.2,2.8c2.4,1.5,5.4,1.9,8.2,1.3c2.7-0.6,5.1-2.3,6.6-4.4c1.5-2.2,2-4.8,1.5-7
				c-0.5-2.3-1.9-4.2-3.6-5l7.9,1.6c-1.1,1.1-2.3,2.4-3.7,3.5c-1.4,1.2-3,2.4-4.7,3.5s-3.6,2.1-5.6,2.9
				C470.7,39.3,468.7,40.1,466.7,40.8z M478.2,21.3l-0.4-1.3c-0.1-0.4-0.2-0.6-0.1-0.7s0.3-0.2,0.8-0.2c0.4,0,1.1,0,1.8-0.1l6.9-0.9
				l0.9,2.4c1.6,4.1,1.7,8.2,0.7,11.9c-1,3.6-3,6.7-5.6,8.8s-5.7,3.4-8.9,3.6c-3.1,0.2-6.3-0.5-8.9-2.1c-5.3-3.1-8.6-9.6-7.3-16.3
				c0.6-3.3,2.3-6.6,5-9.2s6.4-4.5,10.7-5.1l2.6-0.4l2.6,6.5c0.3,0.7,0.6,1.3,0.8,1.7c0.2,0.4,0.3,0.6,0.2,0.8
				c-0.1,0.1-0.3,0.2-0.7,0.3L478.2,21.3z"/>
		</g>
	</g>
	<rect x="343.4" y="270.2" class="st4" width="204.2" height="48.5"/>
	<text transform="matrix(1 0 0 1 343.3953 301.4837)" class="st5 st6 st7">MODERNO</text>
	<text transform="matrix(1 0 0 1 343.3953 301.4837)" class="st8 st6 st7">MODERNO</text>
</g>
<g id="Layer_2_00000103251388543635964820000010448221649739142318_">
	<circle class="st13" cx="283.3" cy="211.6" r="108.7"/>
	
		<ellipse transform="matrix(0.7071 -0.7071 0.7071 0.7071 -53.0434 295.1075)" class="st14" cx="329.7" cy="211.6" rx="108.7" ry="108.7"/>
	<ellipse class="st15" cx="307.8" cy="211.6" rx="84.2" ry="106.1"/>
	<g>
		<path class="st11" d="M303.6,86.5l6.8-17c9.3,3.7,14,14.5,10.2,23.8c-3.7,9.3-14.5,14-23.8,10.2c-9.3-3.7-14-14.5-10.2-23.8
			c1.5-3.8,4.3-7,7.9-9.1L303.6,86.5z"/>
		<g>
			<path class="st12" d="M302.8,75.2c-0.2-0.7-0.4-1.4-0.6-2c-0.1-0.6-0.2-1.2,0-1.7c0.2-0.6,0.5-1.1,1-1.8c0.5-0.7,1.2-1.4,1.9-2.3
				l4.2-5.2l3.2,2c4.6,2.9,8.1,7.1,9.9,11.6s2.2,9.4,1,13.8c-2.1,8.8-10,15.2-18.4,15.7c-2.1,0.2-4.2,0-6.3-0.5
				c-2-0.5-4-1.4-5.9-2.5c-3.7-2.3-6.6-5.8-8.3-9.9c-1.7-4.2-2.1-9-1-13.8c1.2-4.7,3.9-9.3,8.1-12.8l2.9-2.4l4.8,4.5
				c0.8,0.8,1.6,1.4,2.2,2s1,1.1,1.2,1.6s0.3,1.1,0.2,1.7C303,73.8,302.9,74.5,302.8,75.2z M304.4,97.8c-1.7-1.9-3.3-3.8-4.8-5.9
				c-1.6-2-3-4.1-4.3-6.2s-2.4-4.3-3.3-6.3c-1-2.1-1.7-4.1-2.4-5.9l7.7,2.1c-2.9,0.6-5.8,2.5-7.7,5.4c-1.8,2.9-2.6,6.7-1.9,10.4
				c0.7,3.7,2.8,7.2,5.9,9.6c1.6,1.2,3.4,2.1,5.3,2.7s3.9,0.7,5.9,0.6c2-0.2,4-0.6,5.8-1.5c1.8-0.8,3.4-2,4.8-3.4s2.5-3,3.3-4.8
				s1.2-3.7,1.3-5.5c0.2-3.7-1.2-7.4-3.4-10c-2.2-2.7-5.4-4.1-8.3-4.3l7.4-3.2c-0.4,1.9-0.8,4-1.5,6.2c-0.6,2.2-1.4,4.5-2.4,6.7
				c-1,2.3-2.1,4.6-3.4,6.8C307.1,93.5,305.8,95.6,304.4,97.8z"/>
		</g>
	</g>
	<g>
		<path class="st11" d="M269.5,90.7l-1.1-13.2c7.2-0.6,13.7,4.9,14.2,12.1c0.6,7.2-4.9,13.7-12.1,14.2c-7.2,0.6-13.7-4.9-14.2-12.1
			c-0.2-3,0.5-5.9,2.2-8.4L269.5,90.7z"/>
		<g>
			<path class="st12" d="M263.7,80.9l-1.3-0.3c-0.4-0.1-0.6-0.1-0.7-0.3c-0.1-0.1,0-0.4,0.2-0.8s0.5-0.9,0.8-1.7l2.6-6.5l2.6,0.4
				c4.3,0.6,8.1,2.5,10.7,5.1c2.7,2.6,4.4,5.8,5,9.2c1.3,6.7-1.9,13.2-7.3,16.3c-2.6,1.6-5.8,2.3-8.9,2.1c-3.1-0.2-6.2-1.5-8.9-3.6
				c-2.6-2.1-4.6-5.2-5.6-8.8c-1-3.6-0.8-7.8,0.7-11.9l0.9-2.4l6.9,0.9c0.8,0.1,1.4,0.1,1.8,0.1s0.7,0.1,0.8,0.2
				c0.1,0.1,0,0.4-0.1,0.7L263.7,80.9z M275.2,100.4c-2-0.8-3.9-1.5-5.9-2.4c-1.9-0.9-3.8-1.9-5.6-2.9c-1.7-1.1-3.3-2.3-4.7-3.5
				c-1.4-1.2-2.6-2.4-3.7-3.5l7.9-1.6c-1.7,0.9-3.2,2.7-3.6,5s0,4.9,1.5,7s3.9,3.8,6.6,4.4s5.7,0.1,8.2-1.3c1.2-0.7,2.3-1.7,3.2-2.8
				c0.9-1.1,1.5-2.4,2-3.7c0.4-1.3,0.6-2.7,0.5-4.1s-0.5-2.7-1.1-3.8c-1.1-2.3-3.3-4-5.5-4.8c-2.2-0.7-4.5-0.4-6.1,0.7L274,77
				c0.5,1.5,1,3.1,1.3,4.9c0.4,1.8,0.6,3.8,0.7,5.8c0.1,2.1,0,4.2-0.1,6.3C275.8,96.2,275.5,98.3,275.2,100.4z"/>
		</g>
	</g>
	<g>
		<path class="st11" d="M336.8,91.1l1.1-13.2c-7.2-0.6-13.7,4.9-14.2,12.1c-0.6,7.2,4.9,13.7,12.1,14.2c7.2,0.6,13.7-4.9,14.2-12.1
			c0.2-3-0.5-5.9-2.2-8.4L336.8,91.1z"/>
		<g>
			<path class="st12" d="M331,100.8c-0.3-2.1-0.6-4.2-0.8-6.3c-0.2-2.1-0.2-4.2-0.1-6.3c0.1-2.1,0.4-4,0.7-5.8
				c0.3-1.8,0.8-3.4,1.3-4.9l5.2,6.1c-1.6-1.1-3.9-1.4-6.1-0.7c-2.2,0.7-4.3,2.4-5.5,4.8c-0.6,1.2-0.9,2.5-1.1,3.8
				c-0.1,1.4,0.1,2.7,0.5,4.1c0.4,1.3,1.1,2.6,2,3.7s2,2,3.2,2.8c2.4,1.5,5.4,1.9,8.2,1.3c2.7-0.6,5.1-2.3,6.6-4.4
				c1.5-2.2,2-4.8,1.5-7c-0.5-2.3-1.9-4.2-3.6-5l7.9,1.6c-1.1,1.1-2.3,2.4-3.7,3.5c-1.4,1.2-3,2.4-4.7,3.5s-3.6,2.1-5.6,2.9
				C335,99.3,333,100.1,331,100.8z M342.5,81.4l-0.4-1.3c-0.1-0.4-0.2-0.6-0.1-0.7s0.3-0.2,0.8-0.2c0.4,0,1.1,0,1.8-0.1l6.9-0.9
				l0.9,2.4c1.6,4.1,1.7,8.2,0.7,11.9c-1,3.6-3,6.7-5.6,8.8c-2.6,2.1-5.7,3.4-8.9,3.6c-3.1,0.2-6.3-0.5-8.9-2.1
				c-5.3-3.1-8.6-9.6-7.3-16.3c0.6-3.3,2.3-6.6,5-9.2s6.4-4.5,10.7-5.1l2.6-0.4l2.6,6.5c0.3,0.7,0.6,1.3,0.8,1.7
				c0.2,0.4,0.3,0.6,0.2,0.8c-0.1,0.1-0.3,0.2-0.7,0.3L342.5,81.4z"/>
		</g>
	</g>
	<rect x="204.7" y="330" class="st16" width="221.8" height="27.4"/>
	<text transform="matrix(1 0 0 1 204.7215 353.3275)" class="st17 st18">EL DORADO</text>
	<text transform="matrix(1 0 0 1 204.7215 353.3275)" class="st19 st17 st18">EL DORADO</text>
</g>
</svg>
