<?xml version="1.0" encoding="utf-8"?>
<!-- Generator: Adobe Illustrator 26.1.0, SVG Export Plug-In . SVG Version: 6.00 Build 0)  -->
<svg version="1.1" id="Layer_1" xmlns="http://www.w3.org/2000/svg" xmlns:xlink="http://www.w3.org/1999/xlink" x="0px" y="0px"
	 viewBox="0 0 595.3 841.9" style="enable-background:new 0 0 595.3 841.9;" xml:space="preserve">
<style type="text/css">
	.st0{fill:none;stroke:#F4D839;stroke-width:5;stroke-miterlimit:10;}
	.st1{fill:#F4D839;}
	.st2{fill:none;stroke:#000000;stroke-width:3;stroke-miterlimit:10;}
	.st3{fill:none;}
	.st4{font-family:'ArialMT';}
	.st5{font-size:49px;}
	.st6{display:none;fill:none;stroke:#000000;stroke-width:0.75;stroke-miterlimit:10;enable-background:new    ;}
	.st7{fill:none;stroke:#000000;stroke-width:4;stroke-miterlimit:10;}
</style>
<g id="Layer_1_00000134207943725307801300000016614104875914172595_">
	<line class="st0" x1="148.4" y1="90.2" x2="288" y2="300.1"/>
	<g>
		<g>
			<path class="st1" d="M278.9,302.3c-0.1,0.7-0.4,1.1-1,1.3c3.3,0.9,6.7,1.8,10,2.6c-0.2-0.8-0.4-1.5-0.6-2.3
				c-0.8-3.4-5.7-6-8.8-3.6c-2.3,1.8-4.7,0-7.4,0.1c-2.6,0.1-5,1.1-6.6,3.1c-3.4,4.2-0.4,12.2,5.8,10c0.9-0.3,1.8-0.7,2.7-1.1
				c2-0.7,1.6-1.3-1.2-1.6c0.9-3.3,1.8-6.7,2.6-10c-3,0.9-5.8,1.3-8.9,0.7c-7.5-1.3-10.8,9.7-3.2,11.6c2.6,0.6,4.3,0.4,6.6-0.9
				c4.9-2.7,3-11.8-3-11.2c-3.7,0.4-6.5-0.4-10-1.1c-1.3-0.3-2.8-0.4-4.1-0.1c-1.4,0.2-2.7,1.4-4,1.6c-2.6,0.3-5-2-7.9-1.8
				c-3.1,0.2-5,1.8-6.8,4.2c-3.5,4.8,3.4,11.6,8.2,8.2c1.5-1.1,1.9-1.2,3.6-0.6c0-3.9,0-7.7,0-11.6c-2.9,0.6-5.9-0.5-8.8-0.7
				c-3.1-0.2-5.7,0.5-8.5,1.9c1.5-0.2,3.1-0.4,4.6-0.6c-6.2-2.2-12.9,0.4-19.3-1.4c-5.2-1.5-9.1,4.3-6.8,8.8
				c2.8,5.4,3,11.1,1.2,16.8c3.9,0.5,7.9,1.1,11.8,1.6c0.3-5.3,0.5-10.6,0.8-16c0.3-5.7-8.8-8.5-11.2-3c-3.7,8.5-2,16.4-2.2,25.4
				c-0.1,4.3-1,7.7,1.9,11.4c2.9,3.5,7.3,6.4,10.9,9.2c7,5.5,14.7,10.2,21.5,15.9c6.5,5.5,13.7,7.5,22.2,7.3
				c9.6-0.2,13.1-5.9,15.8-14.2c3.1-9.4,6.1-18.8,8.9-28.3c1.4-4.6,2.8-9.2,4.1-13.8c1.1-3.6,3.2-8,1.5-11.7
				c-1.6-3.6-5.9-4.8-9.3-3.2c-3.7,1.7-5.5,6.3-7.4,9.7c-4.8,8.8-8.9,18-12.3,27.5c-1.8,5.1-3.4,10.2-4.7,15.4
				c-1.2,4.5-2.4,9.1,0.4,13.2c3.1,4.6,11.4,3.3,11.2-3c-0.8-19.4,6.7-37.5,14-55.1c2.7-6.5-7.5-10.1-11-4.6
				c-11,17.2-18.5,36.4-21.9,56.4c3.9,0.5,7.9,1.1,11.8,1.6c-2.1-18,2.3-35.6,10-51.9c3.4-7.1-5.7-12.1-10.4-6.1
				c-11.3,14.7-17.3,32.8-17.4,51.4c3.9-0.5,7.9-1.1,11.8-1.6c-2.6-6.7-1.8-15.2-0.8-22.1c1-7.4,3.1-14.6,5.8-21.5
				c2-4.9-4.7-9.5-8.8-6.8c-6.5,4.2-10,12.9-12.8,19.9c-3.2,8.2-4.9,16.7-5.4,25.5c4,0,8,0,12,0c-0.8-14.4,1.3-28.4,6.4-42
				c2.5-6.7-7.4-10-11-4.6c-8.5,12.7-13.5,26.9-15.4,42c3.9-0.5,7.9-1.1,11.8-1.6c-1.2-6.4-0.7-12.9,0-19.3c0.6-5.8,1-11.7,4.4-16.7
				c-3.5-2-6.9-4-10.4-6.1c-6.8,11.9-13,23.9-14.1,37.8c4,0,8,0,12,0c-0.1-10-0.2-20,1.9-29.8c1.4-6.3-7.9-11.1-11-4.6
				c-4.2,9-8.2,18.1-8.2,28.2c0,7.9,11.2,7.5,12,0c0.5-4.3,0.9-8.6,1.4-12.8c0.2-1.6,0.1-3.5,0.9-5c0.6-1.2,1.8-2,2.4-3.3
				c3-6.1-2.7-12.1-8.9-11.9c-7.4,0.2-9.7,7.8-5.7,13.2c4,5.5,10.3,10.2,15.5,14.4c5.5,4.4,11.3,8.5,17.3,12.3
				c6,3.7,12.6,8,19.4,10.2c6.6,2.2,13.2-1.3,15.5-7.9c1.1-3.3,1.1-6.9,1.1-10.3c0-1.8,0-3.5,0-5.3c0-1.3-0.7-5.1-0.2-6.2
				c-1.2,0.9-2.4,1.8-3.6,2.8c0.3-0.1,0.6-0.2,0.9-0.3c-1.9-0.5-3.9-1-5.8-1.5c5.2,4,9.4,11.2,13.5,16.3c3.7,4.6,12.2-0.4,10-5.8
				c-2.7-6.8-5.4-13.7-5.8-21.1c-3.4,1.4-6.8,2.8-10.2,4.2c5.1,5.6,8.1,12.2,9.5,19.6c3.7-1.5,7.3-3.1,11-4.6
				c-1.7-3.6-3.1-7.3-4.4-11.1c-3.3,1.9-6.7,3.9-10,5.8c5.8,6.7,7.7,15.9,12.6,23.2c4.4,6.4,13.6,0.9,10.4-6.1
				c-2.4-5.1-4.8-10.3-7.2-15.4c-3.5,2-6.9,4-10.4,6.1c4.9,7.4,9.9,14.8,14.8,22.2c4.3,6.4,14.7,0.4,10.4-6.1
				c-4.9-7.4-9.9-14.8-14.8-22.2c-4.3-6.5-13.6-0.9-10.4,6.1c2.4,5.1,4.8,10.3,7.2,15.4c3.5-2,6.9-4,10.4-6.1
				c-5.6-8.2-7.8-18.1-14.5-25.7c-3.9-4.5-11.8,0.3-10,5.8c1.5,4.8,3.4,9.4,5.6,14c3.1,6.5,12.1,1.6,11-4.6
				c-1.7-9.4-6.1-17.8-12.6-24.9c-3.4-3.8-10.5-0.9-10.2,4.2c0.4,8.6,3.1,16.4,6.2,24.3c3.3-1.9,6.7-3.9,10-5.8
				c-3.5-4.4-7-8.8-10.6-13.2c-2.8-3.5-6.6-6.5-11.1-3.8c-4.1,2.5-3.6,7.7-3.6,11.8c0,2,0.9,14.5-1,14.7c-1.3,0.2-4.5-2.2-5.7-2.8
				c-2.3-1.2-4.5-2.4-6.8-3.7c-4.2-2.4-8.3-5-12.3-7.8s-7.9-5.8-11.6-9c-1.7-1.5-3.4-3-5.1-4.6c-1-1-2.1-2-3.1-3
				c-0.4-0.4-0.8-0.8-1.2-1.2c-1-1.2-1-0.7,0,1.6c-0.9,1.2-1.8,2.4-2.8,3.6c-1.2-1.7-2.3-3.3-3.5-5c-0.3,0.4-0.6,0.8-0.9,1.2
				c-0.7,0.7-1.1,1.8-1.5,2.7c-1,2.2-1.3,4.5-1.6,7c-0.6,5.1-1.1,10.3-1.7,15.5c4,0,8,0,12,0c0-8,3.2-15.1,6.5-22.2
				c-3.7-1.5-7.3-3.1-11-4.6c-2.4,10.9-2.5,21.9-2.4,33c0.1,7.8,11.4,7.6,12,0c0.9-11.6,6.8-21.9,12.5-31.7
				c3.9-6.8-6.1-12.4-10.4-6.1c-4.2,6.3-5.1,13.6-5.8,20.9c-0.8,8.2-1.2,16.2,0.3,24.3c1.3,7.3,11,4.5,11.8-1.6
				c1.6-13,6.5-25.1,13.7-36c-3.7-1.5-7.3-3.1-11-4.6c-5.4,14.4-7.7,29.8-6.8,45.2c0.4,7.7,11.5,7.7,12,0c0.4-6.5,1.6-12.8,3.7-19
				c1-2.8,2.1-5.6,3.5-8.2c1.2-2.4,2.7-6.3,5-7.7c-2.9-2.3-5.9-4.5-8.8-6.8c-3.2,8-5.2,16.2-6.3,24.7c-1,8-1.8,17.6,1.3,25.3
				c2.4,6,11.7,5.6,11.8-1.6c0.1-16.6,5.7-32.2,15.8-45.3c-3.5-2-6.9-4-10.4-6.1c-8.5,18.1-13.9,37.8-11.6,57.9
				c0.7,6.1,10.6,8.9,11.8,1.6c3.2-19.2,10.2-37.2,20.7-53.6c-3.7-1.5-7.3-3.1-11-4.6c-7.7,18.6-15.2,37.7-14.4,58.2
				c3.7-1,7.5-2,11.2-3c-0.6-0.9,1-4.8,1.3-5.7c0.6-2.3,1.3-4.6,2-6.9c1.3-4.3,2.8-8.5,4.5-12.6c1.7-4.2,3.6-8.4,5.6-12.4
				c1.1-2.1,2.2-4.2,3.3-6.3c0.6-1.1,1.9-4.8,3.1-5.4c-1.5,0.2-3.1,0.4-4.6,0.6c0.3,0.1,0.5,0.2,0.8,0.3c-1.4-1.4-2.8-2.8-4.2-4.2
				c0.2-2.1,0.1-2.4-0.2-0.9c-0.2,0.6-0.4,1.2-0.5,1.8c-0.4,1.5-0.9,3.1-1.3,4.6c-0.9,3.1-1.8,6.1-2.7,9.2
				c-1.8,6.1-3.7,12.2-5.6,18.3c-1,3-1.9,6.1-2.9,9.1c-0.8,2.6-1.4,6.2-2.8,8.5c-2,3.1-10.8,1.2-13.7-0.3c-4.5-2.3-8.4-6.7-12.6-9.7
				c-4.7-3.3-9.5-6.5-14-10.1c-2.1-1.7-5.5-3.6-7-5.9c-0.7-1-0.6-0.2-0.3-2c0.2-1.3,0.1-2.9,0.1-4.2c-0.1-5.6-1.8-12.2,0.6-17.6
				c-3.7-1-7.5-2-11.2-3c-0.3,5.3-0.5,10.6-0.8,16c-0.4,7,9.8,7.8,11.8,1.6c2.9-8.8,1.9-17.9-2.4-26.1c-2.3,2.9-4.5,5.9-6.8,8.8
				c6.8,1.9,13.4,0.7,20.1,1.5c1.7,0.2,2.7-0.5,4.3-0.9c1.3-0.3,2.7,0,4.1,0.2c3.5,0.5,6.4,0.7,9.8,0c6.2-1.3,5.2-9.8,0-11.6
				c-4.4-1.5-9.1-0.9-12.9,1.8c2.7,2.7,5.5,5.5,8.2,8.2c0.2-0.3,0.4-0.6,0.6-0.8c-1.2,0.9-2.4,1.8-3.6,2.8c-0.3-0.1-0.7-0.2-1-0.3
				c0.7,0.4,1.4,0.8,2.2,1.1c1,0.4,2,0.7,3.1,0.9c2.7,0.5,5.4,0,7.9-1.1c0.7-0.3,1.7-0.7,1.8-0.7c-0.1,0,2.6,1,3.2,1.1
				c2.8,0.5,5.5,0.6,8.3,0.3c-1-3.7-2-7.5-3-11.2c-0.3,0.2-0.6,0.3-0.9,0.5c1.5-0.2,3.1-0.4,4.6-0.6c-0.3-0.1-0.7-0.2-1-0.3
				c-1.1,3.9-2.1,7.7-3.2,11.6c5.2,0.9,10.2,0.8,15.3-0.7c4.6-1.4,5.6-6.6,2.6-10c-4.1-4.9-8.6-2-13.2-0.4c1.9,3.3,3.9,6.7,5.8,10
				c-0.6,0.1-1.2,0.2-1.7,0.3c0.7,0.3,1.5,0.5,2.2,0.7c1.2,0.3,2.6,0.7,3.9,0.6c2.7-0.1,5.1-1.4,7.2-3c-2.9-1.2-5.9-2.4-8.8-3.6
				c0.2,0.8,0.4,1.5,0.6,2.3c1.2,4.7,6.7,5.4,10,2.6c1.2-1,2.2-2.3,2.9-3.7C292.5,301.3,282.1,295.2,278.9,302.3L278.9,302.3z"/>
		</g>
	</g>
	<g>
		<g>
			<path class="st1" d="M296.1,338.4c0-2.1-0.3-3.9-1-5.8c-2.2-5.4-9.5-5.9-11.6,0c-4.7,13.3-5.5,28.8-0.9,42.2
				c2,5.8,7.1,13.2,14.4,11.2c6.6-1.8,7.5-9.8,6.8-15.5c-0.8-6.3-3.7-13.3-9.4-16.7c-5.7-3.5-12.6-2.1-16.9,2.9
				c-9.3,10.9-1.2,28.6,6.6,37.9c4.6,5.4,12.4-1.5,9.4-7.3c-3.2-6.2-6.9-12.6-13.3-16.1c-3-1.6-6.3-2.6-9.8-2.5
				c-3.8,0.1-6.8,1.8-10-1.3c-2.4,3.1-4.8,6.3-7.3,9.4c0.8,0.5,1.6,1,2.5,1.5c1.5-3.7,3.1-7.3,4.6-11c-1.8-0.7-3.5-1.4-5.3-2
				c-6.4-2.5-10.6,7.8-4.6,11c6.3,3.3,11.6,7.5,16.4,12.7c4.6,5,12.9-1.4,9.4-7.3c-3.2-5.3-7.9-8.8-13-12.1
				c-4.5-2.9-10.2,1.9-8.8,6.8c1.7,6.3,7.1,8.9,12.1,12.3c6,4.1,11.6,8.6,17.4,13s11.6,8.8,17.5,13.1c2.7,2,5.4,3.7,8.4,5.2
				c2.1,1,4.7,1.7,5.8,3.8c3.1-2.4,6.3-4.8,9.4-7.3c-1.8-1.6-3.7-3.2-5.5-4.8c-5.8-5-14.2,3.3-8.5,8.5c4.7,4.3,9.6,8.3,14.7,12.1
				c2.3,1.7,4.7,3.4,7.2,5c2.6,1.7,6.4,3.3,8.4,5.8c2.7-2.7,5.5-5.5,8.2-8.2c-0.8-0.5-1.7-0.9-2.5-1.4c-1,3.7-2,7.5-3,11.2
				c4.9,0,11.5,1.2,16.1-0.9s5.7-7.1,3.8-11.6c-1.9-4.6-5.6-7.9-8.7-11.7c-3.3-4.1-5.6-8.9-8.2-13.4c-5.6-9.7-11.5-19.2-18.2-28.1
				c-3.2-4.3-6.6-8.4-10-12.5c-1.7-2-3.3-3.8-3.7-6.4c-0.2-1-0.1-2.1,0-3.1c0.1-1.7,1.2-3.9-0.5-2c-1.4,0.6-2.8,1.2-4.2,1.8
				c0.3,0,0.7,0.1,1,0.1c-1.4-0.6-2.8-1.2-4.2-1.8c3.9,3.6,7.2,8.4,10.6,12.6c3.2,3.9,6,8,8,12.6c1.7,3.9,3.2,7.8,5.8,11.1
				c2.2,2.7,7.5,5,8.7,8.1c3.3-1.9,6.7-3.9,10-5.8c-1.6-1.8-3.4-3.2-5.6-4.2c-3.8-1.7-9.3,0.2-9,5.2c0.4,6.2,2,11.9,5.3,17.3
				c3.7,6.2,12,1.8,11-4.6c-1.8-11.7-10.6-20.1-15.5-30.5c-3.1,2.4-6.3,4.8-9.4,7.3c3.8,4.4,7.1,9,10.1,13.9
				c4,6.8,13.5,0.8,10.4-6.1c-1.2-2.6-2.9-4.9-5-6.9c-2.9-2.6-7.4-2.2-9.4,1.2c-3.5,5.9,1.7,11.9,4.9,16.7
				c3.9,5.9,8.3,11.6,12.9,17.1c4,4.8,11.5-0.4,10-5.8c-2.4-8.6-6.6-16.1-12.6-22.7c-4-4.4-11.9,0.2-10,5.8
				c3.8,11.1,12.6,18.2,18.7,27.9c1.5,2.4,2.8,4.9,3.4,7.7c0.5,2.3,0.1,4.7,0.7,7c0.6,2.2,2.2,4,4.3,4.9c1,0.4,2.2,0.6,3.3,0.6
				c0.4,0,0.7-0.1,1.1-0.1c1.5-0.1,1.5-0.1-0.2-0.3c3.5,2.5,9.5-0.8,9-5.2c-0.3-3.1-1.1-5.3-3.3-7.5c-3.9-4-12.4,0.1-10,5.8
				c1.5,3.6,3.2,6.4,6,9.1c2.4-3.1,4.8-6.3,7.3-9.4c-0.8-0.4-1.6-0.9-2.5-1.3c-1.5,3.7-3.1,7.3-4.6,11c2.8,0.6,5.2,0.4,7.7-1.1
				c4.8-2.8,3.2-11.8-3-11.2c-2.6,0.3-4.8,1-7.2,1.7c-2.5,0.7-4.2,0.2-6.7-0.6c-4.3-1.4-8.5-2.5-13-1.1c1.9,0.5,3.9,1,5.8,1.5
				c-9.4-10.7-19.4-21-29.9-30.6c-5.1-4.7-10.4-9.3-15.8-13.8c-4.4-3.7-11.4-7.3-13.7-12.7c-3.1,2.4-6.3,4.8-9.4,7.3
				c18.6,16.8,38.9,31.5,59.2,46.2c5.5,3.9,12.6-5.2,7.3-9.4c-13.3-10.5-24.2-23.4-34.1-37.1c-10-13.8-21.1-28-27.5-43.9
				c-3.3,1.9-6.7,3.9-10,5.8c13,16.1,28.3,32.2,37.4,50.9c3.1-2.4,6.3-4.8,9.4-7.3c-7.5-6.8-12-16.8-16.3-25.7
				c-4.7-9.8-8.6-19.9-11.8-30.2c-2.3-7.5-13-4.3-11.6,3.2c4.5,23.8,16.9,45,30.4,64.8c4.3,6.3,14.2,0.7,10.4-6.1
				c-4.2-7.3-9-14.2-14.4-20.7c-3.9-4.7-11.3-15.6-18.7-13.6c-8.7,2.4-4.3,12.7-1.5,17.8c3.8,6.9,9.2,12.4,15.5,17
				c6.3,4.5,12.3-5.9,6.1-10.4c-3.1-2.3-6-5-8.3-8.1c-1.1-1.5-2.1-3-2.9-4.6c-0.5-0.9-1-1.8-1.4-2.8c-0.6-2.3-1.1-1.9-1.6,1.1
				c-1.4,0.6-2.8,1.2-4.2,1.8c-1.8-0.2,1.7,2.7,1.7,2.7c1,1,2,2,2.9,3.1c2.1,2.3,4.1,4.6,6.1,7.1c3.9,4.9,7.3,10.2,10.4,15.7
				c3.5-2,6.9-4,10.4-6.1c-13-19-24.8-39.1-29.2-62c-3.9,1.1-7.7,2.1-11.6,3.2c3.5,11.3,7.8,22.4,13,33.1
				c4.8,9.9,9.9,20.7,18.2,28.2c5.1,4.7,12.4-1.1,9.4-7.3c-4.7-9.7-11.3-18.1-17.9-26.5c-7.1-9-14.2-17.9-21.4-26.8
				c-3.7-4.6-12.2,0.4-10,5.8c6.8,17,18,32,28.7,46.7c10.5,14.5,21.9,28.4,36,39.5c2.4-3.1,4.8-6.3,7.3-9.4
				c-19.5-14.1-39-28.2-56.8-44.3c-5.3-4.8-12,1.2-9.4,7.3c2.4,5.7,8.2,9.1,12.8,12.8c5.9,4.8,11.6,9.8,17.2,14.9
				c11,10,21.4,20.7,31.2,31.9c1.4,1.5,3.9,2.1,5.8,1.5c3.4-1.1,7.3,1.5,10.6,2.2c1.9,0.4,3.8,0.5,5.8,0.3c2.5-0.3,4.8-1.7,7.3-2
				c-1-3.7-2-7.5-3-11.2c0.5,0,1-0.1,1.6-0.1c-6.4-1.3-10.9,7.6-4.6,11c0.8,0.4,1.6,0.9,2.5,1.3c5.8,3.1,12.4-4.6,7.3-9.4
				c-1.2-1.1-2.3-2.3-2.9-3.8c-3.3,1.9-6.7,3.9-10,5.8c-0.1-0.3-0.1-0.6-0.2-1c3-1.7,6-3.5,9-5.2c-0.9-0.7-4.3-2.4-5.3-1.4
				c-1.3,0-1,0.6,0.9,1.9c1.2,2.2,1.7,2.6,1.5,1c0.4-1.1-0.2-2.9-0.4-4.1c-0.8-4.9-2.9-9.5-5.6-13.7c-5.4-8.2-13.8-14.8-17-24.3
				c-3.3,1.9-6.7,3.9-10,5.8c4.6,5.1,7.7,10.8,9.5,17.4c3.3-1.9,6.7-3.9,10-5.8c-3.2-3.8-6.2-7.7-9-11.7c-1.4-2-2.7-4-4-6
				c-0.6-1-1.3-2-1.9-3.1c-1.1-2.5-1.5-2-1,1.5c-3.1,0.4-6.3,0.8-9.4,1.2c1.5,1.3,2.3,2.6,3.2,4.4c3.5-2,6.9-4,10.4-6.1
				c-3.5-5.8-7.5-11.3-11.9-16.4c-4.8-5.5-12.1,1.5-9.4,7.3c4.4,9.4,12.6,17.1,14.3,27.7c3.7-1.5,7.3-3.1,11-4.6
				c-2.1-3.5-3.4-7.1-3.7-11.2c-3,1.7-6,3.5-9,5.2c1.4,0.6,2.1,1.1,3.2,2.3c3.8,4.3,12.2-0.2,10-5.8c-2.7-6.8-9.5-9.1-12.8-15.3
				c-1.6-3-2.7-6.4-4.2-9.5c-2-4-4.8-7.6-7.6-11.1c-2.7-3.4-5.6-6.8-8.3-10.1c-2.3-2.8-4.6-5.9-8.6-5.7c-8.1,0.4-8.1,12.7-6.9,18.5
				c1.7,8.2,9,14.1,13.9,20.4c5.1,6.7,9.8,13.8,14.2,21c4.4,7.3,8.1,15.2,13.2,22c1.8,2.4,4.5,6.6,6.9,8.3c1,2.5,2.2,1.8,3.5-2.2
				c-1.3,0-2.5,0-3.8,0c-2.5,0-5,0-7.5,0c-5.8,0-8.3,8.3-3,11.2c0.8,0.5,1.7,0.9,2.5,1.4c4.8,2.6,12.1-3.1,8.2-8.2
				c-4.1-5.4-10.1-8.3-15.6-12.1c-5.8-4-11.3-8.5-16.6-13.3c-2.8,2.8-5.7,5.7-8.5,8.5c1.8,1.6,3.7,3.2,5.5,4.8
				c5.1,4.5,12.6-1.1,9.4-7.3c-2.4-4.7-6.8-6.5-11.3-8.7c-6.2-3.1-11.6-7.9-17.1-12c-5.6-4.2-11.3-8.5-16.9-12.7
				c-2.7-2-5.4-4.1-8.2-6.1c-1.8-1.2-6-2.9-6.6-5.1c-2.9,2.3-5.9,4.5-8.8,6.8c3.4,2.2,6.6,4.3,8.7,7.8c3.1-2.4,6.3-4.8,9.4-7.3
				c-5.4-5.9-11.8-10.8-18.9-14.6c-1.5,3.7-3.1,7.3-4.6,11c1.8,0.7,3.5,1.4,5.3,2c6.5,2.5,10.3-7.6,4.6-11c-0.8-0.5-1.6-1-2.5-1.5
				c-5.8-3.5-12.3,4.7-7.3,9.4c5.3,5.1,10.7,5.5,17.6,4.9c7.3-0.6,10.7,7,13.6,12.5c3.1-2.4,6.3-4.8,9.4-7.3
				c-4-4.7-7.5-11.9-6.9-18.3c0.4-4,2.5-4.7,4.6-1.2c0.8,1.4,1.4,3.2,1.7,4.8c0,0.1,0.1,4.8,0,4.7c1.2-0.6,2.5-1.1,3.7-1.7
				c-0.6-0.8-1.1-1.7-1.4-2.7c-0.6-1.5-1-3.2-1.3-4.8c-0.8-3.4-1.2-6.9-1.3-10.5c-0.2-7.1,1.1-13.9,3.5-20.6c-3.9,0-7.7,0-11.6,0
				c0.5,0.8,0.7,1.7,0.6,2.6C284.1,346.1,296.1,346.1,296.1,338.4L296.1,338.4z"/>
		</g>
	</g>
	<g>
		<g>
			<path class="st1" d="M204.6,313.1c-0.1,0.2-0.1,0.3-0.2,0.5c1.4-1.4,2.8-2.8,4.2-4.2c2,0.3,2.3,0.2,0.8-0.3
				c-0.9-0.4-1.8-0.7-2.7-1.1c-1.8-0.7-3.6-1.4-5.5-2.1c-6.8-2.7-9.6,7.3-4.6,11c4.2,3.1,8.7,5.7,13.5,7.7c1.5-3.7,3.1-7.3,4.6-11
				c-6.3-1-22.6-5.3-23.9,4.7c-0.6,4.2,2.8,6.6,5.8,8.7c4.1,2.9,8.5,5.3,13.1,7.4c7.1,3.3,12.1-5.7,6.1-10.4
				c-5.1-3.9-11-6.6-17.3-7.9c-4.2-0.9-8.9,2.7-7.4,7.4c2.9,8.9,14.1,13.7,22.1,17c2.7,1.2,6-1,7.1-3.5c1.3-3,0-5.6-2.5-7.5
				c-4.2-3.2-8.9-5.3-14.1-6.3c-5.1-1-9.4,4-6.8,8.8c2.7,5,7.2,7.7,12.2,10c1.5-3.7,3.1-7.3,4.6-11c-3.8-0.9-7.4,0.7-8.7,4.5
				c-1.3,4,1.1,7.4,4.4,9.3c5.7,3.3,12.8-5.1,7.3-9.4c-16-12.5-32.4-24.2-49.2-35.6c-1.5,3.7-3.1,7.3-4.6,11c14.9,2.3,31,3.9,46,2.1
				c6.3-0.8,8.7-9.9,1.6-11.8c-4.5-1.2-8.8-1-13.4-0.4c-3.6,0.5-9,0.3-11.7,3c-6.2,6.2,3.8,14.9,8.8,17.8c5.6,3.2,10.6-3,8.2-8.2
				c-2.4-5.2-7.3-7.9-12.9-8.1c-3-0.1-6.4,2.8-6,6c0.7,5.5,3.6,9.9,9.3,11.1c7.5,1.5,10.8-10.1,3.2-11.6c-0.2,0.2-0.3,0.3-0.5,0.5
				c-2,2-4,4-6,6c1.6,0.1,1.9,0.8,2.5,2.2c2.7-2.7,5.5-5.5,8.2-8.2c-1.1-0.6-2.1-1.3-3.1-2.2c-1.7-1.6-1-2.6-1.8,0.6
				c-1.4,1.4-2.8,2.8-4.2,4.2c4.4-1.7,11.6-2.3,16.1-1.1c0.5-3.9,1.1-7.9,1.6-11.8c-13.9,1.7-29,0.5-42.8-1.7c-6.6-1-10.5,7-4.6,11
				c15.9,10.8,31.6,21.9,46.7,33.7c2.4-3.1,4.8-6.3,7.3-9.4c0.1,0.2,0.2,0.3,0.3,0.5c0.2,1.5,0.4,3.1,0.6,4.6
				c-0.2,0.4-0.5,0.9-0.7,1.3c-1.9,0.5-3.9,1-5.8,1.5c0.2,0.1,0.5,0.1,0.7,0.2c6.3,1.5,11.1-8.1,4.6-11c-3-1.4-6.3-2.6-7.9-5.7
				c-2.3,2.9-4.5,5.9-6.8,8.8c4.3,0.8,7.7,2.4,11.2,5.1c1.5-3.7,3.1-7.3,4.6-11c-2.6-1.1-5.1-2.4-7.5-3.9c-1.7-1.1-5.5-2.7-6.2-4.8
				c-2.5,2.5-4.9,4.9-7.4,7.4c5.4,1.1,10.1,3.3,14.5,6.7c2-3.5,4-6.9,6.1-10.4c-2.7-1.2-5.3-2.5-7.9-4c-1-0.6-2-1.2-3-1.9
				c-1.3-0.9-3.4-3.3-2.4-0.6c-0.2,1.5-0.4,3.1-0.6,4.6c0.2-0.2,0.4-0.5,0.5-0.7c-1.2,0.9-2.4,1.8-3.6,2.8c3.8-1,8.9,0.3,12.7,1
				c6.1,1,11.4-8.1,4.6-11c-4.8-2.1-9.3-4.6-13.5-7.7c-1.5,3.7-3.1,7.3-4.6,11c5.6,2.2,15.4,7.7,18.1-1.2
				C218.5,308.9,206.9,305.7,204.6,313.1L204.6,313.1z"/>
		</g>
	</g>
	<g>
		<g>
			<path class="st1" d="M154.4,303.2c0,0.1,0,0.3,0,0.4c0,0.6,0.1,1.2,0.4,1.7c0.2,0.6,0.5,1,0.9,1.4s0.9,0.7,1.4,0.9
				c0.5,0.3,1.1,0.4,1.7,0.4c0.4-0.1,0.8-0.1,1.2-0.2c0.8-0.2,1.4-0.6,2-1.2c0.2-0.3,0.5-0.6,0.7-0.9c0.4-0.7,0.6-1.5,0.6-2.3
				c0-0.1,0-0.3,0-0.4c0-0.6-0.1-1.2-0.4-1.7c-0.2-0.6-0.5-1-0.9-1.4s-0.9-0.7-1.4-0.9c-0.5-0.3-1.1-0.4-1.7-0.4
				c-0.4,0.1-0.8,0.1-1.2,0.2c-0.8,0.2-1.4,0.6-2,1.2c-0.2,0.3-0.5,0.6-0.7,0.9C154.6,301.6,154.4,302.4,154.4,303.2L154.4,303.2z"
				/>
		</g>
	</g>
	<g>
		<g>
			<path class="st1" d="M369.8,434.9c1.8-1.1,2.6-2.3,3.4-4.2c-1.7,0.4-3.3,0.9-5,1.3c2.7,2.6,4,5.5,4.1,9.3c1.5-0.9,3-1.7,4.5-2.6
				c-1.8-1.2-3.1-2.5-3.9-4.6c-1.8,0.8-3.7,1.5-5.5,2.3c5.2,7.6,10.4,15.2,15.6,22.8c1.8,2.6,6.7,1.1,5.5-2.3
				c-2.4-6.6-6.2-12.1-10.3-17.7c-2.3-3.1-7.5-0.1-5.2,3c6.5,8.9,12.3,18.2,17.3,27.9c1.7-1,3.5-2,5.2-3c-6.3-9-12.1-18.2-17.4-27.7
				c-1.4,1.4-2.7,2.7-4.1,4.1c3.7,2.3,6.2,7.7,8.5,11.2c2.6,4,5,8,7.4,12.1c1.7-1,3.5-2,5.2-3c-4.7-7.3-9.4-14.6-14.2-21.8
				c-2.1-3.2-7-0.4-5.2,3c4.4,8,9.2,15.8,14.5,23.2c2.3,3.2,4.6,6.3,7,9.4c2.1,2.7,3.9,6,7.6,5.9c1.7-0.1,2.9-1.3,3-3
				c0.3-4.1-3.3-7.6-5.6-10.7c-3-4-6.2-7.8-9.4-11.6c-1.8-2.1-5-0.3-5.1,2.1c0,1-0.3,2-0.7,2.9c-0.4,1,0.1,2.1,0.8,2.9
				c7.1,8.2,10.4,19.1,19.1,26c2.6,2,6.4-0.4,4.7-3.6c-2.7-4.9-5.6-9.4-10.5-12.3c-2.7-1.6-5.4,1.5-4.1,4.1
				c3.5,6.8,7.9,13,13.1,18.6c1.4-1.4,2.8-2.8,4.2-4.2c-3.3-3.5-6.1-7.3-8.5-11.5c-1.6,1.2-3.1,2.4-4.7,3.6
				c5.6,4.9,11.2,9.8,15.8,15.7c1.6-1.2,3.1-2.4,4.7-3.6c-2.3-2.2-4.6-4.4-6.9-6.6c-2.8-2.7-6.7,1.3-4.2,4.2c0.9,1.1,1.3,1.4,2.5,2
				c2.9,1.5,6.4-2.5,3.6-4.7c-8.7-7-17.3-14.1-26-21.1c-2.5-2-6.5,0.5-4.7,3.6c3.5,6,10.2,10.3,15.3,14.8c1.2-1.6,2.4-3.1,3.6-4.7
				c-6.9-3.6-11.2-8.8-16.8-14c-2.5-2.3-5.4-3.8-8.3-5.5c-3.6-2-6.1-4.9-8.9-7.7c-4.9-5-11.2-8.2-16.5-12.7
				c-5.5-4.7-11.3-9-17.4-12.8c-2.6-1.6-5.6,1.6-4.1,4.1c3.7,6.4,11.5,9.5,17.5,13.2c8,4.9,15.8,10.2,23.4,15.7
				c2.7,2,6.2-2.5,3.6-4.7c-8.7-7.6-17.5-15.1-26.2-22.7c-2.9-2.5-7,1.5-4.2,4.2c9.1,9.1,19,17.3,29.6,24.5c1-1.7,2-3.5,3-5.2
				c-7.7-5.2-15.3-10.4-23-15.6c-2.8-1.9-6.1,2.4-3.6,4.7c4.7,4.4,9.4,8.7,14.3,12.7c2.9,2.4,7-1.5,4.2-4.2
				c-7-7-14.5-13.4-22.4-19.4c-2.4-1.8-5.7,1.7-4.1,4.1c11.7,17.8,32.7,23.8,49.4,35.5c2.8,2,6-2.4,3.6-4.7
				c-6.9-6.9-13.9-13.8-20.8-20.7c-6-6-11.8-12.6-18.7-17.7c-2.1-1.5-5.3,1-4.4,3.4c2,5.4,6.2,9.2,10.4,13
				c5.2,4.8,10.8,9.2,16.3,13.7c2.9,2.4,7.2-1.6,4.2-4.2c-7.7-6.9-15.3-15.4-24.2-20.7c-3-1.7-5.9,2.2-3.6,4.7
				c9.4,10,19.6,19.1,30.5,27.4c2.8,2.1,6-2.4,3.6-4.7c-8.3-8.2-15.7-17.2-22.2-26.9c-1.6,1.2-3.1,2.4-4.7,3.6
				c6.8,8.2,14.5,15.4,23,21.8c2.3,1.8,5.9-1.8,4.1-4.1c-5.2-7-10.6-13.8-16.2-20.5c-2.2-2.6-6.5,0.8-4.7,3.6
				c4.8,7.7,10.6,14.5,17.4,20.4c2.6,2.2,6.3-0.5,4.7-3.6c-2.3-4.6-5.2-8.8-8.4-12.8c-2.5-3-6.6,1.3-4.2,4.2
				c4.7,5.8,9.1,11.7,13.3,17.9c1.6-1.2,3.1-2.4,4.7-3.6c-4.4-3.9-8.5-8.1-12.3-12.7c-1.4,1.4-2.8,2.8-4.2,4.2
				c3.3,4,6.4,8.1,9.2,12.4c1.7-1,3.5-2,5.2-3c-1.8-2.3-3.6-4.7-5.4-7c-2.3-3-7.5,0-5.2,3c1.8,2.3,3.6,4.7,5.4,7
				c2.3,3,7.4,0.3,5.2-3c-3.1-4.7-6.5-9.3-10.2-13.7c-2.5-3-6.7,1.3-4.2,4.2c3.8,4.6,7.9,8.8,12.3,12.7c2.4,2.1,6.7-0.7,4.7-3.6
				c-4.5-6.6-9.2-12.9-14.2-19.1c-1.4,1.4-2.8,2.8-4.2,4.2c3,3.6,5.4,7.5,7.5,11.6c1.6-1.2,3.1-2.4,4.7-3.6
				c-6.5-5.6-12-11.9-16.5-19.2c-1.6,1.2-3.1,2.4-4.7,3.6c5.2,6.3,10.3,12.8,15.2,19.3c1.4-1.4,2.7-2.7,4.1-4.1
				c-8.1-6.1-15.3-13.1-21.8-20.9c-2.2-2.6-6.6,0.8-4.7,3.6c6.8,10.1,14.5,19.5,23.1,28.1c1.2-1.6,2.4-3.1,3.6-4.7
				c-10.5-8-20.3-16.9-29.3-26.5c-1.2,1.6-2.4,3.1-3.6,4.7c8.5,5,15.7,13.2,23,19.8c1.4-1.4,2.8-2.8,4.2-4.2
				c-4.6-3.7-9.2-7.3-13.6-11.2c-4-3.5-9.6-7.7-11.6-12.8c-1.5,1.1-2.9,2.3-4.4,3.4c6.9,5.1,12.8,12.1,18.9,18.1
				c6.5,6.4,13,12.9,19.5,19.3c1.2-1.6,2.4-3.1,3.6-4.7C381.6,464.4,361,458.7,350,442c-1.4,1.4-2.7,2.7-4.1,4.1
				c7.5,5.6,14.5,11.8,21.1,18.4c1.4-1.4,2.8-2.8,4.2-4.2c-5-4-9.7-8.4-14.3-12.7c-1.2,1.6-2.4,3.1-3.6,4.7
				c7.7,5.2,15.3,10.4,23,15.6c3.2,2.2,6.2-3,3-5.2c-10.2-6.9-19.7-14.8-28.4-23.5c-1.4,1.4-2.8,2.8-4.2,4.2
				c8.7,7.6,17.5,15.1,26.2,22.7c1.2-1.6,2.4-3.1,3.6-4.7c-6.6-4.8-13.3-9.4-20.2-13.7c-5.7-3.6-15.1-7-18.6-13.1
				c-1.4,1.4-2.7,2.7-4.1,4.1c6.7,4.2,12.7,9,18.7,14c5.4,4.6,11.3,7.9,16.4,13c5.1,5.3,12.1,7.7,17.1,13c4.8,5.1,9.6,9.5,15.9,12.8
				c2.9,1.5,6.3-2.4,3.6-4.7c-4.6-4.1-11.2-8.2-14.4-13.6c-1.6,1.2-3.1,2.4-4.7,3.6c8.7,7,17.3,14.1,26,21.1
				c1.2-1.6,2.4-3.1,3.6-4.7c-0.4-0.4-0.9-0.7-1.3-1.1c-1.4,1.4-2.8,2.8-4.2,4.2c2.3,2.2,4.6,4.4,6.9,6.6s6.9-0.8,4.7-3.6
				c-4.9-6.4-10.7-11.7-16.7-16.9c-2.5-2.2-6.5,0.6-4.7,3.6c2.6,4.6,5.8,8.8,9.4,12.7c2.7,2.8,6.9-1.4,4.2-4.2
				c-4.9-5.2-8.8-11-12.1-17.3c-1.4,1.4-2.7,2.7-4.1,4.1c4,2.3,6.2,6.2,8.3,10.1c1.6-1.2,3.1-2.4,4.7-3.6
				c-8.6-6.8-12.1-17.8-19.1-26c0.3,1,0.5,1.9,0.8,2.9c0.6-1.5,0.8-2.9,0.9-4.5c-1.7,0.7-3.4,1.4-5.1,2.1c2.3,2.7,4.6,5.4,6.8,8.2
				c1.6,2,6.7,7,6.5,9.9c1-1,2-2,3-3c-1,0-5.3-6.7-6.2-7.9c-2.2-2.9-4.3-5.9-6.4-8.9c-4.1-6.1-7.9-12.3-11.4-18.7
				c-1.7,1-3.5,2-5.2,3c4.7,7.3,9.4,14.6,14.2,21.8c2.1,3.2,7.1,0.3,5.2-3c-3-5.2-6.2-10.3-9.5-15.3c-2.5-3.7-4.8-7.9-8.6-10.2
				c-2.6-1.6-5.5,1.5-4.1,4.1c5.3,9.5,11.1,18.8,17.4,27.7c2.2,3.1,7,0.4,5.2-3c-5.1-9.8-10.8-19.1-17.3-27.9c-1.7,1-3.5,2-5.2,3
				c3.8,5.1,7.5,10.2,9.7,16.3c1.8-0.8,3.7-1.5,5.5-2.3c-5.2-7.6-10.4-15.2-15.6-22.8c-1.8-2.6-6.8-1-5.5,2.3
				c1.4,3.5,3.4,6.1,6.6,8.1c1.9,1.2,4.5-0.4,4.5-2.6c-0.1-5.3-2-9.8-5.8-13.5c-1.8-1.7-4.2-0.7-5,1.3c-0.2,0.2-0.4,0.4-0.7,0.7
				C363.6,431.8,366.6,437,369.8,434.9L369.8,434.9z"/>
		</g>
	</g>
	<g>
		<g>
			<path class="st1" d="M154.3,299c-0.1,0-0.2,0-0.2,0c0.3,0,0.5,0.1,0.8,0.1c-0.2,0-0.3,0-0.4-0.1c-1.2-0.3-2.8,0.2-3.4,1.4
				c-0.2,0.5-0.4,1-0.4,1.5c0,0.8,0.4,1.5,0.9,2.1c0.6,0.8,1.5,1.3,2.5,1.6c0.7,0.2,1.4,0.3,2.1,0.1c1.7-0.5,2.5-2.2,2.1-3.8
				c-0.2-0.7-0.7-1.4-1.4-1.8c-0.6-0.4-1.6-0.5-2.3-0.3c-1.6,0.5-2.5,2.1-2.1,3.7c0,0,0,0,0,0.1c0.1-0.8,0.2-1.5,0.3-2.3
				c0,0,0,0,0,0.1c0.6-0.5,1.2-0.9,1.8-1.4h-0.1c0.3,0,0.5-0.1,0.8-0.1h-0.1c0.3,0,0.5,0.1,0.8,0.1c-0.2,0-0.3-0.1-0.5-0.2
				c0.2,0.1,0.5,0.2,0.7,0.3c-0.2-0.1-0.4-0.2-0.5-0.3c0.2,0.2,0.4,0.3,0.6,0.5c-0.2-0.1-0.3-0.3-0.4-0.4c-1,1.7-1.9,3.3-2.9,5
				c0.5,0.1,1,0.2,1.5,0.2c0.7,0.1,1.6-0.4,2.1-0.9s0.9-1.4,0.9-2.1c0-0.8-0.3-1.6-0.9-2.1C155.8,299.3,155.1,299,154.3,299
				L154.3,299z"/>
		</g>
	</g>
	<line class="st0" x1="427.5" y1="90.2" x2="288" y2="300.1"/>
	<line class="st2" x1="148.4" y1="300.1" x2="427.5" y2="510"/>
	<line class="st2" x1="427.5" y1="300.1" x2="148.4" y2="300.1"/>
	<rect x="148.4" y="90.2" class="st2" width="279.2" height="419.8"/>
	<rect x="177.4" y="534.5" class="st3" width="265" height="38.6"/>
	<text transform="matrix(1 0 0 1 163.3001 563.3021)" class="st4 st5">MODERNO</text>
	<text transform="matrix(1 0 0 1 177.4303 569.3021)" class="st6 st4 st5">MODERNO</text>
	<line class="st7" x1="288" y1="300.1" x2="427.5" y2="510"/>
</g>
</svg>
