<?xml version="1.0" encoding="UTF-8"?><svg xmlns="http://www.w3.org/2000/svg" xmlns:xlink="http://www.w3.org/1999/xlink" viewBox="0 0 3081 1687"><defs><style>.ay{fill:#794519;}.b`{fill:#ffb0e7;}.ba{fill:#9cceff;}.bb{stroke-width:.97px;}.bb,.bc,.bd,.be,.bf,.bg,.bh,.bi,.bj,.bk,.bl,.bm,.bn{stroke-miterlimit:10;}.bb,.bc,.bd,.be,.bg,.bi,.bj,.bk,.bm{stroke:#000;}.bb,.bo,.bd,.bg,.bi,.bj,.bk{fill:#fff;}.bc{stroke-width:.76px;}.bc,.be,.bm,.bn{fill:none;}.bp{fill:#f7c23c;}.bq{fill:#a8f95a;}.br{fill:#a77619;}.bd{stroke-width:.95px;}.bs{fill:#ebb662;}.bt{fill:#ffc8ec;}.bf{fill:#5fdadd;stroke:#fff;stroke-width:1.31px;}.bg,.bm{stroke-width:.5px;}.bu{fill:url(#y);}.bv{fill:#fcab8b;}.bw{fill:#50d699;}.bx{fill:#89daf7;}.by{fill:#fbffd6;}.c`{fill:#58f4ad;}.ca{fill:url(#af);}.cb{fill:url(#aq);}.cc{fill:url(#ah);}.cd{fill:#8ed1e3;}.ce{fill:url(#v);}.cf{fill:url(#av);}.cg{fill:url(#a`);}.ch{fill:#c38f37;}.ci{fill:#96a027;}.cj{fill:url(#as);}.ck{fill:#ffe969;}.cl{fill:#b58026;}.cm{fill:url(#aw);}.cn{fill:#f6fc7e;}.co{fill:#fc9fca;}.cp{fill:#c5ff95;}.cq{fill:#99c71a;}.cr{fill:#ffb94a;}.cs{fill:url(#ae);}.bh{fill:#fc7777;stroke:#ff174e;}.bh,.ct,.bl{opacity:.67;}.cu{fill:#098122;}.cv{fill:#ffdbcb;}.cw{fill:#85611b;}.cx{fill:#4cf2a6;}.cy{fill:url(#ad);}.d`{fill:#f1db3f;}.da{fill:#88631b;}.db{fill:url(#i);}.dc{fill:#addbff;}.dd{fill:url(#ar);}.bi{stroke-width:1.08px;}.de{fill:url(#h);}.df{fill:#d79e41;}.dg{fill:#89f4c6;}.dh{fill:url(#x);}.di{fill:#f1bc66;}.dj{fill:url(#at);}.dk{fill:url(#aa);}.dl{fill:#096f25;}.dm{fill:#c4d227;}.dn{fill:#ea6eca;}.do{fill:#02590e;}.dp{fill:#ffd710;}.dq{fill:url(#ac);}.dr{fill:#f761d0;}.ds{fill:#b68126;}.dt{fill:url(#w);}.du{fill:#a2d2d4;}.dv{fill:#4cb6d3;}.dw{fill:#d0fffe;}.dx{fill:#7e5513;}.bk{stroke-width:.47px;}.bl{fill:#ffb07b;stroke:#ffa348;stroke-width:.63px;}.dy{fill:url(#ag);}.e`{fill:#85601b;}.ea{fill:#ffcee2;}.eb{fill:#016715;}.bn{stroke:#ff9803;stroke-width:.77px;}</style><linearGradient id="h" x1="1093.81" y1="1146.83" x2="1129.76" y2="1086.73" gradientTransform="matrix(1, 0, 0, 1, 0, 0)" gradientUnits="userSpaceOnUse"><stop offset=".08" stop-color="#668834"/><stop offset=".26" stop-color="#78950e"/><stop offset=".84" stop-color="#99c71a"/><stop offset="1" stop-color="#b9d64d"/></linearGradient><linearGradient id="i" x1="1022.29" y1="1148.48" x2="1072.05" y2="1105.17" gradientTransform="matrix(1, 0, 0, 1, 0, 0)" gradientUnits="userSpaceOnUse"><stop offset=".14" stop-color="#668834"/><stop offset=".41" stop-color="#78950e"/><stop offset=".84" stop-color="#99c71a"/><stop offset="1" stop-color="#b9d64d"/></linearGradient><radialGradient id="v" cx="1416.85" cy="1102.96" fx="1426.74" fy="1145.39" r="43.57" gradientTransform="translate(-207.71 63.11) scale(1.17 .9)" gradientUnits="userSpaceOnUse"><stop offset="0" stop-color="#b9d64d"/><stop offset=".04" stop-color="#99c71a"/><stop offset="1" stop-color="#5c7209"/></radialGradient><radialGradient id="w" cx="1383.79" cy="1102.61" fx="1393.24" fy="1111.87" r="13.57" gradientTransform="translate(-207.71 43.59) scale(1.17 .92)" gradientUnits="userSpaceOnUse"><stop offset=".03" stop-color="#b9d64d"/><stop offset=".11" stop-color="#99c71a"/><stop offset=".91" stop-color="#5c7209"/></radialGradient><radialGradient id="x" cx="1393.78" cy="1107.89" fx="1393.78" fy="1107.89" r="6.24" gradientTransform="translate(-207.71 -342.13) scale(1.17 1.27)" gradientUnits="userSpaceOnUse"><stop offset=".13" stop-color="#99c71a"/><stop offset=".79" stop-color="#5c7209"/></radialGradient><radialGradient id="y" cx="1342.66" cy="1130.74" fx="1342.66" fy="1130.74" r="9.13" gradientTransform="translate(-207.71 -342.13) scale(1.17 1.27)" gradientUnits="userSpaceOnUse"><stop offset=".26" stop-color="#99c71a"/><stop offset=".91" stop-color="#75910d"/></radialGradient><radialGradient id="a`" cx="1463.21" cy="1076.88" fx="1456.26" fy="1059" r="45.06" gradientTransform="translate(-207.71 -342.13) scale(1.17 1.27)" gradientUnits="userSpaceOnUse"><stop offset=".39" stop-color="#b9d64d"/><stop offset=".84" stop-color="#99c71a"/><stop offset=".98" stop-color="#5c7209"/></radialGradient><radialGradient id="aa" cx="1417.45" cy="1038.54" fx="1396.27" fy="1013.51" r="51.81" gradientTransform="translate(-703.13 -696.83) scale(1.47 1.62)" gradientUnits="userSpaceOnUse"><stop offset=".12" stop-color="#b9d64d"/><stop offset=".68" stop-color="#99c71a"/><stop offset=".9" stop-color="#5c7209"/></radialGradient><radialGradient id="ac" cx="1413.22" cy="1198.42" fx="1402.5" fy="1175.61" r="27.72" gradientTransform="translate(596.78 465.42) scale(.67)" gradientUnits="userSpaceOnUse"><stop offset=".13" stop-color="#b9d64d"/><stop offset=".59" stop-color="#99c71a"/><stop offset=".98" stop-color="#75910d"/></radialGradient><radialGradient id="ad" cx="1391.13" cy="1214.88" fx="1391.13" fy="1222.9" r="9.7" gradientTransform="translate(596.78 465.42) scale(.67)" gradientUnits="userSpaceOnUse"><stop offset=".56" stop-color="#99c71a"/><stop offset=".98" stop-color="#75910d"/></radialGradient><radialGradient id="ae" cx="1399.14" cy="1219.33" fx="1399.14" fy="1219.33" r="4.8" gradientTransform="translate(596.78 465.42) scale(.67)" gradientUnits="userSpaceOnUse"><stop offset="0" stop-color="#b9d64d"/><stop offset=".17" stop-color="#99c71a"/><stop offset=".98" stop-color="#75910d"/></radialGradient><radialGradient id="af" cx="1358.08" cy="1238.47" fx="1358.08" fy="1238.47" r="5.17" gradientTransform="translate(-728.96 2154.5) rotate(-88.76) scale(.67 1.79) skewX(.01)" gradientUnits="userSpaceOnUse"><stop offset=".34" stop-color="#b9d64d"/><stop offset=".61" stop-color="#99c71a"/><stop offset=".83" stop-color="#75910d"/></radialGradient><radialGradient id="ag" cx="1371.58" cy="1177.06" fx="1359.2" fy="1134.74" r="48.44" gradientTransform="translate(596.78 546.1) scale(.67 .6)" gradientUnits="userSpaceOnUse"><stop offset=".3" stop-color="#b9d64d"/><stop offset=".78" stop-color="#99c71a"/><stop offset=".94" stop-color="#5c7209"/></radialGradient><linearGradient id="ah" x1="1548.28" y1="1319.85" x2="1568.26" y2="1302.46" xlink:href="#i"/><radialGradient id="aq" cx="1511.28" cy="1201.32" fx="1492.45" fy="1193.77" r="30.66" gradientTransform="translate(-176.96 2564.13) rotate(-84.76) scale(1 1.3)" gradientUnits="userSpaceOnUse"><stop offset=".5" stop-color="#075119"/><stop offset=".91" stop-color="#096f25"/></radialGradient><radialGradient id="ar" cx="1486.81" cy="1209.04" fx="1446.62" fy="1169.33" r="59.46" gradientTransform="translate(64.14 382.05) rotate(4.79) scale(1 .58)" gradientUnits="userSpaceOnUse"><stop offset=".58" stop-color="#098122"/><stop offset=".77" stop-color="#002807"/></radialGradient><radialGradient id="as" cx="1518.34" cy="1209.73" fx="1500.04" fy="1209.73" r="18.89" gradientTransform="translate(2829.56 -169.99) rotate(96.45) scale(1 .95)" gradientUnits="userSpaceOnUse"><stop offset=".7" stop-color="#96a027"/><stop offset=".91" stop-color="#707516"/></radialGradient><radialGradient id="at" cx="1497.06" cy="1213.65" fx="1497.06" fy="1234.07" r="20.97" gradientTransform="matrix(1, 0, 0, 1, 0, 0)" gradientUnits="userSpaceOnUse"><stop offset=".58" stop-color="#098122"/><stop offset=".81" stop-color="#002807"/></radialGradient><radialGradient id="av" cx="973.17" cy="1141.14" fx="973.17" fy="1141.14" r="16.44" gradientTransform="translate(-35.02 38.48) rotate(-1.84)" gradientUnits="userSpaceOnUse"><stop offset=".79" stop-color="#fff"/><stop offset="1" stop-color="#000"/></radialGradient><radialGradient id="aw" cx="1001.44" cy="1140.97" fx="994.42" fy="1129.09" r="15.13" gradientTransform="translate(-33.58 59.25) rotate(-1.81) scale(1 .98)" gradientUnits="userSpaceOnUse"><stop offset=".77" stop-color="#fff"/><stop offset="1" stop-color="#000"/></radialGradient></defs><g id="a"><g id="b"><rect x="598.08" y="687" width="1325.93" height="1000" style="fill:#8ed1e3;"/></g><g id="c"><path d="M1271.11,836.83c0,7.36-11.71,13.47-27.05,14.63-1.72,.13-3.49,.2-5.3,.2h-216.67c-1.6,.13-3.26,.2-4.94,.2-15.8,0-28.62-5.9-28.62-13.18s12.82-13.19,28.62-13.19c4.03,0,7.86,.38,11.34,1.08-.4-1.17-.61-2.36-.61-3.57,0-13.25,24.77-23.99,55.34-23.99s55.34,10.74,55.34,23.99c0,.35-.02,.7-.06,1.05,5.38-6.1,18.37-10.4,33.54-10.4,19.98,0,36.18,7.46,36.18,16.67,0,.47-.04,.94-.13,1.4-.03,.19-.07,.38-.13,.57-.66,.95-1.12,1.94-1.36,2.96,.64-.95,1.1-1.94,1.36-2.96,.14-.19,.28-.38,.43-.57,4.54-5.67,16.42-9.72,30.37-9.72,17.87,0,32.35,6.64,32.35,14.83Z" style="fill:#fff;"/><g><path d="M1271.11,890.62c-2.83,.36-5.72,.54-8.66,.54-38.25,0-69.26-31.01-69.26-69.26s31.01-69.26,69.26-69.26c2.93,0,5.82,.18,8.66,.54v137.45Z" style="fill:#f1db3f;"/><path d="M1331.71,821.9c0,35.31-26.44,64.47-60.6,68.72-34.17-4.26-60.6-33.41-60.6-68.72s26.44-64.47,60.6-68.72c34.17,4.26,60.6,33.41,60.6,68.72Z" style="fill:#f1db3f;"/><path d="M1331.71,821.9c0,38.25-31.01,69.26-69.26,69.26-2.93,0-5.82-.18-8.66-.54,34.17-4.26,60.6-33.41,60.6-68.72s-26.44-64.47-60.6-68.72c2.83-.36,5.72-.54,8.66-.54,38.25,0,69.26,31.01,69.26,69.26Z" style="fill:#f7c23c;"/></g><path d="M1512.14,878.69c0,14.89-17.23,26.96-38.47,26.96-1.69,0-3.34-.08-4.97-.22h-126.89c-13.64,0-24.7-8.2-24.7-18.32s11.05-18.32,24.7-18.32c5.85,0,11.22,1.5,15.46,4.03-.28-1.59-.43-3.22-.43-4.87,0-20.81,22.76-37.69,50.83-37.69,21.91,0,40.59,10.29,47.72,24.71,5.44-2.06,11.67-3.23,18.28-3.23,21.24,0,38.47,12.07,38.47,26.95Z" style="fill:#fff;"/><path d="M1108.45,988.11c0,7.36-11.71,13.47-27.05,14.63-1.72,.13-3.49,.2-5.3,.2h-216.67c-1.6,.13-3.26,.2-4.94,.2-15.8,0-28.62-5.9-28.62-13.18s12.82-13.19,28.62-13.19c4.03,0,7.86,.38,11.34,1.08-.4-1.17-.61-2.36-.61-3.57,0-13.25,24.77-23.99,55.34-23.99s55.34,10.74,55.34,23.99c0,.35-.02,.7-.06,1.05,5.38-6.1,18.37-10.4,33.54-10.4,19.98,0,36.18,7.46,36.18,16.67,0,.47-.04,.94-.13,1.4-.03,.19-.07,.38-.13,.57-.66,.95-1.12,1.94-1.36,2.96,.64-.95,1.1-1.94,1.36-2.96,.14-.19,.28-.38,.43-.57,4.54-5.67,16.42-9.72,30.37-9.72,17.87,0,32.35,6.64,32.35,14.83Z" style="fill:#fff;"/><path d="M1671.86,767.44c0,9.34-10.81,16.91-24.13,16.91-1.06,0-2.09-.05-3.12-.14h-79.61c-8.56,0-15.49-5.14-15.49-11.49s6.94-11.49,15.49-11.49c3.67,0,7.04,.94,9.7,2.53-.18-1-.27-2.02-.27-3.06,0-13.06,14.28-23.65,31.89-23.65,13.75,0,25.46,6.46,29.94,15.5,3.41-1.29,7.32-2.03,11.47-2.03,13.33,0,24.13,7.57,24.13,16.91Z" style="fill:#fff;"/><path d="M1866.66,1032.21c0,9.9-7.25,18.12-16.76,19.67-1.07,.18-2.16,.27-3.28,.27h-134.26c-.99,.17-2.02,.26-3.06,.26-9.79,0-17.73-7.94-17.73-17.73s7.94-17.73,17.73-17.73c2.5,0,4.87,.52,7.03,1.45-.25-1.57-.38-3.17-.38-4.8,0-17.82,15.35-32.27,34.29-32.27s34.29,14.44,34.29,32.27c0,.47-.01,.95-.04,1.42,3.33-8.21,11.38-13.99,20.78-13.99,12.38,0,22.42,10.04,22.42,22.42,0,.64-.03,1.27-.08,1.89-.02,.26-.05,.52-.08,.77-.41,1.28-.7,2.61-.84,3.98,.4-1.28,.68-2.61,.84-3.98,.08-.26,.17-.52,.27-.77,2.81-7.63,10.17-13.07,18.82-13.07,11.07,0,20.04,8.93,20.04,19.94Z" style="fill:#fff;"/><path d="M1302.28,1189.51c0,7.36-11.71,13.47-27.05,14.63-1.72,.13-3.49,.2-5.3,.2h-216.67c-1.6,.13-3.26,.2-4.94,.2-15.8,0-28.62-5.9-28.62-13.18s12.82-13.19,28.62-13.19c4.03,0,7.86,.38,11.34,1.08-.4-1.17-.61-2.36-.61-3.57,0-13.25,24.77-23.99,55.34-23.99s55.34,10.74,55.34,23.99c0,.35-.02,.7-.06,1.05,5.38-6.1,18.37-10.4,33.54-10.4,19.98,0,36.18,7.46,36.18,16.67,0,.47-.04,.94-.13,1.4-.03,.19-.07,.38-.13,.57-.66,.95-1.12,1.94-1.36,2.96,.64-.95,1.1-1.94,1.36-2.96,.14-.19,.28-.38,.43-.57,4.54-5.67,16.42-9.72,30.37-9.72,17.87,0,32.35,6.64,32.35,14.83Z" style="fill:#fff;"/><path d="M1547.86,1174.87c0,14.89-17.23,26.96-38.47,26.96-1.69,0-3.34-.08-4.97-.22h-126.89c-13.64,0-24.7-8.2-24.7-18.32s11.05-18.32,24.7-18.32c5.85,0,11.22,1.5,15.46,4.03-.28-1.59-.43-3.22-.43-4.87,0-20.81,22.76-37.69,50.83-37.69,21.91,0,40.59,10.29,47.72,24.71,5.44-2.06,11.67-3.23,18.28-3.23,21.24,0,38.47,12.07,38.47,26.95Z" style="fill:#fff;"/><path d="M735.2,819.39c0,9.34-10.81,16.91-24.13,16.91-1.06,0-2.09-.05-3.12-.14h-79.61c-8.56,0-15.49-5.14-15.49-11.49s6.94-11.49,15.49-11.49c3.67,0,7.04,.94,9.7,2.53-.18-1-.27-2.02-.27-3.06,0-13.06,14.28-23.65,31.89-23.65,13.75,0,25.46,6.46,29.94,15.5,3.41-1.29,7.32-2.03,11.47-2.03,13.33,0,24.13,7.57,24.13,16.91Z" style="fill:#fff;"/><path d="M926.89,1546.75c0,7.36-11.71,13.47-27.05,14.63-1.72,.13-3.49,.2-5.3,.2h-216.67c-1.6,.13-3.26,.2-4.94,.2-15.8,0-28.62-5.9-28.62-13.18s12.82-13.19,28.62-13.19c4.03,0,7.86,.38,11.34,1.08-.4-1.17-.61-2.36-.61-3.57,0-13.25,24.77-23.99,55.34-23.99s55.34,10.74,55.34,23.99c0,.35-.02,.7-.06,1.05,5.38-6.1,18.37-10.4,33.54-10.4,19.98,0,36.18,7.46,36.18,16.67,0,.47-.04,.94-.13,1.4-.03,.19-.07,.38-.13,.57-.66,.95-1.12,1.94-1.36,2.96,.64-.95,1.1-1.94,1.36-2.96,.14-.19,.28-.38,.43-.57,4.54-5.67,16.42-9.72,30.37-9.72,17.87,0,32.35,6.64,32.35,14.83Z" style="fill:#fff;"/><path d="M1346.54,1613.22c0,14.89-17.23,26.96-38.47,26.96-1.69,0-3.34-.08-4.97-.22h-126.89c-13.64,0-24.7-8.2-24.7-18.32s11.05-18.32,24.7-18.32c5.85,0,11.22,1.5,15.46,4.03-.28-1.59-.43-3.22-.43-4.87,0-20.81,22.76-37.69,50.83-37.69,21.91,0,40.59,10.29,47.72,24.71,5.44-2.06,11.67-3.23,18.28-3.23,21.24,0,38.47,12.07,38.47,26.95Z" style="fill:#fff;"/><path d="M1903.84,1132.95c0,14.89-17.23,26.96-38.47,26.96-1.69,0-3.34-.08-4.97-.22h-126.89c-13.64,0-24.7-8.2-24.7-18.32s11.05-18.32,24.7-18.32c5.85,0,11.22,1.5,15.46,4.03-.28-1.59-.43-3.22-.43-4.87,0-20.81,22.76-37.69,50.83-37.69,21.91,0,40.59,10.29,47.72,24.71,5.44-2.06,11.67-3.23,18.28-3.23,21.24,0,38.47,12.07,38.47,26.95Z" style="fill:#fff;"/><path d="M956.27,901.8c0,7.36-11.71,13.47-27.05,14.63-1.72,.13-3.49,.2-5.3,.2h-216.67c-1.6,.13-3.26,.2-4.94,.2-15.8,0-28.62-5.9-28.62-13.18s12.82-13.19,28.62-13.19c4.03,0,7.86,.38,11.34,1.08-.4-1.17-.61-2.36-.61-3.57,0-13.25,24.77-23.99,55.34-23.99s55.34,10.74,55.34,23.99c0,.35-.02,.7-.06,1.05,5.38-6.1,18.37-10.4,33.54-10.4,19.98,0,36.18,7.46,36.18,16.67,0,.47-.04,.94-.13,1.4-.03,.19-.07,.38-.13,.57-.66,.95-1.12,1.94-1.36,2.96,.64-.95,1.1-1.94,1.36-2.96,.14-.19,.28-.38,.43-.57,4.54-5.67,16.42-9.72,30.37-9.72,17.87,0,32.35,6.64,32.35,14.83Z" style="fill:#fff;"/><path d="M1924.07,1621.01c0,7.48-11.89,13.69-27.48,14.86-1.75,.13-3.55,.2-5.38,.2h-220.14c-1.63,.13-3.31,.2-5.02,.2-16.06,0-29.08-6-29.08-13.4s13.02-13.4,29.08-13.4c4.1,0,7.99,.39,11.52,1.1-.41-1.18-.62-2.4-.62-3.63,0-13.46,25.17-24.38,56.22-24.38s56.22,10.91,56.22,24.38c0,.36-.02,.72-.06,1.07,5.46-6.2,18.66-10.57,34.07-10.57,20.3,0,36.76,7.58,36.76,16.94,0,.48-.04,.96-.13,1.42-.03,.2-.08,.39-.13,.58-.67,.97-1.14,1.97-1.38,3.01,.65-.97,1.12-1.97,1.38-3.01,.14-.2,.28-.39,.44-.58,4.61-5.76,16.68-9.87,30.86-9.87,18.15,0,32.86,6.74,32.86,15.07Z" style="fill:#fff;"/></g><g id="d"><path d="M1248.47,1548.95c-4.37,.22-8.91,.36-13.54,.39,0,0-51.25,.41-91.24-11.9-54.46-16.76-110.96-159.93-119.53-324.07-1.83-35.1-1.08-63.27-.44-78.59,11.29,16.36,21.13,18.26,25.56,18.46,8.36,.37,15.97-4.52,44.02-35.5,21.24-23.45,28.48-33.46,29.82-32.66,1.84,1.11-7.71,22.68-58.45,113.59-.07,.59-.29,1.54-.31,2.73-3.25,177.56,49.28,314.16,112.63,335.6,24.86,8.42,54.32,11.08,71.5,11.93Z" style="fill:#f1bc66;"/><path d="M1254.41,1545.73c-1.53,.49-4.19,1.27-7.85,2.21-17.19-.86-46.6-3.52-71.41-11.93-63.35-21.44-115.88-158.04-112.63-335.6,0-.93,.1-1.84,.31-2.73,7.34-16.3,13.97-29.32,18.7-38.24,11-20.77,13.29-22.39,22.72-41.18,10.61-21.15,9.65-22.96,17.04-34.08,7.18-10.8,10.07-12.08,19.88-26.98,8.25-12.54,8.64-15.34,11.36-15.62,6.49-.67,10.04,18.02,27.02,49.61,7.03,13.08,10.35,17.28,14.16,17.12,7.6-.32,15.31-17.85,19.88-28.4,3.19-7.37,4.98-13.98,8.52-14.2,3.94-.24,7.34,7.6,8.38,9.87,12.8,27.87,64.31,73.67,88.6,63.88,7.68-3.1,8.51-10.12,15.19-9.86,10.13,.41,17.31,16.66,23.64,30.98,3.79,8.57,8.42,21.06,11.38,37.08,0,.26,.02,.44,.02,.65,5.84,183.3-46.21,325.62-114.89,347.4Z" style="fill:#d79e41;"/><path d="M1223.91,1066.64c-2.21,11.71-4.58,23.55-7.1,35.5-.7,3.33-1.41,6.64-2.13,9.94-2.6,14.67-5.21,29.34-7.81,44.02l-12.78-34.08c-2.81-9.47-2.46-12.23-1.42-12.78,.76-.4,1.22,.16,2.84,0,3.06-.31,5.18-2.9,8.52-7.1,1.05-1.31,1.56-2.1,2.52-3.43,4.8-6.65,10.47-22.91,11.68-26.39,.27-.78,.96-2.78,2.84-4.26,1.02-.81,2.08-1.21,2.84-1.42Z" style="fill:#88631b;"/><path d="M1325.67,1137.4l3.47-3.5c.34-.38,3.78-4.11,8.35-3.37,1.59,.25,2.79,.96,3.56,1.54-3.1,.11-5.68,1.8-6.4,4.14-.64,2.07,.26,4.33,1.42,5.68,1.81,2.1,4.47,2.2,4.46,3.4,0,.86-1.4,1.09-1.62,2.28-.19,1.01,.58,2.03,1.42,2.84-.24,.69-.67,1.72-1.42,2.84-1.4,2.09-2.86,3-4.26,4.26-1.25,1.12-2.85,2.89-4.26,5.68l8.52-4.26c-.61,.63-1.6,1.63-2.84,2.84-3.47,3.39-4.2,3.82-5.68,5.68-.38,.47-1.59,2.03-2.84,4.26,0,0-.77,1.38-1.42,2.84-1.98,4.49-2.19,9.46-3.48,12.39-1.13,2.56-3.53,5.95-9.3,8.91,1.44-2.03,3.44-5.42,4.26-9.94,1.16-6.39-.5-12.69,0-12.78,.34-.06,.89,2.89,1.42,2.84,.81-.07-.49-6.91,1.42-15.62,.87-3.95,1.75-5.35,1.42-8.52-.36-3.44-1.68-4.57-1.42-7.1,.19-1.86,1.22-4.45,5.22-7.33Z" style="fill:#88631b;"/><path d="M1226.75,1073.74c1.51,2.4,3.57,4.41,2.84,5.68-.32,.56-.98,.6-1.42,1.42-.57,1.07-.17,2.33,0,2.84,1.4,4.3,16.31,11.8,15.62,14.2-.34,1.17-4.28,1.1-4.26,1.42,.03,.41,6.4-.42,7.1,1.42,.26,.68-.44,1.23-1.42,2.84-1.01,1.67-1.62,3.95-2.84,8.52-1.16,4.37-.81,3.94-1.42,5.68-1.27,3.63-3.46,7.36-4.26,7.1-1.06-.35-.03-7.87,0-9.94,0-.55,.01-1.09,.01-1.09,0-.43,0-.72,0-.85,0-1.89,.15-2.19-.02-2.32-.64-.48-3.91,3.13-4.26,2.84-.33-.27,2.87-3.15,2.84-7.1-.02-1.91-.79-3.7-.99-4.16-.6-1.36-1.34-2.3-1.85-2.94-1.17-1.47-2.03-2.06-2.84-2.84-3.3-3.18-3.3-7.19-4.26-7.1-.98,.09-1.09,4.26-1.42,4.26-.84-.01-1.62-26.85,0-26.98,.54-.04,.29,3.04,2.84,7.1Z" style="fill:#88631b;"/><path d="M1118.5,1089.09l-22.7,25.87-26.99,28.12-13.73,9.36h3.88l8.77-2.03,18.46-11.36,17.69-15.58,19.22-29.85c7.04-12.61,12.81-20.48,17.04-25.56,3.1-3.71,9.99-11.46,9.94-17.04,0-.76-.16-3.38,1.42-5.68,1.19-1.74,2.95-2.68,2.84-2.84-.09-.14-1.53,.36-2.84,1.42-2.18,1.75-2.39,3.7-4.26,7.1-.41,.74-1.22,1.91-2.84,4.26-2.76,3.99-10.61,14.51-21.3,28.4" style="fill:#88631b;"/><polygon points="1223.91 1066.64 1224.9 1069.78 1226.75 1073.74 1229.24 1077.38 1229.58 1079.42 1228.17 1080.83 1228.17 1083.67 1229.58 1085.77 1232.53 1088.38 1243.78 1097.87 1239.52 1099.29 1246.68 1099.29 1246.62 1100.71 1250.5 1102.3 1238.6 1087.81 1234.82 1081.39 1231.02 1073.83 1228.52 1069.7 1225.75 1067.09 1223.91 1066.64" style="fill:#f1bc66;"/><path d="M1145.94,1091.64c2.99-3.69,.33-7.05,3.29-9.8,.71-.66,1.36-.92,8.7-2.63h0c-.1,6.83-.15,10.24-.15,10.24h0s-1.66,3.87-2.85,6.65c-3.41,7.98-3.66,8.69-3.29,9.8,.75,2.25,3.43,4.21,5.85,4.02,4.06-.32,4.75-6.53,7.97-6.58,3.24-.05,7.24,6.17,6.14,11.12-.5,2.27-1.97,3.76-4.02,5.85-3.34,3.4-4.79,3-7.17,5.41-3.03,3.07-3.82,6.91-4.9,12.14-1.43,6.93-.2,9.04-2.12,10.6-2.99,2.44-10.33,.88-12.94-3.73-2.1-3.72-.67-8.61,.87-11.27,.03-.05,.05-.09,.08-.14,2.79-4.69,5.61-5.07,6.8-7.39,1.6-3.1-.46-8.24-2.63-8.7-1.7-.36-4.11,2.02-6.36,4.24-.38,.37-.65,.66-.71,.73-5.7,6.12-7.97,11.19-11.28,11.7-4.45,.68-10.23-6.97-8.92-9.58,.75-1.49,3.35-.42,8.7-2.63,1.89-.78,3.16-1.57,5.56-3.07,4.11-2.57,6.16-3.85,7.17-5.41,2.13-3.31,2.2-7.98,.95-11.41-.97-2.66-2.22-3.21-1.9-4.75,.55-2.65,4.47-2.08,7.17-5.41Z" style="fill:#f1bc66;"/><path d="M1256.56,1119.17c4.96,7.59,14.39,17.04,34.08,24.14,6.5,2.67,11.79,3.07,15.62,2.84,4.41-.26,7.67-1.39,8.52,0,.9,1.47-1.26,5.1-4.26,7.1-5.02,3.34-10.69,.97-11.36,2.84-.52,1.46,2.41,4.46,5.68,5.68,3.61,1.35,5.84-.12,7.1,1.42,1.32,1.61,.39,5.05-1.42,7.1-.62,.7-2.55,2.6-8.52,2.84-8.75,.36-9.87-3.5-17.04-2.84-2.14,.2-5.21,1.08-11.36,2.84-4.34,1.24-5.32,1.71-7.1,1.42-4.55-.74-9.36-5.59-8.52-9.94,.6-3.11,3.84-4.75,5.68-5.68,4.18-2.12,9.36-2.02,12.78,0,.63,.37,1.3,.87,1.62,1.1,3.63,2.69,3.99,4.43,5.48,4.57,1.79,.17,4.13-2.08,4.26-4.26,.16-2.73-3.2-4.75-7.1-7.1-2.76-1.66-4.53-2.73-7.1-2.84-2.23-.1-2.67,.63-7.1,1.42-4.13,.74-6.21,1.09-7.1,0-1.05-1.28-.35-4.3,1.42-5.68,2-1.57,4.07-.03,5.68-1.42,1.84-1.58,1.65-5.73,0-8.52-1.42-2.4-3.02-2.3-8.52-5.68-4.78-2.94-7.2-4.46-8.52-7.1-.74-1.48-.97-3.82-1.42-8.52-.44-4.55-.66-6.82,0-7.1,1.5-.63,6.03,7.55,8.52,11.36Z" style="fill:#f1bc66;"/></g><g id="e"><path d="M1270.19,1532.9c-10.77-4.09-26.26-8.18-44.01-6.08-23.91,2.84-34.75,14.89-45.84,9.84-10.83-4.92-2.98-19.45-16.6-35.15-7.64-8.81-21.11-17.06-35.57-17.58-24.19-.86-35.87,20.45-45.25,16.31-10.55-4.65,2.7-32.28-4.55-74.66-.77-4.49-7.7-43.5-20.55-44.29-12.24-.75-19.89,33.8-27.66,33.04-6.59-.64-12.15-26.55-10.18-126.32,0,0,3.87-4.97,3.87-67.82,0-.38,.05-2.33,1.71-3.91,1.05-1.01,2.5-1.63,4.1-1.63h111.96c-1.6,0-3.05,.62-4.1,1.63-1.66,1.58-1.71,3.53-1.71,3.91-1.1,15.73-2.6,39.23-3.88,67.82-.2,4.42-.38,8.64-.57,12.69,0,.06,0,.12,0,.18-1.28,29.1-2.06,48.86-1.85,63.1v.05c-.39,3.52-.7,9.58,.98,16.72,8.88,37.91,59.7,46.7,98.06,82.8,13.56,12.76,31,34.05,41.64,69.35Z" style="fill:#ebb662;"/><path d="M1546.3,1435.43c-1.78,13.48-5.58,33.55-22.92,44.29-8.45,5.24-17.44,6.61-22.92,7.03,8.56-20.62,16.35-44.41,21.66-71.12,16.2-81.54,1.35-151.02-13.14-195.18,0-3.19-2.52-5.8-5.6-5.8h42.39c3.42,0,6.23,2.49,6.23,5.54,1.69,102.87-1.2,181.14-5.69,215.23Z" style="fill:#85611b;"/><path d="M1523.38,1479.72c-8.22,5.34-23.21,13.54-43.91,16.8-7.14,1.12-20.1,3.02-32.04,.5-11.05-2.33-17.91-10.33-31.35-23.27-12.96-12.48-14.34-16.62-19.17-16.53-11.16,.2-10.3,22.44-28.45,30.93-18.34,8.58-37.78-5.41-46.63,3.52-6.52,6.58,2.12,16.11-3.16,26.01-5.87,11-24.94,14.99-48.21,15.47-10.29-3.34-24.34-9.41-36.17-21.09-12.77-12.61-11.11-20.28-21.98-28.82-19.06-14.97-35.94-1.76-56.99-13.36-27.12-14.94-31.19-54.52-34.74-89.12-.72-6.99-.97-12.79-1.08-16.72v-.05c.07-14.97,.86-35.04,2.05-63.1,0-.06,0-.12,0-.18,.2-4.05,.41-8.27,.62-12.69,1.41-28.59,3.07-52.09,4.28-67.82,0-.38,.05-2.33,1.89-3.91,1.16-1.01,2.76-1.63,4.52-1.63h382.05c3.17,0,5.77,2.61,5.77,5.8,6.53,26.03,12.08,55.73,14.91,88.46,1.94,22.49,3.73,60.19-1.38,106.71-2.83,25.84-7.06,47.64-10.83,64.09Z" style="fill:#b68126;"/><path d="M1535.49,1269.05h-502.97c-8.28,0-15-6.5-15-14.51v-14.73c0-8.01,6.72-14.51,15-14.51h502.97c8.28,0,15,6.5,15,14.51v14.51c0,8.23-6.72,14.73-15,14.73Z" style="fill:#88631b;"/><path d="M1524.28,1254.46h-480.48c-14.41,0-26.21-9.16-26.21-20.36v-20.7c0-11.2,11.79-20.36,26.21-20.36h480.48c14.41,0,26.21,9.16,26.21,20.36v20.7c0,11.2-11.79,20.36-26.21,20.36Z" style="fill:#c4d227;"/></g><path d="M1479.83,1486.48c0,9.34-10.81,16.91-24.13,16.91-1.06,0-2.09-.05-3.12-.14h-79.61c-8.56,0-15.49-5.14-15.49-11.49s6.94-11.49,15.49-11.49c3.67,0,7.04,.94,9.7,2.53-.18-1-.27-2.02-.27-3.06,0-13.06,14.28-23.65,31.89-23.65,13.75,0,25.46,6.46,29.94,15.5,3.41-1.29,7.32-2.03,11.47-2.03,13.33,0,24.13,7.57,24.13,16.91Z" style="fill:#fff;"/><g id="f"/><g id="g"><rect x="1047.68" y="1110.79" width="9.05" height="99.78" rx="2.94" ry="2.94" style="fill:#794519;"/><rect x="1101.59" y="1099.99" width="9.05" height="99.78" rx="2.94" ry="2.94" style="fill:#794519;"/><path d="M1139.65,1148.2c-.92,.18-2.64,.51-4.81,.85-4.97,.77-19.89,2.74-56.14-2.39-2.4-.34-4.36-.63-5.61-.83-.18-.8-.49-2.3-.79-4.19-4.78-30.36,10.86-63.9,33.07-82.28,1.47-1.22,2.68-2.13,3.21-2.52,.41,.41,1.3,1.33,2.4,2.51,2.59,2.79,36.69,40.7,29.48,84.66-.28,1.69-.57,3.11-.81,4.2Z" style="fill:url(#h);"/><path d="M1085.6,1152.74c-.92,.18-2.64,.51-4.81,.85-4.97,.77-19.89,2.74-56.14-2.39-2.4-.34-4.36-.63-5.61-.83-.18-.8-.49-2.3-.79-4.19-4.78-30.36,10.86-63.9,33.07-82.28,1.47-1.22,2.68-2.13,3.21-2.52,.41,.41,1.3,1.33,2.4,2.51,2.59,2.79,36.69,40.7,29.48,84.66-.28,1.69-.57,3.11-.81,4.2Z" style="fill:url(#i);"/></g><g id="j"><g id="k"><g id="l"/><g id="m"><path d="M857.91,1303.6c14.51,158.61,71.9,201.67,71.9,201.67,4.52,3.36,13.36,10,26.53,15.48,20.57,8.65,37.68,8.84,68.73,9.04,24.22,.1,36.62,.1,50.85-5.09,16.34-5.96,27.01-14.8,32.01-19.03,52.39-44.51,43.74-125.15,59.6-201.86,.87-3.94,3.17-15-1.73-18.46-5.86-4.13-18.74,4.9-22.11,7.11-12.21,8.07-256.36,18.84-274.05,2.4-1.06-.96-6.25-6.25-9.52-4.71-2.98,1.44-2.69,8.56-2.21,13.46Z" style="fill:#d79e41;"/><path d="M871.56,1306.87c11.82-3.27,21.63-2.69,23.93-2.6,19.42,1.54,18.07,1.06,25.09,.77,20.86-.87,27.97-7.59,34.22-3.08,6.73,4.9,5.19,17.59,4.61,22.78-1.06,9.23-.96,54.89-.96,146.11,0,12.21,.29,28.07,10.96,41.33,8.17,10.19,19.22,14.8,26.43,17.01-3.65-.1-8.56-.48-14.23-1.44-12.59-2.02-21.72-5.58-25.18-7.02-9.32-3.84-15.76-8.07-17.3-9.04-3.08-2.02-11.15-7.59-20.19-17.78-5.38-6.06-11.44-14.51-20.47-31.82-14.42-27.49-20.86-51.43-24.61-65.75-4.23-15.67-7.31-31.72-7.69-34.22-.19-1.15-1.06-5.77-2.69-15.09-4.42-25.57-5.38-31.91-1.44-36.14,1.54-1.83,4.23-2.6,9.52-4.04Z" style="fill:#f1bc66;"/><path d="M1163.78,1307.54c-11.82-3.27-21.63-2.69-23.93-2.6-19.42,1.54-18.07,1.06-25.09,.77-20.86-.87-27.97-7.59-34.22-3.08-6.73,4.9-5.19,17.59-4.61,22.78,1.06,9.23,.96,54.89,.96,146.11,0,12.21-.29,28.07-10.96,41.33-8.17,10.19-19.22,14.8-26.43,17.01,4.61-.19,9.23-.38,13.84-.48,5.67-.38,13.65-1.44,22.69-4.61,10.48-3.65,17.49-8.27,21.82-11.25,4.13-2.79,12.4-8.75,20.76-18.17,4.61-5.19,10.96-13.46,20.09-32.49,12.5-26.34,18.36-48.64,22.97-65.75,.87-3.08,4.42-16.53,7.69-34.22,.19-1.15,1.06-5.77,2.69-15.09,4.42-25.57,5.38-31.91,1.44-36.14-1.83-1.92-4.42-2.69-9.71-4.13Z" style="fill:#88631b;"/><path d="M1166.95,1331.19h-298.56c-4.9,0-8.94-4.04-8.94-8.94v-8.94c0-4.9,4.04-8.94,8.94-8.94h298.56c4.9,0,8.94,4.04,8.94,8.94v8.94c0,4.9-4.04,8.94-8.94,8.94Z" style="fill:#88631b;"/><path d="M1163.87,1317.73h-292.41c-8.75,0-15.96-4.98-15.96-11.02v-11.15c0-6.04,7.21-11.02,15.96-11.02h292.41c8.75,0,15.96,4.98,15.96,11.02v11.15c0,6.04-7.21,11.02-15.96,11.02Z" style="fill:#c4d227;"/></g></g></g><g id="n"><g id="o"><g id="p"><path d="M1590.35,1371.2v128.81c0,5.18-1.94,9.45-4.36,9.45h-10.25c-1.47,0-2.79-.82-3.84-2.18h0c-.95-1.73-1.58-4.36-1.58-7.27v-128.81c0-3.18,.05-6.36,.05-9.45h15.61c2.37,0,4.36,4.27,4.36,9.45Z" style="fill:#b58026;"/><path d="M1596.65,1371.2v128.81c0,5.18-2.47,9.45-5.47,9.45h-4.84c2.21,0,3.99-4.27,3.99-9.45v-128.81c0-5.18-1.79-9.45-3.99-9.45h4.84c3,0,5.47,4.27,5.47,9.45Z" style="fill:#7e5513;"/><path d="M1572.11,1570.18c0,7.27-3.1,13.27-6.94,13.27h-6.78c3.36,0,6.15-6,6.15-13.27-.11-69.45-.26-138.99-.37-208.44h7.52c.16,69.45,.32,138.9,.42,208.44Z" style="fill:#a77619;"/><path d="M1564.54,1570.18c0,7.27-2.79,13.27-6.15,13.27h-47.62c-3.68,0-6.73-5.64-6.94-12.54v-196.62c.21-7,3.21-12.54,6.94-12.54h53.4c.16,69.45,.26,138.9,.37,208.44Z" style="fill:#d79e41;"/><path d="M1517.5,1370.47v89.72c0,4.82-2.26,8.73-5.05,8.73h-4.26c2.79,0,5.05-3.91,5.05-8.73v-89.72c0-4.82-2.26-8.73-5.05-8.73h4.26c2.73,0,5.05,3.91,5.05,8.73Z" style="fill:#c38f37;"/><path d="M1513.24,1370.47v89.72c0,4.82-2.05,8.73-4.52,8.73h-17.19c-2.47,0-4.52-3.91-4.52-8.73v-89.72c0-4.82,2.05-8.73,4.52-8.73h17.19c2.47,0,4.52,3.91,4.52,8.73Z" style="fill:#ebb662;"/><path d="M1594.24,1371.83h-104.33c-1.63,0-2.89-2.27-2.89-5v-4.09c0-2.82,1.31-5,2.89-5h104.33c1.63,0,2.89,2.27,2.89,5v4.09c.05,2.73-1.26,5-2.89,5Z" style="fill:#88631b;"/><path d="M1591.5,1364.74h-98.81c-3.15,0-5.68-4.45-5.68-9.82v-11.45c0-5.45,2.58-9.82,5.68-9.82h98.76c3.15,0,5.68,4.45,5.68,9.82v11.45c.05,5.36-2.52,9.82-5.62,9.82Z" style="fill:#c4d227;"/></g></g></g><g id="q"><g id="r"><g id="s"/><g id="t"><path d="M1066.9,1422.33c5.24,57.25,25.97,72.79,25.97,72.79,1.62,1.25,4.81,3.62,9.61,5.62,7.43,3.12,13.61,3.18,24.85,3.25,8.74,.06,13.24,0,18.35-1.81,5.93-2.12,9.74-5.37,11.55-6.87,18.92-16.04,15.8-45.14,21.54-72.86,.31-1.44,1.12-5.43-.62-6.68-2.12-1.5-6.74,1.75-7.99,2.56-4.43,2.93-92.52,6.81-98.89,.87-.37-.37-2.25-2.25-3.43-1.69-1.25,.5-1.12,3.06-.94,4.81Z" style="fill:#d79e41;"/><path d="M1071.77,1423.52c4.25-1.19,7.8-1,8.62-.94,7.05,.56,6.49,.37,9.05,.31,7.49-.31,10.11-2.75,12.36-1.12,2.43,1.75,1.87,6.37,1.69,8.24-.37,3.31-.37,19.79-.31,52.75,0,4.43,.12,10.11,3.93,14.92,2.93,3.68,6.93,5.37,9.55,6.12-1.31-.06-3.06-.19-5.12-.5-4.56-.75-7.87-2-9.11-2.56-3.37-1.37-5.68-2.87-6.24-3.25-1.12-.75-4.06-2.75-7.3-6.43-1.94-2.19-4.12-5.24-7.37-11.49-5.18-9.93-7.49-18.54-8.93-23.72-1.5-5.68-2.62-11.49-2.81-12.36-.06-.37-.37-2.06-.94-5.43-1.62-9.24-1.94-11.49-.56-13.05,.62-.69,1.62-.94,3.5-1.5Z" style="fill:#f1bc66;"/><path d="M1177.28,1423.77c-4.25-1.19-7.8-1-8.62-.94-7.05,.56-6.49,.37-9.05,.31-7.49-.31-10.11-2.75-12.36-1.12-2.43,1.75-1.87,6.37-1.69,8.24,.37,3.31,.37,19.79,.31,52.75,0,4.43-.12,10.11-3.93,14.92-2.93,3.68-6.93,5.37-9.55,6.12,1.69-.06,3.31-.12,4.99-.19,2.06-.12,4.93-.5,8.18-1.69,3.75-1.31,6.31-3,7.87-4.06,1.5-1,4.43-3.12,7.49-6.56,1.69-1.87,4-4.87,7.24-11.74,4.5-9.49,6.62-17.54,8.3-23.72,.31-1.12,1.56-5.93,2.81-12.36,.06-.37,.37-2.06,.94-5.43,1.62-9.24,1.94-11.49,.56-13.05-.62-.69-1.56-.94-3.5-1.5Z" style="fill:#88631b;"/><path d="M1178.41,1432.32h-107.76c-1.75,0-3.25-1.44-3.25-3.25v-3.25c0-1.75,1.44-3.25,3.25-3.25h107.76c1.75,0,3.25,1.44,3.25,3.25v3.25c0,1.81-1.44,3.25-3.25,3.25Z" style="fill:#88631b;"/><path d="M1177.28,1427.45h-105.51c-3.18,0-5.74-2.56-5.74-5.74v-5.81c0-3.18,2.56-5.74,5.74-5.74h105.51c3.18,0,5.74,2.56,5.74,5.74v5.81c.06,3.18-2.56,5.74-5.74,5.74Z" style="fill:#c4d227;"/></g></g></g><g id="u"><rect x="1441.14" y="1078.41" width="8.89" height="129.58" rx="3.32" ry="3.32" style="fill:#794519;"/><ellipse cx="1444.73" cy="1054.34" rx="43.85" ry="37.79" style="fill:url(#v);"/><path d="M1444.73,1124.95v1.13c0,1.07-.52,1.94-1.16,1.94h-19c-.14,.06-.28,.09-.44,.09h-1.54c-.7,0-1.27-.63-1.27-1.4v-16.42c0-.77,.57-1.4,1.27-1.4h1.54c.7,0,1.27,.63,1.27,1.4v12.72h18.17c.64,0,1.16,.87,1.16,1.94Z" style="fill:#794519;"/><ellipse cx="1423.94" cy="1106.12" rx="15.47" ry="10.29" style="fill:#99c71a;"/><rect x="1377.52" y="1024.66" width="13.57" height="172.42" rx="4.73" ry="4.73" style="fill:#794519;"/><path d="M1389.28,1086.07v1.39c0,1.31,.53,2.38,1.19,2.38h19.41c.14,.07,.29,.11,.45,.11h1.57c.71,0,1.3-.77,1.3-1.72v-20.17c0-.94-.59-1.72-1.3-1.72h-1.57c-.71,0-1.3,.77-1.3,1.72v15.62h-18.56c-.66,0-1.19,1.07-1.19,2.38Z" style="fill:#794519;"/><ellipse cx="1410.53" cy="1054.51" rx="15.81" ry="12.64" style="fill:url(#w);"/><path d="M1412.22,1072.07v.74c0,.7,.25,1.27,.56,1.27h9.13c.07,.04,.14,.06,.21,.06h.74c.34,0,.61-.41,.61-.92v-10.77c0-.5-.28-.92-.61-.92h-.74c-.34,0-.61,.41-.61,.92v8.34h-8.73c-.31,0-.56,.57-.56,1.27Z" style="fill:#794519;"/><ellipse cx="1422.2" cy="1061.19" rx="7.43" ry="6.75" style="fill:url(#x);"/><path d="M1382.33,1108.58v.85c0,.8-.45,1.45-1,1.45h-16.36c-.12,.04-.24,.07-.38,.07h-1.32c-.6,0-1.1-.47-1.1-1.05v-12.31c0-.58,.49-1.05,1.1-1.05h1.32c.6,0,1.1,.47,1.1,1.05v9.54h15.64c.55,0,1,.66,1,1.45Z" style="fill:#794519;"/><ellipse cx="1362.43" cy="1090.14" rx="13.32" ry="7.72" style="fill:url(#y);"/><rect x="1500.27" y="1054.91" width="10.37" height="147.9" rx="3.83" ry="3.83" style="fill:#85601b;"/><ellipse cx="1503.81" cy="1028.09" rx="45.01" ry="42.48" style="fill:url(#a`);"/><path d="M1509.26,1107.58v1.2c0,1.12,.41,2.04,.91,2.04h14.84c.11,.06,.22,.09,.34,.09h1.2c.55,0,.99-.66,.99-1.48v-17.3c0-.81-.45-1.47-.99-1.47h-1.2c-.55,0-.99,.66-.99,1.47v13.4h-14.19c-.5,0-.91,.92-.91,2.04Z" style="fill:#85601b;"/><ellipse cx="1525.5" cy="1080.51" rx="12.08" ry="10.84" style="fill:#99c71a;"/><path d="M1526.79,1095.58v.64c0,.6,.19,1.09,.43,1.09h6.98c.05,.03,.1,.05,.16,.05h.56c.26,0,.47-.35,.47-.79v-9.24c0-.43-.21-.79-.47-.79h-.56c-.26,0-.47,.35-.47,.79v7.16h-6.67c-.24,0-.43,.49-.43,1.09Z" style="fill:#85601b;"/><ellipse cx="1534.42" cy="1086.24" rx="5.68" ry="5.79" style="fill:#99c71a;"/><path d="M1503.95,1126.89v.73c0,.69-.34,1.25-.76,1.25h-12.5c-.09,.04-.19,.06-.29,.06h-1.01c-.46,0-.84-.41-.84-.9v-10.56c0-.49,.38-.9,.84-.9h1.01c.46,0,.84,.41,.84,.9v8.18h11.95c.42,0,.76,.56,.76,1.25Z" style="fill:#85601b;"/><ellipse cx="1490.27" cy="1114.78" rx="10.18" ry="6.62" style="fill:#99c71a;"/><path d="M1475.86,1179.92c.89-36.22,1.79-72.45,2.68-108.67" style="fill:#a2d2d4;"/><ellipse cx="1385.96" cy="980.58" rx="59.49" ry="49.64" style="fill:url(#aa);"/></g><g id="ab"><rect x="1542.19" y="1277.85" width="4.08" height="57.73" rx="1.5" ry="1.5" style="fill:#794519;"/><ellipse cx="1543.84" cy="1267.13" rx="20.14" ry="16.83" style="fill:url(#ac);"/><rect x="1513.88" y="1264.84" width="6.24" height="76.81" rx="2.14" ry="2.14" style="fill:#794519;"/><path d="M1519.29,1292.19v.62c0,.58,.24,1.06,.55,1.06h8.92c.06,.03,.13,.05,.21,.05h.72c.33,0,.6-.35,.6-.77v-8.98c0-.42-.27-.77-.6-.77h-.72c-.33,0-.6,.35-.6,.77v6.96h-8.53c-.3,0-.55,.48-.55,1.06Z" style="fill:#794519;"/><ellipse cx="1529.04" cy="1278.14" rx="7.26" ry="5.63" style="fill:url(#ad);"/><path d="M1529.82,1285.96v.33c0,.31,.12,.57,.26,.57h4.19s.06,.03,.1,.03h.34c.15,0,.28-.18,.28-.41v-4.8c0-.22-.13-.41-.28-.41h-.34c-.15,0-.28,.18-.28,.41v3.72h-4.01c-.14,0-.26,.26-.26,.57Z" style="fill:#794519;"/><ellipse cx="1534.41" cy="1281.11" rx="3.41" ry="3.01" style="fill:url(#ae);"/><path d="M1516.09,1302.22v.38c0,.36-.21,.65-.46,.65h-7.51c-.05,.02-.11,.03-.17,.03h-.61c-.28,0-.5-.21-.5-.47v-5.49c0-.26,.23-.47,.5-.47h.61c.28,0,.5,.21,.5,.47v4.25h7.18c.25,0,.46,.29,.46,.65Z" style="fill:#794519;"/><ellipse cx="1506.95" cy="1294.01" rx="6.12" ry="3.44" style="fill:url(#af);"/><ellipse cx="1515.94" cy="1252.83" rx="27.05" ry="22.06" style="fill:url(#ag);"/><rect x="1558.64" y="1305.62" width="3.16" height="42.57" rx="1.13" ry="1.13" style="fill:#794519;"/><path d="M1571.89,1323.52c-.32,.08-.92,.22-1.68,.36-1.74,.33-6.95,1.17-19.62-1.02-.84-.14-1.52-.27-1.96-.35-.06-.34-.17-.98-.28-1.79-1.67-12.96,3.79-27.27,11.56-35.11,.51-.52,.94-.91,1.12-1.08,.14,.18,.46,.57,.84,1.07,.9,1.19,12.82,17.37,10.3,36.12-.1,.72-.2,1.33-.28,1.79Z" style="fill:url(#ah);"/></g><g id="ai"/><g id="aj"/><path d="M1046.67,1404.59c0,7.36-11.71,13.47-27.05,14.63-1.72,.13-3.49,.2-5.3,.2h-216.67c-1.6,.13-3.26,.2-4.94,.2-15.8,0-28.62-5.9-28.62-13.18s12.82-13.19,28.62-13.19c4.03,0,7.86,.38,11.34,1.08-.4-1.17-.61-2.36-.61-3.57,0-13.25,24.77-23.99,55.34-23.99s55.34,10.74,55.34,23.99c0,.35-.02,.7-.06,1.05,5.38-6.1,18.37-10.4,33.54-10.4,19.98,0,36.18,7.46,36.18,16.67,0,.47-.04,.94-.13,1.4-.03,.19-.07,.38-.13,.57-.66,.95-1.12,1.94-1.36,2.96,.64-.95,1.1-1.94,1.36-2.96,.14-.19,.28-.38,.43-.57,4.54-5.67,16.42-9.72,30.37-9.72,17.87,0,32.35,6.64,32.35,14.83Z" style="fill:#fff;"/><path d="M1523.5,1042.66c0,9.34-10.81,16.91-24.13,16.91-1.06,0-2.09-.05-3.12-.14h-79.61c-8.56,0-15.49-5.14-15.49-11.49s6.94-11.49,15.49-11.49c3.67,0,7.04,.94,9.7,2.53-.18-1-.27-2.02-.27-3.06,0-13.06,14.28-23.65,31.89-23.65,13.75,0,25.46,6.46,29.94,15.5,3.41-1.29,7.32-2.03,11.47-2.03,13.33,0,24.13,7.57,24.13,16.91Z" style="fill:#fff;"/><path d="M1719.26,1391.27c0,9.9-7.25,18.12-16.76,19.67-1.07,.18-2.16,.27-3.28,.27h-134.26c-.99,.17-2.02,.26-3.06,.26-9.79,0-17.73-7.94-17.73-17.73s7.94-17.73,17.73-17.73c2.5,0,4.87,.52,7.03,1.45-.25-1.57-.38-3.17-.38-4.8,0-17.82,15.35-32.27,34.29-32.27s34.29,14.44,34.29,32.27c0,.47-.01,.95-.04,1.42,3.33-8.21,11.38-13.99,20.78-13.99,12.38,0,22.42,10.04,22.42,22.42,0,.64-.03,1.27-.08,1.89-.02,.26-.05,.52-.08,.77-.41,1.28-.7,2.61-.84,3.98,.4-1.28,.68-2.61,.84-3.98,.08-.26,.17-.52,.27-.77,2.81-7.63,10.17-13.07,18.82-13.07,11.07,0,20.04,8.93,20.04,19.94Z" style="fill:#fff;"/><path d="M904.84,1138.45c0,14.66-16.97,26.55-37.88,26.55-1.66,0-3.29-.07-4.89-.22h-124.96c-13.44,0-24.32-8.07-24.32-18.04s10.89-18.04,24.32-18.04c5.76,0,11.05,1.48,15.22,3.97-.28-1.57-.42-3.17-.42-4.8,0-20.5,22.41-37.12,50.05-37.12,21.58,0,39.97,10.13,46.99,24.33,5.36-2.03,11.49-3.18,18.01-3.18,20.92,0,37.88,11.89,37.88,26.54Z" style="fill:#fff;"/></g><g id="ak"><path d="M1277.86,1198.44h-102.37c-3.44-38.18-6.89-76.37-10.33-114.55,0-3.94,4.63-7.13,10.33-7.13h102.37c5.71,0,10.33,3.19,10.33,7.13-3.44,38.18-6.89,76.37-10.33,114.55Z" style="fill:#ffd710;"/><path d="M1274.3,1198.49h-92.47c-3.11-34.48-6.22-68.96-9.33-103.45,0-3.56,4.18-6.44,9.33-6.44h92.47c5.15,0,9.33,2.88,9.33,6.44-3.11,34.48-6.22,68.96-9.33,103.45Z" style="fill:#ffe969;"/><path d="M1253.59,1199.18h-53.84c-1.81-25.55-3.62-51.1-5.43-76.64,0-2.64,2.43-4.77,5.43-4.77h53.84c3,0,5.43,2.14,5.43,4.77-1.81,25.55-3.62,51.1-5.43,76.64Z" style="fill:none; stroke:#ff9803; stroke-miterlimit:10; stroke-width:.77px;"/><path d="M1253.36,1199.29h-52.85c-1.78-25.53-3.56-51.06-5.33-76.59,0-2.63,2.39-4.77,5.33-4.77h52.85c2.95,0,5.33,2.14,5.33,4.77-1.78,25.53-3.56,51.06-5.33,76.59Z" style="fill:#ffb94a;"/><g id="al"><path d="M1330.11,1160.71v44.1c0,1.69-10.4,3.06-23.24,3.06s-23.24-1.37-23.24-3.06v-44.1c1.1,1.55,11.08,2.77,23.24,2.77s22.14-1.22,23.24-2.77Z" style="fill:#d0fffe;"/><path d="M1329.9,1159.95c0,.09-.03,.19-.1,.28-1.09,1.52-10.92,2.71-22.9,2.71s-21.81-1.19-22.89-2.71c-.07-.09-.1-.19-.1-.28,0-1.66,10.29-3,22.99-3s23,1.34,23,3Z" style="fill:#5fdadd; stroke:#fff; stroke-miterlimit:10; stroke-width:1.31px;"/><g id="am"><g style="opacity:.67;"><path d="M1339.48,1085.58c-3.54,0-6.72-2-8.3-5.21-2.28-4.64-.41-10.3,4.17-12.61,1.3-.65,2.68-.98,4.12-.98,3.54,0,6.72,2,8.3,5.21,2.28,4.64,.41,10.3-4.17,12.61-1.3,.65-2.68,.99-4.12,.99Z" style="fill:#addbff;"/><path d="M1339.47,1067.27h0c3.35,0,6.36,1.89,7.85,4.93,2.16,4.4,.39,9.75-3.95,11.94-1.23,.62-2.54,.93-3.89,.93-3.35,0-6.36-1.89-7.85-4.93-2.16-4.4-.39-9.75,3.95-11.94,1.23-.62,2.54-.93,3.89-.93m0-1c-1.46,0-2.95,.33-4.34,1.04-4.83,2.44-6.8,8.38-4.39,13.27,1.71,3.48,5.16,5.49,8.75,5.49,1.46,0,2.95-.33,4.34-1.04,4.83-2.44,6.8-8.38,4.39-13.27-1.71-3.48-5.16-5.49-8.75-5.49h0Z" style="fill:#9cceff;"/></g><g style="opacity:.67;"><path d="M1275.55,1050.31c-6.83,0-12.95-3.82-15.97-9.97-4.38-8.91-.71-19.81,8.17-24.29,2.54-1.28,5.25-1.93,8.06-1.93,6.83,0,12.95,3.82,15.97,9.97,4.38,8.91,.71,19.81-8.17,24.29-2.54,1.28-5.25,1.93-8.06,1.93Z" style="fill:#89f4c6;"/><path d="M1275.81,1013.63v1c6.64,0,12.59,3.71,15.52,9.69,4.26,8.67,.69,19.27-7.95,23.62-2.47,1.24-5.1,1.88-7.83,1.88-6.64,0-12.59-3.71-15.52-9.69-4.26-8.67-.69-19.27,7.95-23.62,2.47-1.24,5.1-1.88,7.83-1.88v-1m0,0c-2.78,0-5.62,.64-8.28,1.98-9.14,4.61-12.9,15.78-8.39,24.96,3.19,6.5,9.67,10.25,16.42,10.25,2.78,0,5.62-.64,8.28-1.98,9.14-4.61,12.9-15.78,8.39-24.96-3.19-6.5-9.67-10.25-16.42-10.25h0Z" style="fill:#4cf2a6;"/></g><g style="opacity:.67;"><path d="M1252.88,1085.34c-4.68-.03-8.46-4.03-8.43-8.92,.03-4.86,3.84-8.81,8.49-8.81,4.73,.03,8.51,4.03,8.48,8.92-.03,4.86-3.84,8.81-8.49,8.81h-.06Z" style="fill:#ffcee2;"/><path d="M1252.95,1067.11v1h.05c4.4,.03,7.96,3.81,7.93,8.42-.03,4.58-3.61,8.31-7.99,8.31h-.05c-4.4-.03-7.96-3.81-7.93-8.42,.03-4.58,3.61-8.31,7.99-8.31v-1m0,0c-4.94,0-8.95,4.15-8.99,9.31-.03,5.17,3.96,9.39,8.92,9.43h.06c4.94,0,8.95-4.15,8.99-9.31,.03-5.17-3.96-9.39-8.92-9.43h-.06Z" style="fill:#fc9fca;"/></g><g><path d="M1274.33,1102.43c-2.17,0-4.09-1.45-4.67-3.54-.73-2.61,.81-5.36,3.43-6.13,.46-.13,.93-.2,1.4-.2,2.17,0,4.09,1.45,4.67,3.54,.73,2.61-.81,5.36-3.43,6.13-.46,.13-.93,.2-1.4,.2Z" style="fill:#89daf7;"/><path d="M1274.49,1093.21h0c1.88,0,3.55,1.26,4.05,3.07,.64,2.27-.71,4.67-2.99,5.34-.4,.12-.81,.18-1.22,.18-1.88,0-3.55-1.26-4.05-3.07-.64-2.27,.71-4.67,2.99-5.34,.4-.12,.81-.18,1.22-.18m0-1.29c-.52,0-1.05,.07-1.58,.23-2.97,.87-4.7,3.97-3.87,6.92,.68,2.43,2.88,4.01,5.29,4.01,.52,0,1.05-.07,1.58-.23,2.97-.87,4.7-3.97,3.87-6.92-.68-2.43-2.88-4.01-5.29-4.01h0Z" style="fill:#4cb6d3;"/></g><g style="opacity:.67;"><path d="M1294.72,1121.1c-4.24,0-8.03-2.37-9.9-6.18-2.71-5.53-.44-12.29,5.07-15.07,1.57-.79,3.26-1.2,5-1.2,4.24,0,8.03,2.37,9.9,6.18,2.71,5.53,.44,12.29-5.07,15.07-1.57,.79-3.26,1.2-5,1.2Z" style="fill:#89f4c6;"/><path d="M1294.88,1099.15c4.04,0,7.67,2.26,9.46,5.9,2.59,5.28,.42,11.75-4.84,14.4-1.5,.76-3.11,1.14-4.77,1.14-4.04,0-7.67-2.26-9.46-5.9-2.59-5.29-.42-11.75,4.85-14.4,1.5-.76,3.11-1.14,4.77-1.14m0-1c-1.76,0-3.54,.4-5.22,1.25-5.76,2.91-8.13,9.95-5.29,15.74,2.01,4.1,6.09,6.46,10.35,6.46,1.76,0,3.54-.4,5.22-1.25,5.76-2.91,8.13-9.95,5.29-15.74-2.01-4.1-6.09-6.46-10.35-6.46h0Z" style="fill:#50d699;"/></g><g style="opacity:.67;"><path d="M1305.17,1157.36c-4.22,0-8.12-1.94-10.7-5.31-4.57-5.98-3.49-14.61,2.41-19.25,2.39-1.88,5.25-2.87,8.27-2.87,4.22,0,8.12,1.94,10.7,5.31,4.57,5.98,3.49,14.61-2.41,19.25-2.39,1.88-5.25,2.87-8.27,2.87Z" style="fill:#ffdbcb;"/><path d="M1305.15,1130.43h0c4.06,0,7.82,1.87,10.3,5.12,4.41,5.76,3.36,14.08-2.32,18.55-2.3,1.81-5.06,2.76-7.96,2.76-4.06,0-7.82-1.86-10.3-5.12-4.41-5.76-3.36-14.08,2.32-18.55,2.3-1.81,5.06-2.76,7.96-2.76m0-1c-3,0-6.02,.97-8.58,2.98-6.12,4.81-7.24,13.74-2.5,19.94,2.76,3.62,6.91,5.51,11.1,5.51,3,0,6.02-.97,8.58-2.98,6.12-4.81,7.24-13.74,2.5-19.94-2.76-3.62-6.91-5.51-11.1-5.51h0Z" style="fill:#fcab8b;"/></g><ellipse cx="1302.09" cy="1082.36" rx="20.46" ry="20.73" style="fill:#fc7777; opacity:.67; stroke:#ff174e; stroke-miterlimit:10;"/><g style="opacity:.67;"><path d="M1272.44,1076.73c-3.89,0-7.38-2.19-9.12-5.72-2.5-5.1-.45-11.31,4.58-13.84,1.42-.72,2.95-1.08,4.52-1.08,3.89,0,7.38,2.19,9.12,5.72,2.5,5.1,.45,11.31-4.58,13.84-1.42,.72-2.95,1.08-4.52,1.08Z" style="fill:#fbffd6;"/><path d="M1272.43,1056.58h0c3.7,0,7.02,2.09,8.67,5.44,2.38,4.85,.43,10.76-4.35,13.17-1.35,.68-2.8,1.03-4.3,1.03-3.7,0-7.02-2.09-8.67-5.44-2.38-4.85-.43-10.76,4.35-13.17,1.35-.68,2.8-1.03,4.3-1.03m0-1c-1.6,0-3.22,.37-4.75,1.14-5.28,2.66-7.43,9.16-4.8,14.51,1.87,3.8,5.64,6,9.57,6,1.6,0,3.22-.37,4.75-1.14,5.28-2.66,7.43-9.16,4.8-14.51-1.87-3.8-5.64-6-9.57-6h0Z" style="fill:#f6fc7e;"/></g><g style="opacity:.67;"><path d="M1213,998.43c-4.05,0-7.69-2.28-9.5-5.96-2.61-5.31-.47-11.78,4.77-14.42,1.48-.75,3.07-1.13,4.71-1.13,4.05,0,7.69,2.28,9.5,5.96,2.61,5.31,.47,11.78-4.77,14.42-1.48,.75-3.07,1.13-4.71,1.13Z" style="fill:#c5ff95;"/><path d="M1212.99,977.42h0c3.86,0,7.33,2.18,9.05,5.68,2.49,5.06,.45,11.23-4.54,13.75-1.41,.71-2.92,1.07-4.49,1.07-3.86,0-7.33-2.18-9.05-5.68-2.49-5.06-.45-11.23,4.54-13.75,1.41-.71,2.92-1.07,4.49-1.07m0-1c-1.66,0-3.35,.38-4.94,1.18-5.49,2.77-7.72,9.52-4.99,15.08,1.94,3.95,5.87,6.24,9.95,6.24,1.66,0,3.35-.38,4.94-1.18,5.49-2.77,7.72-9.52,4.99-15.08-1.94-3.95-5.87-6.24-9.95-6.24h0Z" style="fill:#a8f95a;"/></g><g style="opacity:.67;"><path d="M1209.75,1045.31c-6.38,0-12.1-3.59-14.94-9.38-4.1-8.35-.73-18.52,7.5-22.67,2.33-1.18,4.83-1.77,7.41-1.77,6.38,0,12.1,3.59,14.94,9.38,4.1,8.35,.73,18.52-7.5,22.67-2.33,1.18-4.83,1.77-7.41,1.77Z" style="fill:#ffc8ec;"/><path d="M1209.73,1011.04v.91c6.2,0,11.77,3.49,14.53,9.12,3.99,8.12,.72,18.02-7.3,22.06-2.27,1.14-4.69,1.72-7.21,1.72-6.2,0-11.77-3.49-14.53-9.12-3.99-8.12-.72-18.02,7.3-22.06,2.27-1.14,4.69-1.72,7.21-1.72v-.91m0,0c-2.56,0-5.17,.59-7.62,1.82-8.47,4.27-11.92,14.69-7.7,23.28,2.99,6.1,9.05,9.63,15.35,9.63,2.56,0,5.17-.59,7.62-1.82,8.47-4.27,11.92-14.69,7.7-23.28-2.99-6.1-9.05-9.63-15.35-9.63h0Z" style="fill:#f761d0;"/></g><g style="opacity:.67;"><path d="M1327.13,1134.09c-4.24,0-8.03-2.37-9.9-6.18-2.72-5.53-.44-12.29,5.07-15.07,1.57-.79,3.26-1.2,5-1.2,4.24,0,8.03,2.37,9.9,6.18,2.71,5.53,.44,12.29-5.07,15.07-1.58,.79-3.26,1.2-5,1.2Z" style="fill:#89f4c6;"/><path d="M1327.29,1111.14v1c4.04,0,7.67,2.26,9.46,5.9,2.59,5.29,.42,11.75-4.85,14.4-1.5,.76-3.11,1.14-4.77,1.14-4.04,0-7.67-2.26-9.46-5.9-2.59-5.29-.42-11.75,4.85-14.4,1.5-.76,3.11-1.14,4.77-1.14v-1m0,0c-1.76,0-3.54,.4-5.22,1.25-5.76,2.91-8.13,9.95-5.29,15.74,2.01,4.1,6.09,6.46,10.35,6.46,1.76,0,3.54-.4,5.22-1.25,5.76-2.91,8.13-9.95,5.29-15.74-2.01-4.1-6.09-6.46-10.35-6.46h0Z" style="fill:#58f4ad;"/></g><g style="opacity:.67;"><path d="M1317.22,1058.66c-7.01,0-13.29-3.95-16.42-10.3-4.5-9.17-.81-20.35,8.24-24.91,2.56-1.29,5.3-1.95,8.15-1.95,7.01,0,13.29,3.95,16.42,10.3,4.5,9.17,.81,20.35-8.24,24.91-2.56,1.29-5.3,1.95-8.15,1.95Z" style="fill:#ffc8ec;"/><path d="M1317.19,1021v1h0c6.81,0,12.93,3.84,15.96,10.02,4.38,8.93,.79,19.8-8.02,24.24-2.49,1.26-5.16,1.89-7.92,1.89-6.81,0-12.93-3.84-15.97-10.02-4.38-8.93-.79-19.8,8.02-24.24,2.49-1.26,5.16-1.89,7.92-1.89v-1m0,0c-2.82,0-5.68,.64-8.37,2-9.31,4.69-13.1,16.14-8.46,25.58,3.29,6.7,9.95,10.58,16.86,10.58,2.82,0,5.68-.64,8.37-2,9.31-4.69,13.1-16.14,8.46-25.58-3.29-6.7-9.95-10.58-16.86-10.58h0Z" style="fill:#ffb0e7;"/></g><path d="M1326.87,1031.85c-5.59-6.13-14.77-4.92-14.69-5.92,.07-.98,8.99-3.04,14.99,1.61,2.28,1.77,3.38,3.92,3.81,4.78,2.73,5.49,1.48,11.68,.64,11.75-.9,.08-.02-7.03-4.75-12.22Z" style="fill:#fff;"/><path d="M1265.84,1021.05c-2.18,1.81-3.36,3.76-3.92,4.69-1.93,3.23-2.12,5.93-2.23,5.9-.14-.03,.13-4.99,3.11-9.02,.52-.7,1.95-2.49,4.32-3.46,.64-.26,1.61-.57,1.69-.41,.11,.21-1.42,1-2.98,2.29Z" style="fill:#fff;"/><path d="M1250.74,1071.68c-3.71,1.93-4.4,7.21-4.87,6.98-.46-.22-.22-5.53,2.84-7.96,1.16-.93,2.35-1.13,2.82-1.2,3.01-.47,5.81,1.38,5.73,1.86-.09,.51-3.38-1.31-6.52,.32Z" style="fill:#fff;"/><path d="M1288.97,1072.56c-1.91,2.24-3.59,4.26-4.2,7.04-.12,.53-.2,1.11-.24,1.1-.1,0-.46-3.06,.72-6.09,.16-.42,2.19-5.4,6.88-7.89,2.35-1.25,4.89-1.66,5.02-1.31,.12,.31-1.64,1.08-4.08,3.07-2.02,1.65-3.32,3.16-4.1,4.08Z" style="fill:#fff;"/><path d="M1290.14,1028.46c-.43-2.17-1.12-3.27-.96-3.39,.23-.17,2.13,1.81,2.73,4.8,.5,2.54,.06,5.71-1.61,7.82-.83,1.05-1.95,1.82-2.14,1.62-.21-.24,1.04-1.5,1.79-3.7,1.02-3.01,.44-5.9,.2-7.15Z" style="fill:#fff;"/><path d="M1334.82,1080.44c2.85,3.06,8.13,2.3,8.03,2.81-.09,.5-5.27,1.7-8.43-.6-1.2-.87-1.71-1.96-1.91-2.4-1.26-2.78-.23-5.97,.25-6.02,.52-.05-.36,3.61,2.06,6.2Z" style="fill:#fff;"/><path d="M1207.99,981.98c-3.34,2.94-3.32,7.36-3.65,7.29-.33-.07-.47-4.73,2.38-7.7,.9-.94,1.85-1.45,2.32-1.67,2.07-.99,4.34-.97,4.41-.65,.09,.37-2.95,.52-5.47,2.73Z" style="fill:#fff;"/><g><path d="M1278.2,1072.28c.32-.57,.68-1.28,.96-2.12,1.06-3.14,.47-6.13,.21-7.41-.09-.48-.2-.9-.31-1.28,.43,.74,.86,1.72,1.1,2.89,.53,2.67-.06,5.58-1.51,7.41-.15,.19-.3,.36-.45,.51Z" style="fill:#fbffd6;"/><path d="M1277.96,1059.44s-.03,0-.04,.01c-.16,.12,.53,1.22,.96,3.39,.25,1.25,.82,4.14-.2,7.15-.74,2.2-2,3.46-1.79,3.7,.02,.02,.05,.03,.09,.03,.33,0,1.31-.71,2.04-1.65,1.67-2.11,2.12-5.28,1.61-7.82-.57-2.87-2.34-4.81-2.69-4.81h0Z" style="fill:#fff;"/></g><path d="M1203.98,1015.83c-2.9,1.69-4.67,3.73-5.5,4.71-2.89,3.4-3.64,6.51-3.76,6.46-.16-.07,1.13-5.81,5.4-9.93,.74-.72,2.76-2.52,5.72-3.19,.81-.18,2-.35,2.06-.15,.08,.27-1.86,.89-3.93,2.09Z" style="fill:#fff;"/><path d="M1218.9,1036.46c4.74-5.88,2.38-13.96,3.28-14.04,.89-.07,3.99,7.66,.63,13.71-1.28,2.3-3.05,3.58-3.77,4.09-4.56,3.22-10.3,2.95-10.48,2.21-.2-.8,6.32-.99,10.33-5.97Z" style="fill:#fff;"/><path d="M1331.69,1117.89c-1.17-2.95-2.65-4.51-2.36-4.65,.42-.19,4.34,2.73,5.95,6.79,1.36,3.44,1.01,7.58-1.82,10.11-1.41,1.26-3.42,2.1-3.81,1.8-.44-.35,1.75-1.82,2.81-4.61,1.46-3.82-.09-7.75-.76-9.44Z" style="fill:#fff;"/><path d="M1312.24,1138.74c-1.17-2.95-2.65-4.51-2.36-4.65,.42-.19,4.34,2.73,5.95,6.79,1.36,3.44,1.01,7.58-1.82,10.11-1.41,1.26-3.42,2.1-3.81,1.8-.44-.35,1.75-1.82,2.81-4.61,1.46-3.82-.09-7.75-.76-9.44Z" style="fill:#fff;"/><path d="M1301.89,1113.28c1.59-1.92,2.08-3.43,2.29-3.32,.31,.16-.13,3.64-2.32,6.28-1.86,2.24-4.91,3.79-7.86,3.24-1.47-.28-2.89-1.07-2.84-1.42,.06-.4,2,.23,4.4-.35,3.29-.79,5.41-3.33,6.32-4.44Z" style="fill:#fff;"/><g style="opacity:.67;"><path d="M1277.33,1096.9c-.53-2.21-3.34-3.32-3.14-3.53,.19-.21,3.07,.67,3.97,2.62,.34,.74,.28,1.38,.25,1.64-.18,1.64-1.6,2.83-1.85,2.72-.27-.12,1.21-1.57,.77-3.45Z" style="fill:#fff;"/></g></g></g><g id="an"><g style="opacity:.67;"><path d="M1240.15,1028.16c-3.54,0-6.72-2-8.3-5.21-2.28-4.64-.41-10.3,4.17-12.61,1.3-.65,2.68-.99,4.12-.99,3.54,0,6.72,2,8.3,5.21,2.28,4.64,.41,10.3-4.17,12.61-1.3,.65-2.68,.98-4.12,.98Z" style="fill:#addbff;"/><path d="M1240.14,1009.86h0c3.35,0,6.36,1.89,7.85,4.93,2.16,4.4,.39,9.75-3.95,11.94-1.23,.62-2.54,.93-3.89,.93-3.35,0-6.36-1.89-7.85-4.93-2.16-4.4-.39-9.75,3.95-11.94,1.23-.62,2.54-.93,3.89-.93m0-1c-1.46,0-2.95,.33-4.34,1.04-4.83,2.44-6.8,8.38-4.39,13.27,1.71,3.48,5.16,5.49,8.75,5.49,1.46,0,2.95-.33,4.34-1.04,4.83-2.44,6.8-8.38,4.39-13.27-1.71-3.48-5.16-5.49-8.75-5.49h0Z" style="fill:#9cceff;"/></g><g style="opacity:.67;"><path d="M1354.83,1026.65c-12.27,0-23.26-6.86-28.68-17.9-7.86-16.01-1.28-35.57,14.67-43.62,4.56-2.3,9.43-3.47,14.47-3.47,12.27,0,23.26,6.86,28.68,17.9,7.86,16.01,1.28,35.57-14.67,43.62-4.56,2.3-9.43,3.47-14.47,3.47Z" style="fill:#89f4c6;"/><path d="M1355.3,960.77v1.8c11.92,0,22.6,6.67,27.87,17.39,7.64,15.57,1.24,34.6-14.27,42.42-4.43,2.24-9.17,3.37-14.07,3.37-11.92,0-22.6-6.67-27.87-17.39-7.64-15.57-1.24-34.6,14.27-42.42,4.43-2.24,9.17-3.37,14.07-3.37v-1.8m0,0c-5,0-10.09,1.14-14.88,3.56-16.41,8.28-23.16,28.34-15.07,44.81,5.73,11.66,17.36,18.4,29.48,18.4,5,0,10.09-1.14,14.88-3.56,16.41-8.28,23.16-28.34,15.07-44.81-5.73-11.66-17.36-18.4-29.48-18.4h0Z" style="fill:#4cf2a6;"/></g><g style="opacity:.67;"><path d="M1329.55,1022.2c-1.03,0-2.05-.27-2.96-.78-2.96-1.66-4.03-5.46-2.39-8.46,1.08-1.97,3.13-3.2,5.36-3.2,1.03,0,2.05,.27,2.96,.78,2.96,1.66,4.03,5.46,2.39,8.46-1.08,1.97-3.13,3.2-5.36,3.2Z" style="fill:#89daf7;"/><path d="M1329.57,1010.57h0c.89,0,1.78,.23,2.56,.68,2.58,1.45,3.51,4.75,2.07,7.37-.94,1.71-2.72,2.78-4.65,2.78-.89,0-1.78-.23-2.57-.68-2.58-1.45-3.51-4.75-2.07-7.37,.94-1.71,2.72-2.78,4.65-2.78m0-1.61c-2.44,0-4.8,1.3-6.06,3.62-1.86,3.39-.65,7.66,2.7,9.55,1.06,.6,2.22,.88,3.35,.88,2.44,0,4.8-1.3,6.06-3.62,1.86-3.39,.65-7.67-2.7-9.55-1.06-.6-2.22-.88-3.35-.88h0Z" style="fill:#4cb6d3;"/></g><g style="opacity:.67;"><path d="M1213.12,964.18c-3.12,0-6.01-1.43-7.92-3.93-3.38-4.42-2.58-10.81,1.78-14.24,1.77-1.39,3.89-2.12,6.12-2.12,3.12,0,6.01,1.43,7.92,3.93,3.38,4.42,2.58,10.81-1.78,14.24-1.77,1.39-3.89,2.12-6.12,2.12Z" style="fill:#ffdbcb;"/><path d="M1213.1,943.52v.74c3,0,5.78,1.38,7.62,3.79,3.26,4.26,2.49,10.42-1.72,13.72-1.7,1.34-3.74,2.05-5.89,2.05-3,0-5.78-1.38-7.62-3.79-3.26-4.26-2.49-10.42,1.72-13.72,1.7-1.34,3.74-2.05,5.89-2.05v-.74m0,0c-2.22,0-4.46,.72-6.35,2.2-4.53,3.56-5.36,10.16-1.85,14.75,2.04,2.67,5.11,4.08,8.21,4.08,2.22,0,4.46-.72,6.35-2.2,4.53-3.56,5.36-10.16,1.85-14.75-2.04-2.67-5.11-4.08-8.21-4.08h0Z" style="fill:#fcab8b;"/></g><ellipse cx="1243.44" cy="991.72" rx="12.84" ry="13.02" style="fill:#ffb07b; opacity:.67; stroke:#ffa348; stroke-miterlimit:10; stroke-width:.63px;"/><g style="opacity:.67;"><path d="M1315.68,1018.68c-5.94,0-11.27-3.35-13.91-8.73-3.82-7.78-.69-17.25,6.99-21.12,2.17-1.1,4.49-1.65,6.9-1.65,5.94,0,11.27,3.35,13.91,8.73,3.82,7.78,.68,17.25-6.99,21.12-2.17,1.1-4.49,1.65-6.9,1.65Z" style="fill:#c5ff95;"/><path d="M1315.66,986.45v1.46c5.65,0,10.73,3.19,13.25,8.32,3.64,7.42,.66,16.46-6.66,20.14-2.07,1.04-4.28,1.57-6.57,1.57-5.66,0-10.73-3.19-13.26-8.32-3.64-7.42-.66-16.46,6.66-20.14,2.07-1.04,4.28-1.57,6.57-1.57v-1.46m0,0c-2.43,0-4.91,.56-7.23,1.73-8.04,4.06-11.31,13.95-7.31,22.1,2.84,5.79,8.59,9.14,14.57,9.14,2.43,0,4.91-.56,7.23-1.73,8.04-4.06,11.31-13.95,7.31-22.1-2.84-5.79-8.59-9.14-14.57-9.14h0Z" style="fill:#a8f95a;"/></g><g style="opacity:.67;"><path d="M1251.35,973.58c-8.63,0-16.37-4.86-20.22-12.69-5.55-11.3-.99-25.06,10.15-30.68,3.16-1.59,6.53-2.4,10.03-2.4,8.63,0,16.37,4.86,20.22,12.69,5.55,11.3,.99,25.06-10.15,30.68-3.16,1.59-6.53,2.4-10.03,2.4Z" style="fill:#ffc8ec;"/><path d="M1251.32,927.2v1.23h0c8.39,0,15.92,4.73,19.66,12.34,5.4,10.99,.97,24.39-9.87,29.86-3.07,1.55-6.35,2.33-9.75,2.33-8.39,0-15.93-4.73-19.66-12.34-5.4-10.99-.97-24.39,9.87-29.86,3.07-1.55,6.35-2.33,9.75-2.33v-1.23m0,0c-3.47,0-6.99,.79-10.31,2.47-11.46,5.78-16.13,19.88-10.42,31.5,4.05,8.25,12.25,13.03,20.77,13.03,3.47,0,6.99-.79,10.31-2.47,11.46-5.78,16.13-19.88,10.42-31.5-4.05-8.25-12.25-13.03-20.77-13.03h0Z" style="fill:#ea6eca;"/></g><g style="opacity:.67;"><path d="M1307.08,979.16c-4.24,0-8.03-2.37-9.9-6.18-2.72-5.53-.44-12.29,5.07-15.07,1.57-.79,3.26-1.2,5-1.2,4.24,0,8.03,2.37,9.9,6.18,2.71,5.53,.44,12.29-5.07,15.07-1.57,.79-3.26,1.2-5,1.2Z" style="fill:#89f4c6;"/><path d="M1307.24,957.22c4.04,0,7.67,2.26,9.46,5.9,2.59,5.29,.42,11.75-4.85,14.4-1.5,.76-3.11,1.14-4.77,1.14-4.04,0-7.67-2.26-9.46-5.9-2.59-5.29-.42-11.75,4.85-14.4,1.5-.76,3.11-1.14,4.77-1.14m0-1c-1.76,0-3.54,.4-5.22,1.25-5.76,2.91-8.13,9.95-5.29,15.74,2.01,4.1,6.09,6.46,10.35,6.46,1.76,0,3.54-.4,5.22-1.25,5.76-2.91,8.13-9.95,5.29-15.74-2.01-4.1-6.09-6.46-10.35-6.46h0Z" style="fill:#58f4ad;"/></g><g style="opacity:.67;"><path d="M1287.15,1002.15c-7.01,0-13.29-3.95-16.42-10.3-4.5-9.17-.81-20.35,8.24-24.91,2.56-1.29,5.3-1.95,8.15-1.95,7.01,0,13.29,3.95,16.42,10.3,4.5,9.17,.81,20.35-8.24,24.91-2.56,1.29-5.3,1.95-8.15,1.95Z" style="fill:#ffc8ec;"/><path d="M1287.12,964.49v1h0c6.81,0,12.93,3.84,15.96,10.02,4.38,8.93,.79,19.8-8.02,24.24-2.49,1.26-5.16,1.89-7.92,1.89-6.81,0-12.93-3.84-15.97-10.02-4.38-8.93-.79-19.8,8.02-24.24,2.49-1.26,5.16-1.89,7.92-1.89v-1m0,0c-2.82,0-5.68,.64-8.37,2-9.31,4.69-13.1,16.14-8.46,25.58,3.29,6.7,9.95,10.58,16.86,10.58,2.82,0,5.68-.64,8.37-2,9.31-4.69,13.1-16.14,8.46-25.58-3.29-6.7-9.95-10.58-16.86-10.58h0Z" style="fill:#ffb0e7;"/></g><path d="M1296.8,975.34c-5.59-6.13-14.77-4.92-14.69-5.92,.07-.98,8.99-3.04,14.99,1.61,2.28,1.77,3.38,3.92,3.81,4.78,2.73,5.49,1.48,11.68,.64,11.75-.9,.08-.02-7.03-4.75-12.22Z" style="fill:#fff;"/><path d="M1337.39,974.09c-3.91,3.25-6.04,6.75-7.04,8.42-3.47,5.8-3.81,10.64-4,10.6-.26-.06,.23-8.97,5.59-16.2,.93-1.26,3.49-4.46,7.75-6.2,1.16-.47,2.89-1.02,3.04-.73,.19,.38-2.56,1.79-5.35,4.11Z" style="fill:#fff;"/><path d="M1235.21,985.56c-1.2,1.41-2.25,2.67-2.64,4.42-.07,.33-.12,.7-.15,.69-.06,0-.29-1.92,.45-3.82,.1-.26,1.37-3.39,4.32-4.96,1.48-.79,3.07-1.04,3.15-.82,.07,.19-1.03,.68-2.56,1.93-1.27,1.03-2.08,1.98-2.57,2.56Z" style="fill:#fff;"/><path d="M1381.04,987.4c-.77-3.91-2.01-5.87-1.72-6.09,.42-.31,3.83,3.24,4.9,8.62,.91,4.56,.1,10.26-2.89,14.05-1.49,1.88-3.51,3.27-3.84,2.9-.38-.42,1.87-2.69,3.21-6.63,1.83-5.4,.8-10.6,.35-12.84Z" style="fill:#fff;"/><path d="M1235.48,1023.02c2.85,3.06,8.13,2.3,8.03,2.81-.09,.5-5.27,1.7-8.43-.6-1.2-.87-1.71-1.96-1.91-2.4-1.26-2.78-.23-5.97,.25-6.02,.52-.05-.36,3.61,2.06,6.2Z" style="fill:#fff;"/><path d="M1308.34,994.58c-4.9,4.31-4.87,10.79-5.34,10.68-.48-.11-.69-6.93,3.49-11.28,1.32-1.37,2.71-2.12,3.4-2.45,3.03-1.45,6.36-1.42,6.47-.95,.13,.54-4.32,.76-8.01,4.01Z" style="fill:#fff;"/><path d="M1243.54,933.68c-3.92,2.29-6.31,5.05-7.44,6.38-3.91,4.6-4.92,8.81-5.08,8.74-.22-.09,1.53-7.86,7.31-13.44,1.01-.97,3.74-3.41,7.74-4.32,1.09-.25,2.7-.47,2.79-.2,.11,.36-2.52,1.2-5.32,2.83Z" style="fill:#fff;"/><path d="M1263.73,961.6c6.41-7.95,3.22-18.9,4.45-18.99,1.21-.1,5.39,10.37,.86,18.55-1.73,3.11-4.13,4.85-5.11,5.54-6.17,4.35-13.94,4-14.18,2.99-.27-1.08,8.56-1.35,13.98-8.08Z" style="fill:#fff;"/><path d="M1311.65,962.97c-1.17-2.95-2.65-4.51-2.36-4.65,.42-.19,4.34,2.73,5.95,6.79,1.36,3.44,1.01,7.58-1.82,10.11-1.41,1.26-3.42,2.1-3.81,1.8-.44-.35,1.75-1.82,2.81-4.61,1.46-3.82-.09-7.75-.76-9.44Z" style="fill:#fff;"/><path d="M1218.35,950.41c-.86-2.18-1.96-3.34-1.75-3.44,.31-.14,3.21,2.02,4.4,5.03,1.01,2.55,.75,5.61-1.35,7.48-1.04,.93-2.53,1.56-2.82,1.33-.33-.26,1.29-1.34,2.08-3.41,1.08-2.83-.07-5.73-.57-6.99Z" style="fill:#fff;"/><path d="M1333.22,1015.23c-.66-2.77-4.17-4.16-3.93-4.42,.24-.26,3.85,.84,4.97,3.27,.43,.93,.35,1.73,.32,2.05-.22,2.05-2,3.54-2.31,3.41-.34-.15,1.51-1.97,.96-4.31Z" style="fill:#fff;"/><g style="opacity:.67;"><path d="M1275.56,957.39c-4.25,0-8.07-2.4-9.96-6.25-2.73-5.57-.49-12.35,5-15.12,1.56-.78,3.22-1.18,4.94-1.18,4.25,0,8.07,2.4,9.96,6.25,2.73,5.57,.49,12.35-5,15.12-1.56,.78-3.22,1.18-4.94,1.18Z" style="fill:#addbff;"/><path d="M1275.55,935.43h0c4.02,0,7.63,2.27,9.42,5.92,2.59,5.28,.47,11.7-4.73,14.32-1.47,.74-3.04,1.12-4.67,1.12-4.02,0-7.63-2.27-9.42-5.92-2.59-5.28-.47-11.7,4.73-14.32,1.47-.74,3.04-1.12,4.67-1.12m0-1.2c-1.75,0-3.53,.4-5.21,1.25-5.79,2.92-8.15,10.05-5.27,15.92,2.05,4.17,6.19,6.59,10.5,6.59,1.75,0,3.53-.4,5.21-1.25,5.79-2.92,8.15-10.05,5.27-15.92-2.05-4.17-6.19-6.59-10.5-6.59h0Z" style="fill:#9cceff;"/></g><path d="M1269.96,951.23c3.42,3.67,9.75,2.76,9.64,3.37-.11,.61-6.32,2.04-10.12-.72-1.45-1.05-2.06-2.35-2.29-2.87-1.51-3.33-.27-7.16,.3-7.22,.62-.06-.43,4.33,2.47,7.44Z" style="fill:#fff;"/></g></g><g id="ao"/><g id="ap"><path d="M981.95,1305.45h-108.95c-1.13-.22-2.99-.69-4.41-1.69,0,0-2.02-1.43-2.06-3.82-.99-58.55,50.4-68.26,50.4-68.26,5.53-1.05,14.56-2.75,24.94-1.18,29.86,4.53,49.17,32.91,46.41,71.33,.07,.19,.54,1.44-.9,2.52-1.22,.92-3.35,1.35-5.44,1.1Z" style="fill:#02590e;"/><path d="M1010.42,1307.81h-99.33c-1.03-.16-2.72-.48-4.02-1.19,0,0-1.84-1.01-1.88-2.69-.9-41.16,45.95-47.98,45.95-47.98,5.04-.73,13.28-1.93,22.74-.83,27.22,3.18,44.83,23.14,42.32,50.14,.07,.13,.49,1.01-.82,1.77-1.12,.65-3.05,.95-4.96,.78Z" style="fill:#098122;"/><path d="M935.21,1308.6h-59.38c-.62-.13-1.63-.4-2.4-1,0,0-1.1-.84-1.12-2.25-.54-34.44,27.47-40.15,27.47-40.15,3.02-.61,7.94-1.62,13.59-.69,16.27,2.66,26.8,19.36,25.3,41.96,.04,.11,.29,.85-.49,1.48-.67,.54-1.82,.79-2.96,.65Z" style="fill:#016715;"/><path d="M1029.99,1311.35h-49.96c-.52-.11-1.37-.35-2.02-.87,0,0-.92-.74-.94-1.97-.45-30.19,23.11-35.19,23.11-35.19,2.54-.54,6.68-1.42,11.44-.61,13.69,2.34,22.55,16.97,21.28,36.77,.03,.1,.25,.74-.41,1.3-.56,.47-1.53,.7-2.49,.57Z" style="fill:#096f25;"/><path d="M980.24,1310.96h-49.96c-.52-.1-1.37-.3-2.02-.73,0,0-.92-.62-.94-1.65-.45-25.3,23.11-29.49,23.11-29.49,2.54-.45,6.68-1.19,11.44-.51,13.69,1.96,22.55,14.22,21.28,30.82,.03,.08,.25,.62-.41,1.09-.56,.4-1.53,.58-2.49,.48Z" style="fill:#96a027;"/><path d="M1544.61,1218h-69.6c-.72-.14-1.91-.42-2.82-1.04,0,0-1.29-.88-1.31-2.35-.63-35.99,32.19-41.96,32.19-41.96,3.53-.64,9.3-1.69,15.93-.72,19.07,2.78,31.41,20.23,29.65,43.84,.05,.11,.34,.89-.57,1.55-.78,.57-2.14,.83-3.47,.68Z" style="fill:url(#aq);"/><path d="M1510.92,1217.97h-55.18c-.57-.08-1.51-.26-2.23-.63,0,0-1.02-.54-1.04-1.43-.5-21.96,25.52-25.61,25.52-25.61,2.8-.39,7.38-1.03,12.63-.44,15.12,1.7,24.9,12.35,23.51,26.76,.04,.07,.27,.54-.46,.95-.62,.35-1.69,.51-2.75,.41Z" style="fill:url(#ar);"/><path d="M1533.05,1218.85h-29.45c-.31-.05-.81-.17-1.19-.41,0,0-.55-.35-.56-.92-.27-14.15,13.62-16.5,13.62-16.5,1.5-.25,3.94-.66,6.74-.28,8.07,1.09,13.29,7.95,12.55,17.24,.02,.04,.14,.35-.24,.61-.33,.22-.9,.33-1.47,.27Z" style="fill:url(#as);"/><path d="M1509.45,1220.73h-24.79c-.26-.04-.68-.13-1-.32,0,0-.46-.27-.47-.72-.23-10.99,11.47-12.81,11.47-12.81,1.26-.2,3.31-.52,5.68-.22,6.79,.85,11.19,6.18,10.56,13.39,.02,.03,.12,.27-.2,.47-.28,.17-.76,.25-1.24,.21Z" style="fill:url(#at);"/></g><g id="au"><path d="M964.21,1138.86l-.63,.6c-1.43,1.36,.65,3.3,2.12,2.12,2.85-2.29,5.86-4.36,9-6.22l-1.51-2.59-10.17,6.71c-1.47,.97-.5,3.01,1.16,2.74,3.96-.65,7.14-3.2,10.15-5.7,1.12-.93-.08-3.06-1.46-2.51-2.66,1.06-5.18,2.36-7.55,3.96-1.31,.88-.51,3.42,1.16,2.74,2.17-.89,3.7-2.43,4.5-4.65l-2.74,.36,2.7,6.28,2.59-1.51c-.94-1.26-1.93-2.45-3.03-3.57-1.22-1.25-3.14,.34-2.36,1.82,.56,1.06,.94,2.14,1.21,3.3l2.51-1.46c-.59-.71-1.06-1.47-1.48-2.29l-2.59,1.51,1.21,1.84,2.36-1.82-1.2-1.37c-1.19-1.36-3.04,.37-2.36,1.82,.29,.62,.66,1.14,1.09,1.67l2.12-2.12c-.15,0-.17-.01-.05-.06h-2.89c.56,1.79,2.71,2.35,4.16,1.21,1.58-1.25,1.88-3.9,2.25-5.74h-2.89c.28,.74,.36,1.37,.28,2.15l2.8-.76c-.43-.8-.56-1.6-.37-2.49l-2.74,.36c.65,1.24,.98,2.6,1.3,3.95,.39,1.61,3.11,1.31,2.95-.4-.23-2.38-.34-4.76-.32-7.15l-2.95,.4c.63,1.67,.86,3.38,.55,5.14h2.89c-.7-1.77-1.01-3.64-.73-5.54l-2.74,.36c.67,.91,.99,1.8,.96,2.94h3c-.16-1.72-.14-3.44,.12-5.15h-2.89c.58,1.7,.73,3.37,.49,5.15h3c-.15-1.31-.18-2.63,.01-3.94l-2.95-.4c-.13,1.56,.63,2.86,1.9,3.73,.9,.62,2.35-.19,2.26-1.3s-.14-2.13-.13-3.2c0-.78-.19-2.21,.35-2.83l-2.56-1.06c-.35,3.79-1.34,7.51-2.93,10.97l2.74,1.16c.42-2.74,1.33-5.35,2.53-7.84,1.12-2.34,3.06-4.77,3.44-7.37,.19-1.3-.95-2.32-2.2-1.69-.86,.43-1.45,1.19-1.63,2.14-.3,1.61,1.83,2.69,2.74,1.16l4.56-7.62-2.74-1.16c-.91,4.16-2.66,7.98-5.19,11.4l2.8,.76c-.07-.71,.37-1.29,.69-1.91l1.25-2.42c.78-1.5,1.51-3.02,2.34-4.49,.6-1.06,1.78-2.06,2.01-3.28,.27-1.42-.63-2.62-1.63-3.51-.87-.78-2.12-.43-2.51,.66-1.05,2.96-2.17,5.89-3.37,8.79-1.09,2.63-2.07,5.67-3.82,7.95l2.74,1.16c.51-2.33,1.66-4.42,2.72-6.53,1.15-2.27,2.32-4.53,3.52-6.78,.91-1.72-1.5-3.1-2.59-1.51-3.45,5.01-6.25,10.45-9.19,15.77l2.8,.76c.17-1.52,.9-2.9,1.62-4.23,.82-1.5,1.66-2.98,2.52-4.46,1.72-2.97,3.49-5.92,5.27-8.86l-2.59-1.51-12.12,20.61,2.74,1.16c.44-1.9,1.51-3.66,2.39-5.38s1.84-3.54,2.79-5.28c1.83-3.34,4.22-6.6,5.31-10.28,.36-1.2-1.11-2.45-2.2-1.69-1.6,1.1-2.46,3.01-3.46,4.63l-3.46,5.63-7.01,11.4c-.95,1.55,1.1,2.82,2.36,1.82,2.11-1.69,3.54-4.05,5.28-6.09,1.87-2.18,3.99-4.18,6.61-5.41s5.38-.93,8.15-1.46c.64-.12,1.24-.32,1.84-.56,.5-.2,1.19-.62,1.74-.49,.64,.15,.88,.54,1.62,.41,.59-.1,.99-.43,1.27-.95,.43-.79,.09-2.01-.9-2.2-.89-.18-2.7-.18-3.34-.86l-1.82,2.36c.64,.4,1.32,.69,2.04,.89,1.39,.38,2.61-1.49,1.46-2.51-.4-.36-.78-.64-1.28-.86-.87-.37-1.93-.13-2.2,.9-.17,.63-1.18,1.02-1.68,1.33l-2.51,1.54c-1.55,.95-3.1,1.9-4.65,2.86-.66,.4-1.31,.82-2,1.16-.3,.15-1.8,.85-1.94,.75-.39-.28-.14-1.55-.02-1.88,.21-.62,.59-1.13,1.14-1.49,1.6-1.06,.13-3.62-1.51-2.59-2.44,1.53-4.39,3.71-5.53,6.36-.46,1.06,.07,2.18,1.3,2.26,1.69,.11,2.74-1.19,3.77-2.32l3.72-4.08-2.36-1.82c-1.54,2.26-3.22,4.41-5.06,6.42-.89,.97-1.81,1.92-2.76,2.83-.48,.46-.96,.9-1.45,1.34-.22,.2-.44,.39-.66,.58-.31,.27-.83,.46-.33,.56l.36,2.74c1.88-.96,3.83-1.7,5.86-2.27l-1.46-2.51c-3.57,3.03-7.37,5.78-11.16,8.52l1.82,2.36c4.14-3.46,7.77-7.44,10.9-11.83,.73-1.02-.28-2.16-1.3-2.26-1.38-.14-2.32,.88-3.23,1.77-1.16,1.12-2.31,2.25-3.45,3.38-2.29,2.27-4.55,4.57-6.78,6.89l2.36,1.82c1.12-2.05,2.89-3.65,4.49-5.33l5.25-5.52,5.25-5.52c1.5-1.58,3.91-3.29,4.17-5.57,.14-1.25-1.35-1.7-2.26-1.3-1.84,.83-3.44,2.47-4.93,3.79-1.69,1.5-3.3,3.07-4.85,4.72-3.02,3.22-5.76,6.72-8.19,10.41-.78,1.19,.51,2.42,1.69,2.2,2.11-.38,3.47-2.82,4.68-4.38,1.39-1.79,2.73-3.61,4.08-5.42,2.77-3.73,5.58-7.43,8.86-10.73l-2.12-2.12-9.4,9.59-4.52,4.62c-1.35,1.38-3.2,2.77-4.06,4.53-.52,1.07,.36,2.68,1.69,2.2,1.12-.4,1.74-1.14,2.5-2.02l2.57-2.99,5.14-5.99,10.28-11.98c1.24-1.45-.74-3.51-2.12-2.12-7.36,7.41-14.73,14.85-21.21,23.06-1.17,1.48,.79,3.58,2.12,2.12l10.94-12.06c1.76-1.94,3.52-3.87,5.27-5.82s3.84-3.86,4.84-6.19c.66-1.54-1-2.99-2.36-1.82-7.64,6.61-14.79,13.76-21.4,21.41l2.12,2.12c3.06-3.64,6.13-7.26,9.19-10.91,2.58-3.08,6.03-6.6,5.91-10.91-.05-1.69-2.46-2.04-2.95-.4-1,3.37-3.51,5.91-5.92,8.34-.76,.77-.46,2.26,.66,2.51,1.37,.31,2.17-.44,3.11-1.33,1.07-1.02,2.13-2.07,3.16-3.13,2.01-2.07,3.95-4.21,5.82-6.41,1.23-1.45-.73-3.5-2.12-2.12l-4.26,4.22c-1.37,1.36,.75,3.48,2.12,2.12l4.26-4.22-2.12-2.12c-1.56,1.84-3.17,3.65-4.84,5.4-.81,.85-1.63,1.68-2.46,2.51-.44,.44-.89,.88-1.34,1.31-.22,.22-.45,.43-.68,.65-.5,.35-.45,.43,.15,.24l.66,2.51c2.79-2.82,5.54-5.78,6.69-9.67l-2.95-.4c.05,1.86-.86,3.42-1.92,4.89-1.25,1.74-2.67,3.37-4.04,5-2.75,3.27-5.51,6.54-8.26,9.81-1.23,1.46,.85,3.59,2.12,2.12,6.6-7.65,13.76-14.8,21.4-21.41l-2.36-1.82c-.97,2.24-3.08,4.15-4.7,5.94-1.75,1.95-3.52,3.88-5.28,5.82l-10.61,11.69,2.12,2.12c6.48-8.21,13.85-15.65,21.21-23.06l-2.12-2.12-9.64,11.23-4.82,5.61-2.25,2.62-1.29,1.5c-.3,.34-.72,1.09-1.18,1.25l1.69,2.2c.41-.85,1.2-1.48,1.85-2.15l2.09-2.13,4.52-4.62,9.05-9.24c1.35-1.38-.76-3.49-2.12-2.12-3.05,3.06-5.7,6.46-8.28,9.92-1.28,1.71-2.53,3.43-3.82,5.13-.63,.84-1.27,1.67-1.93,2.49-.58,.72-1.3,2.05-2.27,2.22l1.69,2.2c2.3-3.48,4.87-6.76,7.72-9.8,1.39-1.49,2.85-2.91,4.36-4.28s3.02-2.96,4.81-3.76l-2.26-1.3c0,.08-.74,.77-.92,.96l-1.36,1.42-2.37,2.49-5.08,5.34-5.08,5.34c-1.44,1.52-2.93,3.01-3.94,4.87-.8,1.46,1.14,3.08,2.36,1.82,1.9-1.98,3.81-3.93,5.75-5.87,.91-.91,1.83-1.82,2.75-2.72,.52-.51,1.04-1.01,1.56-1.52,.28-.27,.87-1.1,1.29-1.05l-1.3-2.26c-2.98,4.18-6.49,7.93-10.43,11.22-1.29,1.08,.43,3.36,1.82,2.36,4-2.89,8-5.79,11.77-8.99,1.18-1-.09-2.89-1.46-2.51-2.28,.64-4.47,1.5-6.57,2.57-1.11,.56-.9,2.5,.36,2.74,1.62,.31,2.61-.76,3.74-1.76,1.26-1.12,2.47-2.29,3.62-3.52,2.3-2.43,4.39-5.07,6.27-7.84,.96-1.41-1.21-3.07-2.36-1.82l-2.75,3.02c-.52,.57-1.81,2.56-2.62,2.51l1.3,2.26c.95-2.2,2.42-4.01,4.45-5.29l-1.51-2.59c-1.9,1.26-3.01,3.41-2.72,5.7,.15,1.16,.61,2.36,1.72,2.89s2.46,.21,3.56-.21c2.61-.99,4.98-2.76,7.35-4.22,1.32-.81,2.66-1.6,3.97-2.43,1.02-.66,1.89-1.38,2.21-2.6l-2.2,.9c.25,.08,.48,.21,.67,.39l1.46-2.51c-.49-.14-.89-.32-1.32-.59-1.48-.92-2.96,1.14-1.82,2.36s3.08,1.32,4.67,1.63l-.9-2.2-.12,.21,.9-.69-.26,.05,1.16,.15c-1.2-.53-2.05-.89-3.4-.51-1.41,.4-2.6,1-4.1,1.14-2.88,.26-5.49,.47-8.11,1.81s-4.68,3.23-6.54,5.35-3.35,4.65-5.58,6.43l2.36,1.82,6.5-10.57,3.2-5.2,1.54-2.51c.44-.72,.89-1.81,1.61-2.3l-2.2-1.69c-.56,1.87-1.57,3.51-2.55,5.19s-1.97,3.46-2.92,5.21-1.87,3.52-2.77,5.3c-.85,1.68-1.84,3.39-2.26,5.24-.37,1.63,1.86,2.66,2.74,1.16l12.12-20.61c.98-1.67-1.59-3.17-2.59-1.51-1.94,3.22-3.88,6.45-5.76,9.71-1.68,2.94-3.68,5.91-4.06,9.35-.17,1.52,2.11,1.99,2.8,.76,2.94-5.31,5.74-10.76,9.19-15.77l-2.59-1.51c-1.27,2.39-2.51,4.79-3.73,7.21-1.11,2.2-2.28,4.4-2.81,6.82-.38,1.75,1.73,2.47,2.74,1.16,1.81-2.35,2.81-5.5,3.94-8.22,1.27-3.05,2.45-6.13,3.55-9.24l-2.51,.66c.27,.24,.77,.6,.72,.91-.06,.4-.88,1.13-1.1,1.47-.76,1.18-1.36,2.48-2.01,3.73l-1.93,3.74c-.59,1.13-1.35,2.31-1.22,3.64,.15,1.53,1.89,1.98,2.8,.76,2.67-3.61,4.54-7.74,5.5-12.12,.36-1.63-1.84-2.66-2.74-1.16l-4.56,7.62,2.74,1.16c-.04-.22,.04-.33,.25-.35l-2.2-1.69c-.2,1.37-.95,2.48-1.6,3.68s-1.33,2.5-1.91,3.79c-1.13,2.48-2.04,5.04-2.45,7.75-.23,1.52,1.96,2.84,2.74,1.16,1.83-3.97,2.94-8.13,3.34-12.49,.12-1.28-1.73-2-2.56-1.06-1.8,2.04-1.31,5.63-1.1,8.15l2.26-1.3c-.43-.29-.45-.66-.41-1.14,.14-1.66-2.7-2.08-2.95-.4-.23,1.59-.3,3.13-.12,4.73,.22,1.94,2.75,1.91,3,0,.27-2.01,.05-4.02-.6-5.95-.43-1.26-2.65-1.59-2.89,0-.3,1.98-.4,3.94-.22,5.94,.17,1.89,2.95,1.96,3,0,.04-1.61-.41-3.15-1.37-4.45-.66-.89-2.54-1.07-2.74,.36-.35,2.44-.17,4.83,.73,7.13,.48,1.22,2.6,1.62,2.89,0,.41-2.29,.28-4.55-.55-6.74-.57-1.52-2.93-1.39-2.95,.4-.02,2.39,.09,4.77,.32,7.15l2.95-.4c-.39-1.62-.83-3.19-1.61-4.67-.58-1.11-2.48-.89-2.74,.36-.36,1.7-.15,3.27,.67,4.8,.76,1.42,2.66,.61,2.8-.76,.1-1.02-.03-1.99-.39-2.95-.47-1.26-2.57-1.58-2.89,0-.19,.91-.4,1.82-.65,2.72-.1,.37-.24,.73-.34,1.1-.05,.14-.12,.27-.22,.39,.25-.12,.45-.01,.59,.33-.46-1.48-2.39-1.36-2.89,0-.39,1.05-.07,2.29,.82,2.98,1.52,1.18,3.36-.6,2.12-2.12-.27-.33-.45-.68-.63-1.06l-2.36,1.82,1.2,1.37c1.11,1.28,3.29-.39,2.36-1.82l-1.21-1.84c-1.06-1.62-3.47-.21-2.59,1.51,.54,1.05,1.19,1.99,1.95,2.9,1.02,1.23,2.81-.12,2.51-1.46-.32-1.41-.83-2.74-1.51-4.02l-2.36,1.82c.91,.94,1.77,1.92,2.56,2.96,1.16,1.56,3.35,.26,2.59-1.51l-2.7-6.28c-.56-1.3-2.36-.71-2.74,.36-.41,1.14-1.28,2.1-2.4,2.56l1.16,2.74c2.15-1.45,4.43-2.69,6.83-3.66l-1.46-2.51c-2.63,2.18-5.36,4.36-8.82,4.92l1.16,2.74,10.17-6.71c1.6-1.06,.16-3.58-1.51-2.59-3.36,2-6.56,4.24-9.61,6.69l2.12,2.12,.63-.6c1.4-1.34-.72-3.45-2.12-2.12h0Z" style="fill:#fff;"/><path d="M978.76,1108.9c-.92-1.94-3.15-1.29-4.3-.01-1.62,1.81-3.13,3.72-4.7,5.57s-3.13,3.72-4.7,5.57c-1.41,1.67-2.78,3.28-3.59,5.33-.55,1.41,1.54,2.52,2.51,1.46,5.16-5.69,10.37-11.45,16.52-16.1l-1.82-2.36c-7.01,6.68-13.19,14.16-19.01,21.89-1.02,1.35,1.29,3.14,2.36,1.82,3.41-4.22,6.82-8.44,10.23-12.66,1.2-1.48-.65-3.43-2.12-2.12-5.04,4.48-9.69,9.37-13.91,14.63l2.36,1.82c4.36-6.08,9.31-11.72,14.73-16.87l-2.12-2.12c-5.6,5.39-11.2,10.81-16.08,16.87l2.36,1.82c4.58-6.75,10.69-12.23,15.82-18.53,1.2-1.48-.67-3.45-2.12-2.12-2.69,2.47-5.23,5.1-7.58,7.9s-4.51,5.65-7.2,8.08l2.36,1.82c5.42-7.21,11.42-13.97,17.9-20.25l-2.36-1.82c-.73,1.26-1.66,2.28-2.88,3.08-.52,.34-.92,1.06-.69,1.69,.51,1.4,1.06,2.78,1.67,4.13,.52,1.17,1.02,2.77,2.51,2.91,2.81,.27,2.86-3.98,.47-4.74s-4.51,1.97-3.54,4.16c.53,1.2,1.76,1.63,2.95,1.13,1.27-.53,2.07-1.69,2.51-2.94,.2-.56-.12-1.44-.69-1.69-1-.45-2.15-1.2-3.28-.77-.39,.15-.68,.4-.94,.72-.11,.14-.23,.29-.31,.46-.27,.62-.26-.05,.53-.02l1.45,1.9c1.01-2.39,2.02-4.79,3.03-7.18,.58-1.38-1.58-2.57-2.51-1.46-1.13,1.35-1.74,2.94-1.52,4.71,.19,1.53,1.86,1.97,2.8,.76,1.45-1.88,2.56-3.91,3.46-6.1,.53-1.29-1.17-2.26-2.2-1.69-2.36,1.29-4.04,3.39-4.88,5.93-.52,1.57,1.44,2.3,2.51,1.46s2.21-1.56,3.4-2.2l-2.26-1.3c-.01,.46-.46,.89-.73,1.25-.37,.51-.66,1.01-.86,1.61-.37,1.09-.24,2.34-.81,3.35l2.74,.36c-.38-2.26-1.07-4.78-2.34-6.72-1.36-2.1-3.63-1.42-5.09,.16l2.56,1.06c-.09-1.06,0-2.06,.42-3.04l-2.05,.54c0-.18-.09-.28-.23-.29l2.51,1.46c.19-.54,.44-.99,.76-1.46l-2.59-1.51c-.79,1.75-1.67,3.46-2.64,5.11-.84,1.43,1.23,3.15,2.36,1.82,1.68-1.99,3.36-3.97,5.04-5.96l-2.36-1.82c-2.21,3-4.49,5.94-6.84,8.82l2.36,1.82c1.98-3.51,4.35-6.72,7.13-9.64l-2.36-1.82c-3.5,5.67-9.37,9.43-12.52,15.37-.75,1.43,1.24,3.21,2.36,1.82,2.81-3.5,5.62-7.01,8.43-10.51l-2.36-1.82c-1.75,3.4-4.8,6-7.18,8.96-1.22,1.52-2.39,3.07-3.5,4.68-.92,1.33-1.7,2.81-3.23,3.51l1.82,2.36c2.05-2.37,4.02-4.8,5.93-7.28,1.05-1.35-1.21-3.04-2.36-1.82-1.75,1.86-3.64,3.59-5.68,5.13l1.82,2.36c1.83-1.48,3.56-3.06,5.2-4.76,1.34-1.39-.78-3.51-2.12-2.12-.84,.87-1.7,1.71-2.6,2.53-.3,.27-2.01,2.1-2.43,1.85v2.59c8.12-5.46,14.67-13.05,18.78-21.93,.8-1.73-1.56-3.18-2.59-1.51s-2.02,3.37-2.76,5.21l2.89,.8c.34-2.05,1.35-3.75,2.46-5.46,.52-.81,.81-1.23,1.81-1.31,1.15-.09,2.33-.05,3.49-.08l1.68-.04,.96-.02c.62,.1,.65-.03,.06-.38-.4-.54-.54-.5-.42,.12v.99l-.04,1.72c-.03,2.38-.07,4.76-.1,7.14-.03,1.98,2.77,1.86,3,0,.32-2.6,.35-5.2,.09-7.81-.19-1.9-3.17-1.93-3,0,.25,2.82,.41,5.64,.47,8.47l2.95-.4c-.73-3.66-1.36-7.34-1.88-11.03-.21-1.48-2.6-1.38-2.89,0-.39,1.87-.35,3.77-.37,5.67-.02,2-.03,3.99-.05,5.99h3l-.38-10.66c-.07-1.97-2.8-1.89-3,0l-1.03,9.76h3l-1-10.45c-.15-1.61-2.46-2.12-2.95-.4s-.62,3.57-.84,5.37l-.7,5.78h3l.46-6.33c.14-1.89,.54-3.82-.22-5.61-.41-.97-1.71-.85-2.36-.3-1.91,1.6-3.44,3.57-4.52,5.81-.84,1.75,1.47,3.09,2.59,1.51,1.2-1.69,2.41-3.37,3.74-4.96l-2.51-1.46c-.37,1.42-.73,2.85-1.1,4.27-.43,1.68,1.81,2.56,2.74,1.16l1.2-1.81-2.74-.36c.12,.32,.23,.61,.23,.96,0,.13-.22,.96-.22,.97l1.58-.1-.11-.46c.04-.33-.2-.83-.28-1.15-.27-1.14-.4-2.67-1.6-3.23-2.61-1.21-4.13,2.94-4.25,4.81-.1,1.54,2.06,1.96,2.8,.76,.48-.79,1.05-1.41,1.77-2l-2.51-1.46c-.24,1.2-.49,2.39-.73,3.59-.38,1.88,2.51,2.69,2.89,.8,.24-1.2,.49-2.39,.73-3.59,.31-1.53-1.35-2.41-2.51-1.46-.9,.73-1.63,1.61-2.24,2.6l2.8,.76c.03-.47,.29-1.94,.89-2.07l-1.16-.15c-.31-.16-.11-.09-.05,.29s.19,.77,.28,1.15c.14,.58,.24,1.18,.43,1.75,.31,.95,1.01,1.8,2.09,1.8,2.47-.02,2.68-3.68,2.06-5.34-.46-1.22-2-1.48-2.74-.36l-1.2,1.81,2.74,1.16c.37-1.42,.73-2.85,1.1-4.27s-1.5-2.66-2.51-1.46c-1.49,1.79-2.86,3.67-4.21,5.57l2.59,1.51c.98-2.04,2.32-3.75,4.05-5.2l-2.36-.3c.27,.64-.01,1.74-.06,2.39l-.2,2.68-.39,5.36c-.14,1.95,2.77,1.87,3,0,.41-3.39,.49-7.05,1.43-10.35l-2.95-.4,1,10.45c.18,1.93,2.8,1.92,3,0l1.03-9.76h-3l.38,10.66c.07,1.92,2.98,1.94,3,0,.01-1.84,.03-3.67,.04-5.51s-.1-3.61,.26-5.35h-2.89c.52,3.7,1.15,7.37,1.88,11.03,.33,1.67,2.98,1.28,2.95-.4-.06-2.83-.22-5.65-.47-8.47h-3c.26,2.61,.23,5.21-.09,7.81h3c.04-3.12,.09-6.24,.13-9.36,.02-1.22,.06-2.6-1.3-3.1-1.15-.42-2.77-.1-3.97-.07-2.48,.05-5.46-.4-7.15,1.81-1.6,2.09-3.07,4.63-3.5,7.25-.32,1.92,2.17,2.59,2.89,.8,.64-1.59,1.56-3.05,2.46-4.5l-2.59-1.51c-3.89,8.42-10,15.67-17.7,20.86-.92,.62-1.01,1.99,0,2.59,1.54,.92,3.08,.2,4.36-.83,1.52-1.23,2.94-2.6,4.3-4.01l-2.12-2.12c-1.64,1.69-3.37,3.28-5.2,4.76-1.31,1.06,.45,3.38,1.82,2.36,2.25-1.69,4.36-3.54,6.29-5.59l-2.36-1.82c-1.76,2.28-3.59,4.5-5.46,6.68-1.14,1.32,.26,3.07,1.82,2.36s2.62-2.12,3.59-3.53c1.19-1.75,2.42-3.47,3.75-5.12,2.54-3.15,5.78-5.93,7.65-9.56,.73-1.42-1.23-3.22-2.36-1.82-2.81,3.5-5.62,7.01-8.43,10.51l2.36,1.82c3.13-5.91,9.02-9.7,12.52-15.37,.89-1.44-1.18-3.06-2.36-1.82-2.95,3.09-5.5,6.53-7.6,10.25-.8,1.43,1.24,3.18,2.36,1.82,2.52-3.08,4.95-6.22,7.31-9.43,1-1.36-1.26-3.12-2.36-1.82-1.68,1.99-3.36,3.97-5.04,5.96l2.36,1.82c.97-1.66,1.85-3.36,2.64-5.11s-1.49-3.14-2.59-1.51c-.46,.68-.8,1.4-1.06,2.18-.54,1.56,1.46,2.3,2.51,1.46,1.51-1.21,1.08-3.42-.38-4.42-.61-.42-1.75-.17-2.05,.54-.64,1.48-.96,2.94-.83,4.56,.1,1.21,1.62,2.09,2.56,1.06,.18-.19,.35-.4,.56-.56-.06,.05-.26-.45,0,.13,.3,.64,.62,1.26,.86,1.93,.45,1.21,.76,2.47,.98,3.74s2.14,1.41,2.74,.36c.74-1.3,.57-2.72,1.11-4.05s1.65-2.07,1.7-3.67c.04-1.18-1.29-1.82-2.26-1.3-1.42,.77-2.74,1.67-4.01,2.67l2.51,1.46c.6-1.82,1.82-3.22,3.5-4.14l-2.2-1.69c-.8,1.94-1.89,3.73-3.16,5.39l2.8,.76c-.12-.96,0-1.82,.64-2.59l-2.51-1.46c-1.01,2.39-2.02,4.79-3.03,7.18-.4,.95,.58,1.87,1.45,1.9,.69,.02,1.23-.27,1.66-.81,.12-.16,.39-.46,.4-.66,.17-.28,.03-.18-.43,.29l.85,.38-.69-1.69s-.62,.97-.63,.89l.81,.61c.16-.34,0-.63-.45-.85l1.06-.44-.3-.02,1.06,.44c-.62-.53-.95-1.79-1.26-2.51-.39-.91-.74-1.84-1.08-2.77l-.69,1.69c1.65-1.08,2.97-2.45,3.95-4.16,.85-1.48-1.13-3.01-2.36-1.82-6.66,6.46-12.79,13.44-18.37,20.86-1.07,1.42,1.16,2.9,2.36,1.82,2.69-2.43,4.88-5.31,7.2-8.08s4.88-5.43,7.58-7.9l-2.12-2.12c-5.29,6.5-11.57,12.17-16.29,19.14-.94,1.39,1.28,3.15,2.36,1.82,4.89-6.06,10.48-11.48,16.08-16.87,1.39-1.34-.72-3.45-2.12-2.12-5.61,5.33-10.69,11.19-15.2,17.47-.98,1.37,1.29,3.15,2.36,1.82,4.22-5.26,8.87-10.15,13.91-14.63l-2.12-2.12c-3.41,4.22-6.82,8.44-10.23,12.66l2.36,1.82c5.67-7.52,11.71-14.77,18.54-21.28,1.2-1.14-.43-3.4-1.82-2.36-6.37,4.82-11.78,10.67-17.13,16.57l2.51,1.46c.6-1.53,1.78-2.77,2.82-4.01l3.44-4.09,3.44-4.09,1.57-1.86c.31-.37,.62-.75,.94-1.11l.21-.24c.37-.29,.17-.41-.62-.36,.83,1.74,3.42,.22,2.59-1.51h0Z" style="fill:#fff;"/><path d="M972.24,1090.38l.02-.81-1.9,1.45-.59-.56,.02,.43c-.08,.25-.07,.58-.12,.85-.11,.62-.25,1.24-.29,1.87-.07,1.25,.15,2.48,.03,3.74-.25,2.75-.56,5.51-.84,8.26h3l.16-3.53c.07-1.66-2.69-2.09-2.95-.4-.98,6.39-3.15,12.72-7.59,17.56-1.31,1.43,.68,3.4,2.12,2.12,1.05-.93,1.89-2.05,2.47-3.33,.66-1.45-1.11-3.15-2.36-1.82-2.47,2.63-4.85,5.82-7.9,7.8-1.63,1.06-.21,3.46,1.51,2.59,2.81-1.42,4.99-3.69,6.93-6.12,.95-1.19,1.86-2.41,2.82-3.6s2.14-2.36,3.14-3.6,1.78-2.66,1.92-4.34c.07-.9-.02-1.77,.2-2.65,.2-.8,.56-1.55,.78-2.34,.49-1.75,.52-3.61,.59-5.41,.04-.96,.06-1.93,.07-2.89,0-.56,0-1.12,0-1.69,0-.24,0-.48,0-.72,.06-.35,0-.36-.16-.05l-2.2-.9c.71,2.68,3.08,4.21,5.27,5.65,2.59,1.71,5.27,3.01,8.42,3.16l-1.45-1.9c-.94,2.61-1.74,5.34-.87,8.08,.41,1.3,2.63,1.55,2.89,0,.42-2.49,.63-4.99,.57-7.51l-2.95,.4c.61,2.89-.1,5.83-.03,8.74,.03,1.42,.32,2.81,.44,4.22,.14,1.56-.12,2.97-.5,4.48l2.95,.4c.2-6.65-.61-13.3-2.56-19.66-.52-1.7-2.77-1.23-2.95,.4-.29,2.59-.52,5.19-.69,7.79h3c.04-1.6,0-3.2-.16-4.79-.13-1.23-.19-2.62-1.24-3.44-.78-.61-2.3-.58-2.51,.66-.29,1.69-.48,3.38-.54,5.09s2.64,2.08,2.95,.4c.46-2.53,.45-5.03-.06-7.55-.29-1.44-2.59-1.42-2.89,0-.48,2.3-.9,4.61-1.25,6.93l2.95,.4c-.05-2.2-.14-4.39-.79-6.51-.34-1.11-2.19-1.61-2.74-.36-.78,1.78-1.25,3.56-1.41,5.5h3c.07-2.24,.08-4.49-.66-6.64-.46-1.33-2.52-1.52-2.89,0-.49,2.01-.82,4.04-1.01,6.1h3c.06-2.3-.15-4.57-.6-6.82-.29-1.44-2.59-1.42-2.89,0-.39,1.8-.65,3.61-.79,5.44h3c.06-1.76,.03-3.5-.11-5.26-.15-1.93-2.85-1.93-3,0-.21,2.69-.32,5.38-.34,8.08-.01,1.95,2.85,1.9,3,0,.22-2.76,.03-5.51-.18-8.27-.15-1.9-3.01-1.96-3,0,0,2.71,.16,5.4,.45,8.09,.15,1.41,1.97,2.13,2.8,.76l.27-.45c1-1.66-1.6-3.17-2.59-1.51l-.27,.45,2.8,.76c-.29-2.69-.45-5.39-.45-8.09h-3c.21,2.75,.4,5.51,.18,8.27h3c.02-2.7,.13-5.39,.34-8.08h-3c.14,1.75,.17,3.5,.11,5.26-.07,1.95,2.85,1.9,3,0,.12-1.57,.35-3.11,.68-4.64h-2.89c.4,1.99,.55,3.99,.49,6.02s2.83,1.89,3,0c.16-1.79,.47-3.55,.9-5.3h-2.89c.65,1.9,.62,3.85,.55,5.84s2.84,1.9,3,0c.12-1.37,.45-2.73,1-3.99l-2.74-.36c.57,1.87,.64,3.77,.69,5.71,.04,1.61,2.68,2.13,2.95,.4,.35-2.32,.77-4.63,1.25-6.93h-2.89c.4,1.97,.42,3.98,.06,5.96l2.95,.4c.06-1.44,.2-2.87,.44-4.3l-2.51,.66c.54,.42,.44,2.08,.48,2.75,.07,1.12,.08,2.23,.05,3.35-.05,1.94,2.87,1.91,3,0,.18-2.6,.41-5.2,.69-7.79l-2.95,.4c1.88,6.13,2.64,12.47,2.46,18.87-.05,1.69,2.54,2.04,2.95,.4,.38-1.5,.71-3.02,.65-4.58-.06-1.65-.45-3.27-.49-4.93-.08-3.21,.59-6.35-.08-9.54-.35-1.66-2.99-1.28-2.95,.4,.05,2.25-.08,4.49-.46,6.71h2.89c-.7-2.21,.11-4.4,.87-6.49,.35-.96-.55-1.86-1.45-1.9-2.44-.12-4.52-1.21-6.54-2.52-1.58-1.02-3.73-2.14-4.25-4.09-.26-.97-1.36-1.34-2.2-.9-1.46,.77-1.32,2.43-1.32,3.85,0,2-.04,4-.16,5.99-.11,1.83-.71,3.32-1.17,5.06s.03,3.49-.92,5.04c-.83,1.35-2.08,2.43-3.09,3.64s-1.89,2.39-2.83,3.59c-1.93,2.45-3.97,4.83-6.8,6.25l1.51,2.59c3.3-2.14,5.84-5.42,8.51-8.26l-2.36-1.82c-.49,1.07-1.12,1.94-2.01,2.72l2.12,2.12c4.78-5.22,7.29-11.97,8.36-18.88l-2.95-.4-.16,3.53c-.09,1.96,2.81,1.88,3,0,.33-3.26,.99-6.65,.93-9.93-.02-.77-.18-1.53-.1-2.3,.07-.7,.3-1.37,.36-2.07,.11-1.32-.18-2.76-1.6-3.17-.96-.28-1.88,.49-1.9,1.45l-.02,.81c-.04,1.93,2.96,1.93,3,0h0Z" style="fill:#fff;"/><path d="M954.64,1125.26s-.03,.08-.04,.12l.15-.36c-.06,.13-.13,.25-.22,.37l.23-.3c-.08,.1-.17,.19-.27,.27l.3-.23c-.2,.15-.44,.24-.66,.35-.29,.15-.57,.37-.8,.6-.4,.41-.7,.91-.97,1.41l2.74,1.16c.02-.07,.04-.14,.07-.21l-.15,.36c.08-.19,.18-.36,.3-.52l-.23,.3c.29-.37,.64-.67,1.01-.96,.46-.36,.92-.73,1.38-1.09,.15-.14,.25-.3,.31-.48,.09-.18,.14-.37,.13-.58-.02-.34-.11-.64-.32-.91-.19-.25-.47-.47-.78-.54-.38-.09-.82-.08-1.16,.15-1.1,.75-2.15,1.57-3.13,2.45-.28,.25-.44,.7-.44,1.06s.16,.81,.44,1.06,.66,.46,1.06,.44,.75-.16,1.06-.44c.5-.45,1.01-.88,1.54-1.29l-.3,.23c.42-.32,.85-.63,1.28-.93l-1.82-2.36c-.58,.46-1.18,.9-1.74,1.39-.64,.55-1.16,1.23-1.41,2.05-.11,.35-.05,.84,.15,1.16,.18,.28,.41,.48,.72,.61s.66,.18,.98,.08c.37-.12,.71-.34,.9-.69,.16-.3,.33-.6,.54-.87l-.23,.3c.13-.16,.27-.31,.43-.43l-.3,.23c.15-.11,.32-.19,.49-.27,.28-.13,.5-.29,.75-.48,.45-.36,.74-.88,.92-1.42,.12-.36,.04-.84-.15-1.16s-.54-.61-.9-.69c-.38-.09-.81-.07-1.16,.15s-.56,.51-.69,.9h0Z" style="fill:#fff;"/><path d="M969.8,1089.56c-4.39-.77-8.33-2.84-11.5-5.81-5.31-4.97-8.46-12.46-7.93-20.63,.21-3.23,.98-6.29,2.19-9.06,4.03-9.16,12.96-15.26,22.91-14.63,7.18,.46,13.39,4.34,17.34,10.08" style="fill:#fff; stroke:#000; stroke-miterlimit:10;"/><path d="M992.87,1049.21c1.42,1.44,3.3,3.7,5.13,7.52,5.55,11.59,4.4,24.66,1.69,30.67-1,2.22-2.23,3.57-3.94,7.81-.7,1.74-.98,2.71-1.98,3.55-2.11,1.78-5.32,1.23-6.95,.92-7.84-1.47-18.58-8.93-18.72-17.55-.04-2.83,1.08-4.05,.45-7.69-.79-4.55-3.19-4.94-3.06-8.28,.16-4.17,3.1-8.61,6.98-10.59,2.31-1.18,2.97-.48,4.5-1.65,3.86-2.96,1.13-8.91,3.85-10.6,2.84-1.76,8.94,2.73,12.06,5.9Z" style="fill:#fff; stroke:#000; stroke-miterlimit:10;"/><path d="M986.99,1121.66c-.55-3.21-1.04-7.12-1.24-11.6-.18-3.91-.09-7.4,.1-10.35" style="fill:none; stroke:#000; stroke-miterlimit:10; stroke-width:.76px;"/><path d="M969.67,1087.66c.52,5.87,.26,13.61-2.77,22.43-.16,.48-.32,.91-.41,1.14-1.04,2.76-3.97,8.23-13.72,15.37" style="fill:none; stroke:#000; stroke-miterlimit:10;"/><path d="M958.3,1083.75c-.62,.3-1.27,.54-1.97,.71-6.62,1.62-13.63-3.82-15.69-12.16-2.05-8.33,1.65-16.41,8.26-18.04,1.22-.3,2.45-.36,3.66-.2-1.22,2.78-1.98,5.83-2.19,9.06-.53,8.17,2.62,15.66,7.93,20.63Z" style="fill:#fff; stroke:#000; stroke-miterlimit:10;"/><path d="M985.89,1114.37c3.9,2.26,7.02,4.37,9.27,5.99,5.54,3.97,8.53,6.86,10.78,9.43,1.63,1.86,4.27,5.18,4.48,8.93,0,.13,0,.21,.04,1.39,0,0,.07,2.41,.22,6.97,.27,8.29,2.28,17.88,.78,29-.11,.79-.26,1.55-.47,2.41-1.31,5.43-2.97,8.51-2.34,14.04,.76,6.63,4.1,10.98,6.03,13.77,11.97,17.28,10.42,43.05,9.54,57.65-.34,5.6-1.01,10.37-1.64,14.02-19.77,.4-39.54,.81-59.31,1.21-3.19-7.43-11.43-28.25-10.71-50.63,.3-9.2,.57-17.62,5.42-26.71,3.07-5.74,4.91-6.03,5.94-10.66,1.83-8.21-1.48-18.44-3.6-25.02h0l.38-2.41" style="fill:#fff; stroke:#000; stroke-miterlimit:10; stroke-width:1.08px;"/><path d="M993.02,1119.03l17.1-.55c3.26-.1,6,2.47,6.11,5.73l.16,4.9c-.03,.66-.2,2.53-1.6,4.24-1.92,2.35-4.67,2.57-5.16,2.6" style="fill:#fff; stroke:#000; stroke-miterlimit:10; stroke-width:.95px;"/><path d="M987.1,1152.03c-.19,6.36-5.48,11.54-11.85,11.55-6.37,.01-11.51-5.15-11.88-11.14-.43-7.02,5.83-13.21,12.86-12.63,6.03,.49,11.06,5.83,10.87,12.22Z" style="fill:url(#av);"/><path d="M1014.21,1148.37c-.29,5.16-4.97,10.67-11.17,10.83-6.44,.17-11.13-5.59-11.88-11.14-.62-4.61,1.37-10.32,5.88-12.41,3.43-1.59,6.98-.47,7.67-.25,3.01,.95,4.74,2.89,5.71,4.01,1.11,1.27,4.02,4.61,3.78,8.96Z" style="fill:url(#aw);"/><path d="M967.7,1140.93l13.5,23.96c2.26,4.01,.83,9.15-3.19,11.41l-1.82,1.02c-4.01,2.26-9.15,.83-11.41-3.19l-19.2-34.08c-2.26-4.01-.83-9.15,3.19-11.41l1.82-1.02,2.18-1.01" style="fill:#fff; stroke:#000; stroke-miterlimit:10;"/><path d="M984.89,1066.61c.35,.61,.53,1.37,.5,2.2-.03,.52-.14,1.01-.32,1.45" style="fill:#fff; stroke:#000; stroke-miterlimit:10; stroke-width:.5px;"/><path d="M980.59,1069.89c-1.74-.39-3.17-1-3.69-1.23,.63-.52,1.95-1.46,3.81-1.95-.28,.44-.44,.96-.47,1.55s.1,1.16,.35,1.63Z" style="fill:#fff; stroke:#000; stroke-miterlimit:10; stroke-width:.5px;"/><path d="M982.55,1066.26s.04,.06,.05,.09" style="fill:#fff; stroke:#000; stroke-miterlimit:10; stroke-width:.5px;"/><path d="M980.72,1066.69s0,.01-.01,0" style="fill:#fff; stroke:#000; stroke-miterlimit:10; stroke-width:.5px;"/><path d="M980.61,1069.93s-.02-.03-.02-.04" style="fill:#fff; stroke:#000; stroke-miterlimit:10; stroke-width:.5px;"/><path d="M980.59,1069.89c.35,.08,.71,.16,1.1,.22,1.52,.23,2.88,.17,3.99,.01" style="fill:#fff; stroke:#000; stroke-miterlimit:10; stroke-width:.5px;"/><path d="M980.71,1066.7c.36-.1,.74-.19,1.15-.24,1.52-.21,2.79-.02,3.63,.17" style="fill:#fff; stroke:#000; stroke-miterlimit:10; stroke-width:.5px;"/><path d="M977.42,1063.51c.71-.64,2.64-2.19,5.47-2.37,.6-.04,4.2-.27,5.68,1.81,.59,.84,1,2.27,1.11,2.65,.27,.95,.15,1.09,.35,1.69,.93,2.69,3.96,5.05,5.35,5.53,.09,.03,.39,.13,.62,.4,.42,.49,.38,1.25,.22,1.75-.34,1.07-1.58,1.84-2.77,1.72-.7-.07-1.2-.43-1.43-.63" style="fill:none; stroke:#000; stroke-miterlimit:10; stroke-width:.5px;"/><path d="M984.12,1084.17c.12-.18,.91,.57,2.05,.54,.91-.02,1.11-.52,2.75-.84,.48-.09,.8-.12,1.15,0,.54,.19,.58,.55,.97,.58,.49,.04,.66-.49,1.36-.77,.49-.19,.93-.13,1.39-.07,1.48,.2,2.95,1.19,2.83,1.62-.08,.28-.75,.03-2.02,.43-1.27,.4-1.39,.89-2.06,.8-.84-.12-1.04-.97-1.87-.95-.37,.01-.44,.18-.95,.39-1.11,.45-2.21,.21-2.8,.09,0,0-1.03-.22-1.81-.74-.05-.04-.18-.12-.33-.25-.27-.23-.76-.73-.67-.86Z" style="fill:none; stroke:#000; stroke-miterlimit:10; stroke-width:.5px;"/><path d="M984.8,1085.02c.04,.27,.11,.61,.27,.97,0,0,.19,.44,.51,.85,.53,.68,3.67,2.91,7.07,1.74,.46-.16,2.67-.91,3.19-2.7,.05-.18,.08-.34,.09-.45" style="fill:none; stroke:#000; stroke-miterlimit:10; stroke-width:.5px;"/><path d="M998.83,1059.36c-.8-.36-1.97-.73-3.27-.51-1.48,.24-2.53,1.12-3.16,1.81" style="fill:#fff; stroke:#000; stroke-miterlimit:10; stroke-width:.5px;"/><path d="M993.98,1065.44c-.13,.65-.07,1.39,.22,2.12,.18,.46,.43,.87,.72,1.2" style="fill:#fff; stroke:#000; stroke-miterlimit:10; stroke-width:.47px;"/><path d="M998.83,1067.07c1.44-.87,2.54-1.85,2.93-2.22-.72-.27-2.19-.72-4.01-.6,.38,.31,.69,.73,.89,1.25s.26,1.07,.18,1.57Z" style="fill:#fff; stroke:#000; stroke-miterlimit:10; stroke-width:.47px;"/><path d="M995.98,1064.42s-.01,.06-.02,.1" style="fill:#fff; stroke:#000; stroke-miterlimit:10; stroke-width:.47px;"/><path d="M997.76,1064.26s-.01,0-.01,0" style="fill:#fff; stroke:#000; stroke-miterlimit:10; stroke-width:.47px;"/><path d="M998.83,1067.07s0,.03,0,.04" style="fill:#fff; stroke:#000; stroke-miterlimit:10; stroke-width:.47px;"/><path d="M994.34,1068.81c1.05-.19,2.28-.55,3.57-1.21,.33-.17,.63-.35,.92-.52" style="fill:#fff; stroke:#000; stroke-miterlimit:10; stroke-width:.47px;"/><path d="M993.45,1065.64c.69-.42,1.77-.98,3.2-1.25,.38-.08,.75-.12,1.1-.13" style="fill:#fff; stroke:#000; stroke-miterlimit:10; stroke-width:.47px;"/><rect x="950.52" y="1278.89" width="87.23" height="31.4" transform="translate(-41.15 32.67) rotate(-1.84)" style="fill:#fff; stroke:#000; stroke-miterlimit:10; stroke-width:.97px;"/></g><g id="ax"/></svg>